G04 Layer_Physical_Order=2*
G04 Layer_Color=16711680*
%FSLAX25Y25*%
%MOIN*%
G70*
G01*
G75*
%ADD33C,0.04000*%
%ADD34C,0.01000*%
%ADD35C,0.02000*%
%ADD36C,0.01500*%
%ADD38O,1.41732X0.07874*%
%ADD39C,0.05905*%
%ADD40R,0.05905X0.05905*%
%ADD41R,0.05905X0.05905*%
%ADD42C,0.04724*%
%ADD43C,0.06299*%
%ADD44R,0.06299X0.06299*%
%ADD45C,0.04000*%
%ADD46R,0.05905X0.09842*%
%ADD47R,0.09842X0.05905*%
%ADD48C,0.07000*%
%ADD49R,0.07000X0.07000*%
%ADD50C,0.03000*%
%ADD51C,0.04500*%
%ADD52C,0.05512*%
%ADD53C,0.01968*%
%ADD54C,0.05000*%
%ADD55C,0.02500*%
%ADD56C,0.01500*%
%ADD57C,0.02000*%
G36*
X314134Y201220D02*
X210630D01*
X210163Y201127D01*
X209767Y200863D01*
X209503Y200467D01*
X209410Y200000D01*
X1220D01*
Y384607D01*
X314134D01*
Y201220D01*
D02*
G37*
G36*
X206162Y3976D02*
X3976D01*
Y198386D01*
X206162D01*
Y3976D01*
D02*
G37*
%LPC*%
G36*
X227079Y252782D02*
X226047Y252646D01*
X225085Y252248D01*
X224260Y251614D01*
X223626Y250789D01*
X223228Y249827D01*
X223092Y248795D01*
X223228Y247763D01*
X223626Y246802D01*
X224260Y245976D01*
X225085Y245342D01*
X226047Y244944D01*
X227079Y244808D01*
X228111Y244944D01*
X229072Y245342D01*
X229898Y245976D01*
X230532Y246802D01*
X230930Y247763D01*
X231066Y248795D01*
X230930Y249827D01*
X230532Y250789D01*
X229898Y251614D01*
X229072Y252248D01*
X228111Y252646D01*
X227079Y252782D01*
D02*
G37*
G36*
X243079D02*
X242047Y252646D01*
X241085Y252248D01*
X240260Y251614D01*
X239626Y250789D01*
X239228Y249827D01*
X239092Y248795D01*
X239228Y247763D01*
X239626Y246802D01*
X240260Y245976D01*
X241085Y245342D01*
X242047Y244944D01*
X243079Y244808D01*
X244111Y244944D01*
X245072Y245342D01*
X245898Y245976D01*
X246532Y246802D01*
X246930Y247763D01*
X247066Y248795D01*
X246930Y249827D01*
X246532Y250789D01*
X245898Y251614D01*
X245072Y252248D01*
X244111Y252646D01*
X243079Y252782D01*
D02*
G37*
G36*
Y242782D02*
X242047Y242646D01*
X241085Y242248D01*
X240260Y241614D01*
X239626Y240789D01*
X239228Y239827D01*
X239092Y238795D01*
X239228Y237763D01*
X239626Y236802D01*
X240260Y235976D01*
X241085Y235343D01*
X242047Y234944D01*
X243079Y234808D01*
X244111Y234944D01*
X245072Y235343D01*
X245898Y235976D01*
X246532Y236802D01*
X246930Y237763D01*
X247066Y238795D01*
X246930Y239827D01*
X246532Y240789D01*
X245898Y241614D01*
X245072Y242248D01*
X244111Y242646D01*
X243079Y242782D01*
D02*
G37*
G36*
X227079D02*
X226047Y242646D01*
X225085Y242248D01*
X224260Y241614D01*
X223626Y240789D01*
X223228Y239827D01*
X223092Y238795D01*
X223228Y237763D01*
X223626Y236802D01*
X224260Y235976D01*
X225085Y235343D01*
X226047Y234944D01*
X227079Y234808D01*
X228111Y234944D01*
X229072Y235343D01*
X229898Y235976D01*
X230532Y236802D01*
X230930Y237763D01*
X231066Y238795D01*
X230930Y239827D01*
X230532Y240789D01*
X229898Y241614D01*
X229072Y242248D01*
X228111Y242646D01*
X227079Y242782D01*
D02*
G37*
G36*
X230031Y272768D02*
X224126D01*
X223736Y272690D01*
X223405Y272469D01*
X223184Y272138D01*
X223106Y271748D01*
Y265843D01*
X223184Y265452D01*
X223405Y265122D01*
X223736Y264900D01*
X224126Y264823D01*
X230031D01*
X230422Y264900D01*
X230752Y265122D01*
X230974Y265452D01*
X231051Y265843D01*
Y271748D01*
X230974Y272138D01*
X230752Y272469D01*
X230422Y272690D01*
X230031Y272768D01*
D02*
G37*
G36*
X246031D02*
X240126D01*
X239736Y272690D01*
X239405Y272469D01*
X239184Y272138D01*
X239106Y271748D01*
Y265843D01*
X239184Y265452D01*
X239405Y265122D01*
X239736Y264900D01*
X240126Y264823D01*
X246031D01*
X246422Y264900D01*
X246752Y265122D01*
X246973Y265452D01*
X247051Y265843D01*
Y271748D01*
X246973Y272138D01*
X246752Y272469D01*
X246422Y272690D01*
X246031Y272768D01*
D02*
G37*
G36*
X161398Y316026D02*
X134398D01*
X133615Y315923D01*
X132885Y315620D01*
X132258Y315140D01*
X130758Y313640D01*
X130277Y313013D01*
X129975Y312283D01*
X129872Y311500D01*
Y283958D01*
X129340Y283265D01*
X128988Y282414D01*
X128867Y281500D01*
X128988Y280586D01*
X129340Y279735D01*
X129485Y279547D01*
X129397Y278993D01*
X129378Y278965D01*
X129351Y278945D01*
X129268Y278801D01*
X129176Y278663D01*
X129169Y278629D01*
X129153Y278600D01*
X129131Y278435D01*
X129098Y278272D01*
Y264720D01*
X129176Y264330D01*
X129397Y263999D01*
X129728Y263778D01*
X130118Y263701D01*
X172677D01*
X173067Y263778D01*
X173398Y263999D01*
X173619Y264330D01*
X173697Y264720D01*
Y314780D01*
X173619Y315170D01*
X173398Y315501D01*
X173067Y315722D01*
X172677Y315799D01*
X164550D01*
X164160Y315722D01*
X163830Y315501D01*
X163185Y315410D01*
X162911Y315620D01*
X162181Y315923D01*
X161398Y316026D01*
D02*
G37*
G36*
X227079Y262782D02*
X226047Y262646D01*
X225085Y262248D01*
X224260Y261614D01*
X223626Y260789D01*
X223228Y259827D01*
X223092Y258795D01*
X223228Y257763D01*
X223626Y256802D01*
X224260Y255976D01*
X225085Y255343D01*
X226047Y254944D01*
X227079Y254808D01*
X228111Y254944D01*
X229072Y255343D01*
X229898Y255976D01*
X230532Y256802D01*
X230930Y257763D01*
X231066Y258795D01*
X230930Y259827D01*
X230532Y260789D01*
X229898Y261614D01*
X229072Y262248D01*
X228111Y262646D01*
X227079Y262782D01*
D02*
G37*
G36*
X243079D02*
X242047Y262646D01*
X241085Y262248D01*
X240260Y261614D01*
X239626Y260789D01*
X239228Y259827D01*
X239092Y258795D01*
X239228Y257763D01*
X239626Y256802D01*
X240260Y255976D01*
X241085Y255343D01*
X242047Y254944D01*
X243079Y254808D01*
X244111Y254944D01*
X245072Y255343D01*
X245898Y255976D01*
X246532Y256802D01*
X246930Y257763D01*
X247066Y258795D01*
X246930Y259827D01*
X246532Y260789D01*
X245898Y261614D01*
X245072Y262248D01*
X244111Y262646D01*
X243079Y262782D01*
D02*
G37*
G36*
X163150Y367547D02*
X133090D01*
X132700Y367470D01*
X132369Y367249D01*
X132148Y366918D01*
X132071Y366528D01*
Y333968D01*
X132148Y333578D01*
X132369Y333247D01*
X132700Y333026D01*
X133090Y332949D01*
X163150D01*
X163540Y333026D01*
X163871Y333247D01*
X164092Y333578D01*
X164169Y333968D01*
Y366528D01*
X164092Y366918D01*
X163871Y367249D01*
X163540Y367470D01*
X163150Y367547D01*
D02*
G37*
G36*
X282551Y367492D02*
X270398D01*
X270276Y367468D01*
X270152Y367462D01*
X270083Y367429D01*
X270008Y367415D01*
X269905Y367345D01*
X269792Y367292D01*
X269741Y367236D01*
X269677Y367194D01*
X269608Y367090D01*
X269525Y366998D01*
X269407Y366802D01*
X269055Y366616D01*
X268272Y366719D01*
X245772D01*
X244988Y366616D01*
X244587Y366863D01*
X244495Y367001D01*
X244411Y367145D01*
X244385Y367165D01*
X244366Y367194D01*
X244228Y367286D01*
X244096Y367387D01*
X244063Y367396D01*
X244035Y367415D01*
X243872Y367447D01*
X243711Y367490D01*
X243678Y367486D01*
X243645Y367492D01*
X202492D01*
X202102Y367415D01*
X201771Y367194D01*
X201550Y366863D01*
X201472Y366473D01*
Y283413D01*
X201550Y283023D01*
X201771Y282692D01*
X202102Y282471D01*
X202492Y282394D01*
X282551D01*
X282942Y282471D01*
X283272Y282692D01*
X283493Y283023D01*
X283571Y283413D01*
Y366473D01*
X283493Y366863D01*
X283272Y367194D01*
X282942Y367415D01*
X282551Y367492D01*
D02*
G37*
G36*
X111890Y369162D02*
X27015D01*
X26982Y369155D01*
X26948Y369159D01*
X26788Y369116D01*
X26625Y369084D01*
X26597Y369065D01*
X26564Y369056D01*
X26432Y368955D01*
X26294Y368863D01*
X26275Y368835D01*
X26249Y368814D01*
X26166Y368670D01*
X26073Y368532D01*
X25611Y368419D01*
X25225Y368579D01*
X24193Y368715D01*
X23161Y368579D01*
X22774Y368419D01*
X22313Y368532D01*
X22220Y368670D01*
X22137Y368814D01*
X22110Y368835D01*
X22092Y368863D01*
X21953Y368955D01*
X21822Y369056D01*
X21789Y369065D01*
X21761Y369084D01*
X21598Y369116D01*
X21437Y369159D01*
X21404Y369155D01*
X21371Y369162D01*
X7433D01*
X7043Y369084D01*
X6712Y368863D01*
X6491Y368532D01*
X6413Y368142D01*
Y264582D01*
X6491Y264192D01*
X6712Y263862D01*
X7043Y263640D01*
X7433Y263563D01*
X64884D01*
X64917Y263569D01*
X64951Y263565D01*
X65111Y263608D01*
X65274Y263640D01*
X65302Y263659D01*
X65335Y263668D01*
X65467Y263769D01*
X65605Y263862D01*
X65624Y263890D01*
X65650Y263910D01*
X65733Y264054D01*
X65826Y264192D01*
X66082Y264400D01*
X66287Y264493D01*
X67370Y264350D01*
X68453Y264493D01*
X68659Y264400D01*
X68914Y264192D01*
X69007Y264054D01*
X69090Y263910D01*
X69117Y263890D01*
X69135Y263862D01*
X69274Y263769D01*
X69405Y263668D01*
X69438Y263659D01*
X69466Y263640D01*
X69629Y263608D01*
X69790Y263565D01*
X69823Y263569D01*
X69856Y263563D01*
X84569D01*
X84602Y263569D01*
X84636Y263565D01*
X84796Y263608D01*
X84959Y263640D01*
X84987Y263659D01*
X85020Y263668D01*
X85152Y263769D01*
X85290Y263862D01*
X85309Y263890D01*
X85335Y263910D01*
X85418Y264054D01*
X85511Y264192D01*
X85767Y264400D01*
X85972Y264493D01*
X87055Y264350D01*
X88138Y264493D01*
X88344Y264400D01*
X88599Y264192D01*
X88692Y264054D01*
X88775Y263910D01*
X88802Y263890D01*
X88820Y263862D01*
X88959Y263769D01*
X89090Y263668D01*
X89123Y263659D01*
X89151Y263640D01*
X89314Y263608D01*
X89475Y263565D01*
X89508Y263569D01*
X89541Y263563D01*
X118492D01*
X118883Y263640D01*
X119213Y263862D01*
X119434Y264192D01*
X119512Y264582D01*
Y291474D01*
X119505Y291507D01*
X119510Y291540D01*
X119467Y291701D01*
X119434Y291864D01*
X119415Y291892D01*
X119407Y291925D01*
X119306Y292056D01*
X119213Y292195D01*
X119185Y292213D01*
X119165Y292240D01*
X119021Y292323D01*
X118883Y292415D01*
X118581Y292791D01*
X118564Y292830D01*
X118700Y293862D01*
X118564Y294894D01*
X118581Y294934D01*
X118883Y295309D01*
X119021Y295401D01*
X119165Y295484D01*
X119185Y295511D01*
X119213Y295530D01*
X119306Y295668D01*
X119407Y295800D01*
X119415Y295833D01*
X119434Y295861D01*
X119467Y296024D01*
X119510Y296184D01*
X119505Y296218D01*
X119512Y296251D01*
Y362340D01*
X119505Y362373D01*
X119510Y362406D01*
X119467Y362567D01*
X119434Y362730D01*
X119415Y362758D01*
X119407Y362791D01*
X119306Y362922D01*
X119213Y363061D01*
X119185Y363080D01*
X119165Y363106D01*
X119021Y363189D01*
X118883Y363282D01*
X118581Y363657D01*
X118564Y363697D01*
X118700Y364728D01*
X118564Y365760D01*
X118165Y366722D01*
X117532Y367547D01*
X116706Y368181D01*
X115744Y368579D01*
X114713Y368715D01*
X113681Y368579D01*
X113294Y368419D01*
X112832Y368532D01*
X112740Y368670D01*
X112657Y368814D01*
X112630Y368835D01*
X112611Y368863D01*
X112473Y368955D01*
X112341Y369056D01*
X112309Y369065D01*
X112280Y369084D01*
X112118Y369116D01*
X111957Y369159D01*
X111924Y369155D01*
X111890Y369162D01*
D02*
G37*
%LPD*%
G36*
X172677Y264720D02*
X130118D01*
Y278272D01*
X130566Y278493D01*
X130632Y278443D01*
X131484Y278090D01*
X132398Y277970D01*
X133311Y278090D01*
X134163Y278443D01*
X134894Y279004D01*
X135455Y279735D01*
X135808Y280586D01*
X135928Y281500D01*
X135924Y281533D01*
Y292851D01*
X136372Y293072D01*
X136404Y293047D01*
X137366Y292649D01*
X138398Y292513D01*
X139429Y292649D01*
X140391Y293047D01*
X141217Y293681D01*
X141850Y294507D01*
X142249Y295468D01*
X142385Y296500D01*
X142249Y297532D01*
X141850Y298493D01*
X141217Y299319D01*
X140391Y299953D01*
X139429Y300351D01*
X138398Y300487D01*
X137366Y300351D01*
X136404Y299953D01*
X136372Y299928D01*
X135924Y300149D01*
Y302528D01*
X141350D01*
X141741Y302605D01*
X142071Y302826D01*
X142292Y303157D01*
X142370Y303547D01*
Y304971D01*
X157264D01*
X158030Y304205D01*
X157543Y303475D01*
X157349Y302500D01*
X157543Y301525D01*
X158095Y300698D01*
X158922Y300145D01*
X159898Y299951D01*
X160873Y300145D01*
X161700Y300698D01*
X162253Y301525D01*
X162447Y302500D01*
X162253Y303475D01*
X161700Y304302D01*
X161427Y304485D01*
Y304500D01*
X161311Y305085D01*
X160979Y305581D01*
X158979Y307581D01*
X158483Y307913D01*
X157898Y308029D01*
X142370D01*
Y309453D01*
X142366Y309474D01*
X142760Y309974D01*
X160144D01*
X163425Y306693D01*
Y304047D01*
X163503Y303657D01*
X163724Y303326D01*
X164055Y303105D01*
X164445Y303028D01*
X170350D01*
X170741Y303105D01*
X171071Y303326D01*
X171292Y303657D01*
X171370Y304047D01*
Y309953D01*
X171292Y310343D01*
X171071Y310674D01*
X170741Y310895D01*
X170350Y310972D01*
X167705D01*
X164359Y314318D01*
X164550Y314780D01*
X172677D01*
Y264720D01*
D02*
G37*
%LPC*%
G36*
X167398Y290987D02*
X166366Y290851D01*
X165404Y290453D01*
X164578Y289819D01*
X163945Y288993D01*
X163547Y288032D01*
X163411Y287000D01*
X163547Y285968D01*
X163945Y285007D01*
X164578Y284181D01*
X165404Y283547D01*
X166366Y283149D01*
X167398Y283013D01*
X168430Y283149D01*
X169391Y283547D01*
X170217Y284181D01*
X170850Y285007D01*
X171249Y285968D01*
X171385Y287000D01*
X171249Y288032D01*
X170850Y288993D01*
X170217Y289819D01*
X169391Y290453D01*
X168430Y290851D01*
X167398Y290987D01*
D02*
G37*
G36*
X166898Y296500D02*
X163477D01*
X163547Y295968D01*
X163945Y295007D01*
X164578Y294181D01*
X165404Y293547D01*
X166366Y293149D01*
X166898Y293079D01*
Y296500D01*
D02*
G37*
G36*
X171319D02*
X167898D01*
Y293079D01*
X168430Y293149D01*
X169391Y293547D01*
X170217Y294181D01*
X170850Y295007D01*
X171249Y295968D01*
X171319Y296500D01*
D02*
G37*
G36*
X167398Y280987D02*
X166366Y280851D01*
X165404Y280453D01*
X164578Y279819D01*
X163945Y278993D01*
X163547Y278032D01*
X163411Y277000D01*
X163547Y275968D01*
X163945Y275007D01*
X164578Y274181D01*
X165404Y273547D01*
X166366Y273149D01*
X167398Y273013D01*
X168430Y273149D01*
X169391Y273547D01*
X170217Y274181D01*
X170850Y275007D01*
X171249Y275968D01*
X171385Y277000D01*
X171249Y278032D01*
X170850Y278993D01*
X170217Y279819D01*
X169391Y280453D01*
X168430Y280851D01*
X167398Y280987D01*
D02*
G37*
G36*
X166898Y300921D02*
X166366Y300851D01*
X165404Y300453D01*
X164578Y299819D01*
X163945Y298993D01*
X163547Y298032D01*
X163477Y297500D01*
X166898D01*
Y300921D01*
D02*
G37*
G36*
X167898D02*
Y297500D01*
X171319D01*
X171249Y298032D01*
X170850Y298993D01*
X170217Y299819D01*
X169391Y300453D01*
X168430Y300851D01*
X167898Y300921D01*
D02*
G37*
%LPD*%
G36*
X163150Y333968D02*
X133090D01*
Y366528D01*
X163150D01*
Y333968D01*
D02*
G37*
%LPC*%
G36*
X161291Y340748D02*
X157870D01*
Y337327D01*
X158402Y337397D01*
X159363Y337795D01*
X160189Y338429D01*
X160823Y339255D01*
X161221Y340216D01*
X161291Y340748D01*
D02*
G37*
G36*
X156870D02*
X153449D01*
X153519Y340216D01*
X153917Y339255D01*
X154551Y338429D01*
X155377Y337795D01*
X156338Y337397D01*
X156870Y337327D01*
Y340748D01*
D02*
G37*
G36*
X160323Y365220D02*
X154417D01*
X154027Y365143D01*
X153696Y364922D01*
X153475Y364591D01*
X153398Y364201D01*
Y358295D01*
X153475Y357905D01*
X153696Y357574D01*
X154027Y357353D01*
X154417Y357276D01*
X160323D01*
X160713Y357353D01*
X161044Y357574D01*
X161265Y357905D01*
X161342Y358295D01*
Y364201D01*
X161265Y364591D01*
X161044Y364922D01*
X160713Y365143D01*
X160323Y365220D01*
D02*
G37*
G36*
X156870Y345169D02*
X156338Y345099D01*
X155377Y344701D01*
X154551Y344067D01*
X153917Y343242D01*
X153519Y342280D01*
X153449Y341748D01*
X156870D01*
Y345169D01*
D02*
G37*
G36*
X157870D02*
Y341748D01*
X161291D01*
X161221Y342280D01*
X160823Y343242D01*
X160189Y344067D01*
X159363Y344701D01*
X158402Y345099D01*
X157870Y345169D01*
D02*
G37*
G36*
X157370Y355235D02*
X156338Y355099D01*
X155377Y354701D01*
X154551Y354067D01*
X153917Y353241D01*
X153519Y352280D01*
X153383Y351248D01*
X153519Y350216D01*
X153917Y349255D01*
X154551Y348429D01*
X155377Y347795D01*
X156338Y347397D01*
X157370Y347261D01*
X158402Y347397D01*
X159363Y347795D01*
X160189Y348429D01*
X160823Y349255D01*
X161221Y350216D01*
X161357Y351248D01*
X161221Y352280D01*
X160823Y353241D01*
X160189Y354067D01*
X159363Y354701D01*
X158402Y355099D01*
X157370Y355235D01*
D02*
G37*
%LPD*%
G36*
X282551Y283413D02*
X202492D01*
Y366473D01*
X243645D01*
X243815Y365973D01*
X243632Y365833D01*
X238132Y360333D01*
X238132Y360333D01*
X237651Y359706D01*
X237349Y358976D01*
X237246Y358193D01*
X237349Y357410D01*
X237651Y356680D01*
X238132Y356053D01*
X238759Y355572D01*
X239489Y355270D01*
X240272Y355167D01*
X241055Y355270D01*
X241785Y355572D01*
X242411Y356053D01*
X242411Y356053D01*
X247025Y360667D01*
X267018D01*
X270385Y357300D01*
X271702Y355883D01*
X272222Y355231D01*
X272630Y354646D01*
X272799Y354349D01*
Y352240D01*
X272877Y351850D01*
X273098Y351519D01*
X273429Y351298D01*
X273819Y351221D01*
X279724D01*
X280115Y351298D01*
X280445Y351519D01*
X280666Y351850D01*
X280744Y352240D01*
Y358146D01*
X280666Y358536D01*
X280445Y358867D01*
X280115Y359088D01*
X279724Y359165D01*
X277615D01*
X277319Y359335D01*
X276745Y359734D01*
X275336Y360926D01*
X274805Y361439D01*
X270411Y365832D01*
X270411Y365833D01*
X270229Y365973D01*
X270281Y366277D01*
X270398Y366473D01*
X282551D01*
Y283413D01*
D02*
G37*
%LPC*%
G36*
X239272Y354153D02*
X238988Y354116D01*
X238259Y353813D01*
X237632Y353333D01*
X237151Y352706D01*
X236849Y351976D01*
X236812Y351693D01*
X239272D01*
Y354153D01*
D02*
G37*
G36*
X240272D02*
Y351693D01*
X242732D01*
X242694Y351976D01*
X242392Y352706D01*
X241911Y353333D01*
X241285Y353813D01*
X240555Y354116D01*
X240272Y354153D01*
D02*
G37*
G36*
X277272Y299114D02*
Y295693D01*
X280693D01*
X280623Y296225D01*
X280224Y297186D01*
X279591Y298012D01*
X278765Y298646D01*
X277803Y299044D01*
X277272Y299114D01*
D02*
G37*
G36*
X276272D02*
X275740Y299044D01*
X274778Y298646D01*
X273953Y298012D01*
X273319Y297186D01*
X272921Y296225D01*
X272851Y295693D01*
X276272D01*
Y299114D01*
D02*
G37*
G36*
X276772Y329180D02*
X275740Y329044D01*
X274778Y328646D01*
X273953Y328012D01*
X273319Y327186D01*
X272921Y326225D01*
X272785Y325193D01*
X272921Y324161D01*
X273319Y323200D01*
X273953Y322374D01*
X274778Y321740D01*
X275740Y321342D01*
X276772Y321206D01*
X277803Y321342D01*
X278765Y321740D01*
X279591Y322374D01*
X280224Y323200D01*
X280623Y324161D01*
X280759Y325193D01*
X280623Y326225D01*
X280224Y327186D01*
X279591Y328012D01*
X278765Y328646D01*
X277803Y329044D01*
X276772Y329180D01*
D02*
G37*
G36*
Y349180D02*
X275740Y349044D01*
X274778Y348646D01*
X273953Y348012D01*
X273319Y347186D01*
X272921Y346225D01*
X272785Y345193D01*
X272921Y344161D01*
X273319Y343199D01*
X273953Y342374D01*
X274424Y342012D01*
X274467Y341349D01*
X271237Y338119D01*
X270906Y337623D01*
X270790Y337037D01*
Y330874D01*
X261248Y321332D01*
X261208Y321306D01*
X261166Y321283D01*
X261121Y321263D01*
X261071Y321246D01*
X261015Y321232D01*
X260951Y321222D01*
X260898Y321217D01*
X260772Y321242D01*
X259796Y321048D01*
X258969Y320495D01*
X258417Y319668D01*
X258223Y318693D01*
X258417Y317718D01*
X258748Y317222D01*
X258480Y316722D01*
X256974D01*
X256928Y316732D01*
X256882Y316746D01*
X256836Y316764D01*
X256789Y316787D01*
X256739Y316817D01*
X256687Y316854D01*
X256646Y316888D01*
X256574Y316995D01*
X255747Y317548D01*
X254772Y317742D01*
X253796Y317548D01*
X252969Y316995D01*
X252417Y316168D01*
X252223Y315193D01*
X252417Y314217D01*
X252969Y313390D01*
X253796Y312838D01*
X254772Y312644D01*
X255747Y312838D01*
X256574Y313390D01*
X256646Y313498D01*
X256687Y313532D01*
X256739Y313569D01*
X256789Y313599D01*
X256836Y313622D01*
X256882Y313640D01*
X256928Y313654D01*
X256974Y313664D01*
X272168D01*
X272256Y313645D01*
X272383Y313602D01*
X272540Y313531D01*
X272722Y313429D01*
X272928Y313294D01*
X273145Y313132D01*
X273667Y312676D01*
X273887Y312459D01*
X273953Y312374D01*
X274778Y311740D01*
X275740Y311342D01*
X276772Y311206D01*
X277803Y311342D01*
X278765Y311740D01*
X279591Y312374D01*
X280224Y313199D01*
X280623Y314161D01*
X280759Y315193D01*
X280623Y316225D01*
X280224Y317186D01*
X279591Y318012D01*
X278765Y318646D01*
X277803Y319044D01*
X276772Y319180D01*
X275740Y319044D01*
X274778Y318646D01*
X273953Y318012D01*
X273887Y317927D01*
X273667Y317710D01*
X273145Y317254D01*
X272928Y317092D01*
X272722Y316957D01*
X272540Y316855D01*
X272383Y316784D01*
X272256Y316741D01*
X272168Y316722D01*
X263063D01*
X262796Y317222D01*
X263127Y317718D01*
X263321Y318693D01*
X263295Y318820D01*
X263300Y318872D01*
X263311Y318936D01*
X263325Y318992D01*
X263342Y319042D01*
X263362Y319087D01*
X263385Y319129D01*
X263411Y319169D01*
X273400Y329159D01*
X273732Y329655D01*
X273848Y330240D01*
Y331823D01*
X274348Y332070D01*
X274778Y331740D01*
X275740Y331342D01*
X276772Y331206D01*
X277803Y331342D01*
X278765Y331740D01*
X279591Y332374D01*
X280224Y333200D01*
X280623Y334161D01*
X280759Y335193D01*
X280623Y336225D01*
X280224Y337186D01*
X279591Y338012D01*
X278765Y338646D01*
X277803Y339044D01*
X277266Y339115D01*
X277087Y339643D01*
X277853Y340409D01*
X278185Y340905D01*
X278301Y341490D01*
Y341548D01*
X278765Y341740D01*
X279591Y342374D01*
X280224Y343199D01*
X280623Y344161D01*
X280759Y345193D01*
X280623Y346225D01*
X280224Y347186D01*
X279591Y348012D01*
X278765Y348646D01*
X277803Y349044D01*
X276772Y349180D01*
D02*
G37*
G36*
X242798Y350693D02*
X236746D01*
Y294193D01*
X236746Y294193D01*
X236849Y293410D01*
X237151Y292680D01*
X237632Y292053D01*
X244132Y285553D01*
X244759Y285072D01*
X245489Y284770D01*
X246272Y284667D01*
X273772D01*
X274555Y284770D01*
X275285Y285072D01*
X275911Y285553D01*
X278911Y288553D01*
X279392Y289180D01*
X279695Y289910D01*
X279798Y290693D01*
Y292643D01*
X280224Y293199D01*
X280623Y294161D01*
X280693Y294693D01*
X276772D01*
X272851D01*
X272921Y294161D01*
X273319Y293199D01*
X273746Y292643D01*
Y291946D01*
X272518Y290719D01*
X247525D01*
X243945Y294299D01*
X244192Y294759D01*
X244772Y294644D01*
X245747Y294838D01*
X246574Y295391D01*
X246646Y295498D01*
X246687Y295532D01*
X246739Y295569D01*
X246789Y295599D01*
X246836Y295622D01*
X246882Y295640D01*
X246928Y295654D01*
X246974Y295663D01*
X268772D01*
X269357Y295780D01*
X269853Y296111D01*
X274598Y300856D01*
X274673Y300905D01*
X274793Y300965D01*
X274954Y301025D01*
X275156Y301082D01*
X275397Y301132D01*
X275664Y301171D01*
X276356Y301218D01*
X276665Y301220D01*
X276772Y301206D01*
X277803Y301342D01*
X278765Y301740D01*
X279591Y302374D01*
X280224Y303200D01*
X280623Y304161D01*
X280759Y305193D01*
X280623Y306225D01*
X280224Y307186D01*
X279591Y308012D01*
X278765Y308646D01*
X277803Y309044D01*
X276772Y309180D01*
X275740Y309044D01*
X274778Y308646D01*
X273953Y308012D01*
X273319Y307186D01*
X272921Y306225D01*
X272785Y305193D01*
X272799Y305086D01*
X272797Y304778D01*
X272750Y304086D01*
X272711Y303818D01*
X272661Y303577D01*
X272604Y303376D01*
X272544Y303215D01*
X272484Y303094D01*
X272435Y303019D01*
X268138Y298722D01*
X246974D01*
X246928Y298732D01*
X246882Y298746D01*
X246836Y298764D01*
X246789Y298787D01*
X246739Y298817D01*
X246687Y298854D01*
X246646Y298888D01*
X246574Y298995D01*
X245747Y299548D01*
X244772Y299742D01*
X243796Y299548D01*
X243298Y299215D01*
X242798Y299482D01*
Y350693D01*
D02*
G37*
%LPD*%
G36*
X112051Y367668D02*
X111893Y367547D01*
X111260Y366722D01*
X110862Y365760D01*
X110726Y364728D01*
X110862Y363697D01*
X111260Y362735D01*
X111893Y361909D01*
X112719Y361276D01*
X113681Y360877D01*
X114713Y360741D01*
X115744Y360877D01*
X116706Y361276D01*
X117532Y361909D01*
X117992Y362509D01*
X118492Y362340D01*
Y296251D01*
X117992Y296081D01*
X117532Y296681D01*
X116706Y297315D01*
X115744Y297713D01*
X114713Y297849D01*
X113681Y297713D01*
X112719Y297315D01*
X111893Y296681D01*
X111260Y295856D01*
X110862Y294894D01*
X110726Y293862D01*
X110862Y292830D01*
X111260Y291869D01*
X111893Y291043D01*
X112719Y290409D01*
X113681Y290011D01*
X114713Y289875D01*
X115744Y290011D01*
X116706Y290409D01*
X117532Y291043D01*
X117992Y291643D01*
X118492Y291474D01*
Y264582D01*
X89541D01*
X89372Y265083D01*
X90015Y265576D01*
X90680Y266443D01*
X91098Y267452D01*
X91241Y268535D01*
X91098Y269619D01*
X90680Y270628D01*
X90015Y271495D01*
X89148Y272160D01*
X88138Y272578D01*
X87055Y272721D01*
X85972Y272578D01*
X84962Y272160D01*
X84096Y271495D01*
X83430Y270628D01*
X83012Y269619D01*
X82870Y268535D01*
X83012Y267452D01*
X83430Y266443D01*
X84096Y265576D01*
X84739Y265083D01*
X84569Y264582D01*
X69856D01*
X69687Y265083D01*
X70330Y265576D01*
X70995Y266443D01*
X71413Y267452D01*
X71556Y268535D01*
X71413Y269619D01*
X70995Y270628D01*
X70330Y271495D01*
X69463Y272160D01*
X68453Y272578D01*
X67370Y272721D01*
X66287Y272578D01*
X65277Y272160D01*
X64411Y271495D01*
X63745Y270628D01*
X63327Y269619D01*
X63185Y268535D01*
X63327Y267452D01*
X63745Y266443D01*
X64411Y265576D01*
X65053Y265083D01*
X64884Y264582D01*
X7433D01*
Y368142D01*
X21371D01*
X21531Y367668D01*
X21374Y367547D01*
X20740Y366722D01*
X20342Y365760D01*
X20206Y364728D01*
X20342Y363697D01*
X20740Y362735D01*
X21374Y361909D01*
X22199Y361276D01*
X23161Y360877D01*
X24193Y360741D01*
X25225Y360877D01*
X26186Y361276D01*
X27012Y361909D01*
X27646Y362735D01*
X28044Y363697D01*
X28180Y364728D01*
X28044Y365760D01*
X27646Y366722D01*
X27012Y367547D01*
X26854Y367668D01*
X27015Y368142D01*
X111890D01*
X112051Y367668D01*
D02*
G37*
%LPC*%
G36*
X40213Y362627D02*
X39335Y362512D01*
X38517Y362173D01*
X37815Y361634D01*
X37276Y360932D01*
X36937Y360114D01*
X36821Y359236D01*
X36937Y358359D01*
X37276Y357541D01*
X37815Y356838D01*
X38517Y356299D01*
X39335Y355961D01*
X40213Y355845D01*
X40270Y355853D01*
X40331Y355850D01*
X40416Y355839D01*
X40504Y355818D01*
X40598Y355787D01*
X40697Y355744D01*
X40804Y355687D01*
X40919Y355615D01*
X41040Y355525D01*
X41040Y355525D01*
X44173Y352392D01*
Y340228D01*
X43673Y339981D01*
X43408Y340185D01*
X42657Y340496D01*
X42474Y340986D01*
X42611Y341090D01*
X43150Y341793D01*
X43488Y342611D01*
X43538Y342988D01*
X40213D01*
X36887D01*
X36937Y342611D01*
X37276Y341793D01*
X37815Y341090D01*
X38517Y340551D01*
X39268Y340240D01*
X39451Y339751D01*
X39315Y339646D01*
X38776Y338944D01*
X38437Y338126D01*
X38321Y337248D01*
X38437Y336370D01*
X38776Y335552D01*
X39315Y334850D01*
X40017Y334311D01*
X40835Y333972D01*
X41713Y333857D01*
X42590Y333972D01*
X43408Y334311D01*
X43673Y334515D01*
X44173Y334268D01*
Y326842D01*
X43673Y326596D01*
X43408Y326799D01*
X42590Y327138D01*
X42213Y327188D01*
Y323862D01*
Y320537D01*
X42590Y320587D01*
X43408Y320925D01*
X43673Y321129D01*
X44173Y320882D01*
Y289352D01*
X44329Y288572D01*
X44771Y287910D01*
X45673Y287007D01*
Y275207D01*
X42368Y271901D01*
X37205D01*
X37056Y271915D01*
X36842Y271950D01*
X36690Y271991D01*
X36685Y271993D01*
Y272815D01*
X36607Y273205D01*
X36386Y273536D01*
X36055Y273757D01*
X35665Y273835D01*
X29760D01*
X29370Y273757D01*
X29039Y273536D01*
X28818Y273205D01*
X28740Y272815D01*
Y266910D01*
X28818Y266519D01*
X29039Y266189D01*
X29370Y265967D01*
X29760Y265890D01*
X35665D01*
X36055Y265967D01*
X36386Y266189D01*
X36607Y266519D01*
X36685Y266910D01*
Y267732D01*
X36690Y267734D01*
X36842Y267775D01*
X37056Y267810D01*
X37205Y267823D01*
X43213D01*
X43993Y267978D01*
X44655Y268420D01*
X48673Y272439D01*
X49131Y272250D01*
X49092Y271770D01*
X49076Y271736D01*
X49054Y271701D01*
X49035Y271679D01*
X49018Y271663D01*
X48945Y271611D01*
X48915Y271579D01*
X48395Y271180D01*
X47874Y270501D01*
X47546Y269711D01*
X47435Y268862D01*
X47546Y268014D01*
X47874Y267223D01*
X48395Y266544D01*
X49074Y266023D01*
X49864Y265696D01*
X50713Y265584D01*
X51561Y265696D01*
X52352Y266023D01*
X53031Y266544D01*
X53552Y267223D01*
X53879Y268014D01*
X53991Y268862D01*
X53879Y269711D01*
X53552Y270501D01*
X53490Y270581D01*
X53486Y270592D01*
X53433Y270684D01*
X53400Y270752D01*
X53368Y270835D01*
X53341Y270922D01*
X53280Y271202D01*
X53263Y271329D01*
X53252Y271476D01*
Y287354D01*
X53270Y287484D01*
X53296Y287609D01*
X53326Y287716D01*
X53359Y287805D01*
X53394Y287879D01*
X53430Y287938D01*
X53465Y287986D01*
X53491Y288014D01*
X53531Y288044D01*
X54052Y288723D01*
X54379Y289514D01*
X54491Y290362D01*
X54379Y291211D01*
X54052Y292001D01*
X53990Y292081D01*
X53986Y292092D01*
X53933Y292184D01*
X53900Y292251D01*
X53868Y292335D01*
X53841Y292422D01*
X53780Y292702D01*
X53763Y292829D01*
X53752Y292976D01*
Y326355D01*
X53770Y326484D01*
X53796Y326609D01*
X53826Y326716D01*
X53859Y326805D01*
X53894Y326879D01*
X53930Y326938D01*
X53965Y326986D01*
X53991Y327014D01*
X54031Y327044D01*
X54552Y327723D01*
X54879Y328514D01*
X54991Y329362D01*
X54879Y330211D01*
X54552Y331001D01*
X54031Y331680D01*
X53352Y332201D01*
X52561Y332529D01*
X51713Y332640D01*
X50864Y332529D01*
X50074Y332201D01*
X49395Y331680D01*
X48874Y331001D01*
X48752Y330707D01*
X48252Y330806D01*
Y353236D01*
X48097Y354017D01*
X47655Y354678D01*
X43924Y358409D01*
X43924Y358409D01*
X43834Y358530D01*
X43762Y358645D01*
X43705Y358751D01*
X43662Y358851D01*
X43631Y358945D01*
X43610Y359033D01*
X43599Y359118D01*
X43596Y359179D01*
X43604Y359236D01*
X43488Y360114D01*
X43150Y360932D01*
X42611Y361634D01*
X41908Y362173D01*
X41090Y362512D01*
X40213Y362627D01*
D02*
G37*
G36*
X90213Y339322D02*
Y336862D01*
X92673D01*
X92635Y337145D01*
X92333Y337875D01*
X91852Y338502D01*
X91225Y338983D01*
X90496Y339285D01*
X90213Y339322D01*
D02*
G37*
G36*
X107038Y358736D02*
X104213D01*
Y355911D01*
X104590Y355961D01*
X105408Y356299D01*
X106111Y356838D01*
X106649Y357541D01*
X106988Y358359D01*
X107038Y358736D01*
D02*
G37*
G36*
X13213Y344283D02*
X12681Y344213D01*
X11719Y343815D01*
X10893Y343181D01*
X10260Y342356D01*
X9862Y341394D01*
X9792Y340862D01*
X13213D01*
Y344283D01*
D02*
G37*
G36*
X14213D02*
Y340862D01*
X17634D01*
X17564Y341394D01*
X17165Y342356D01*
X16532Y343181D01*
X15706Y343815D01*
X14744Y344213D01*
X14213Y344283D01*
D02*
G37*
G36*
X103213Y358736D02*
X100387D01*
X100437Y358359D01*
X100776Y357541D01*
X101315Y356838D01*
X102017Y356299D01*
X102835Y355961D01*
X103213Y355911D01*
Y358736D01*
D02*
G37*
G36*
X103713Y346879D02*
X102835Y346764D01*
X102017Y346425D01*
X101315Y345886D01*
X100776Y345184D01*
X100437Y344366D01*
X100321Y343488D01*
X100437Y342611D01*
X100776Y341793D01*
X101315Y341090D01*
X102017Y340551D01*
X102835Y340212D01*
X103713Y340097D01*
X104590Y340212D01*
X105408Y340551D01*
X106111Y341090D01*
X106649Y341793D01*
X106988Y342611D01*
X107104Y343488D01*
X106988Y344366D01*
X106649Y345184D01*
X106111Y345886D01*
X105408Y346425D01*
X104590Y346764D01*
X103713Y346879D01*
D02*
G37*
G36*
X16665Y364335D02*
X10760D01*
X10370Y364257D01*
X10039Y364036D01*
X9818Y363705D01*
X9740Y363315D01*
Y357410D01*
X9818Y357019D01*
X10039Y356688D01*
X10370Y356468D01*
X10760Y356390D01*
X16665D01*
X17055Y356468D01*
X17386Y356688D01*
X17607Y357019D01*
X17685Y357410D01*
Y363315D01*
X17607Y363705D01*
X17386Y364036D01*
X17055Y364257D01*
X16665Y364335D01*
D02*
G37*
G36*
X13213Y339862D02*
X9792D01*
X9862Y339330D01*
X10260Y338369D01*
X10893Y337543D01*
X11719Y336910D01*
X12681Y336511D01*
X13213Y336441D01*
Y339862D01*
D02*
G37*
G36*
X103213Y362562D02*
X102835Y362512D01*
X102017Y362173D01*
X101315Y361634D01*
X100776Y360932D01*
X100437Y360114D01*
X100387Y359736D01*
X103213D01*
Y362562D01*
D02*
G37*
G36*
X72362Y344031D02*
X66063D01*
X65673Y343954D01*
X65342Y343733D01*
X65121Y343402D01*
X65043Y343012D01*
Y336713D01*
X65121Y336322D01*
X65342Y335992D01*
X65673Y335771D01*
X66063Y335693D01*
X72362D01*
X72752Y335771D01*
X73083Y335992D01*
X73304Y336322D01*
X73382Y336713D01*
Y343012D01*
X73304Y343402D01*
X73083Y343733D01*
X72752Y343954D01*
X72362Y344031D01*
D02*
G37*
G36*
X104213Y362562D02*
Y359736D01*
X107038D01*
X106988Y360114D01*
X106649Y360932D01*
X106111Y361634D01*
X105408Y362173D01*
X104590Y362512D01*
X104213Y362562D01*
D02*
G37*
G36*
X72713Y361783D02*
Y358362D01*
X76134D01*
X76064Y358894D01*
X75665Y359856D01*
X75032Y360681D01*
X74206Y361315D01*
X73245Y361713D01*
X72713Y361783D01*
D02*
G37*
G36*
X17634Y339862D02*
X14213D01*
Y336441D01*
X14744Y336511D01*
X15706Y336910D01*
X16532Y337543D01*
X17165Y338369D01*
X17564Y339330D01*
X17634Y339862D01*
D02*
G37*
G36*
X89213Y339322D02*
X88929Y339285D01*
X88200Y338983D01*
X87573Y338502D01*
X87092Y337875D01*
X86790Y337145D01*
X86752Y336862D01*
X89213D01*
Y339322D01*
D02*
G37*
G36*
X71713Y361783D02*
X71181Y361713D01*
X70219Y361315D01*
X69393Y360681D01*
X68760Y359856D01*
X68362Y358894D01*
X68292Y358362D01*
X71713D01*
Y361783D01*
D02*
G37*
G36*
X111713Y351362D02*
X109253D01*
X109290Y351079D01*
X109592Y350349D01*
X110073Y349723D01*
X110700Y349242D01*
X111429Y348939D01*
X111713Y348902D01*
Y351362D01*
D02*
G37*
G36*
X115173D02*
X112713D01*
Y348902D01*
X112996Y348939D01*
X113725Y349242D01*
X114352Y349723D01*
X114833Y350349D01*
X115135Y351079D01*
X115173Y351362D01*
D02*
G37*
G36*
X35673Y349862D02*
X33213D01*
Y347402D01*
X33496Y347439D01*
X34225Y347742D01*
X34852Y348223D01*
X35333Y348849D01*
X35635Y349579D01*
X35673Y349862D01*
D02*
G37*
G36*
X112713Y354822D02*
Y352362D01*
X115173D01*
X115135Y352645D01*
X114833Y353375D01*
X114352Y354002D01*
X113725Y354483D01*
X112996Y354785D01*
X112713Y354822D01*
D02*
G37*
G36*
X32213Y349862D02*
X29752D01*
X29790Y349579D01*
X30092Y348849D01*
X30573Y348223D01*
X31200Y347742D01*
X31929Y347439D01*
X32213Y347402D01*
Y349862D01*
D02*
G37*
G36*
X33213Y353322D02*
Y350862D01*
X35673D01*
X35635Y351145D01*
X35333Y351875D01*
X34852Y352502D01*
X34225Y352983D01*
X33496Y353285D01*
X33213Y353322D01*
D02*
G37*
G36*
X32213D02*
X31929Y353285D01*
X31200Y352983D01*
X30573Y352502D01*
X30092Y351875D01*
X29790Y351145D01*
X29752Y350862D01*
X32213D01*
Y353322D01*
D02*
G37*
G36*
X111713Y354822D02*
X111429Y354785D01*
X110700Y354483D01*
X110073Y354002D01*
X109592Y353375D01*
X109290Y352645D01*
X109253Y352362D01*
X111713D01*
Y354822D01*
D02*
G37*
G36*
X71713Y357362D02*
X68292D01*
X68362Y356830D01*
X68760Y355869D01*
X69393Y355043D01*
X70219Y354410D01*
X71181Y354011D01*
X71713Y353941D01*
Y357362D01*
D02*
G37*
G36*
X65165Y361835D02*
X59260D01*
X58870Y361757D01*
X58539Y361536D01*
X58318Y361205D01*
X58240Y360815D01*
Y354909D01*
X58318Y354519D01*
X58539Y354188D01*
X58870Y353967D01*
X59260Y353890D01*
X65165D01*
X65556Y353967D01*
X65886Y354188D01*
X66107Y354519D01*
X66185Y354909D01*
Y360815D01*
X66107Y361205D01*
X65886Y361536D01*
X65556Y361757D01*
X65165Y361835D01*
D02*
G37*
G36*
X76134Y357362D02*
X72713D01*
Y353941D01*
X73245Y354011D01*
X74206Y354410D01*
X75032Y355043D01*
X75665Y355869D01*
X76064Y356830D01*
X76134Y357362D01*
D02*
G37*
G36*
X13713Y354349D02*
X12681Y354213D01*
X11719Y353815D01*
X10893Y353181D01*
X10260Y352356D01*
X9862Y351394D01*
X9726Y350362D01*
X9862Y349330D01*
X10260Y348369D01*
X10893Y347543D01*
X11719Y346909D01*
X12681Y346511D01*
X13713Y346375D01*
X14744Y346511D01*
X15706Y346909D01*
X16532Y347543D01*
X17165Y348369D01*
X17564Y349330D01*
X17699Y350362D01*
X17564Y351394D01*
X17165Y352356D01*
X16532Y353181D01*
X15706Y353815D01*
X14744Y354213D01*
X13713Y354349D01*
D02*
G37*
G36*
X40713Y346814D02*
Y343988D01*
X43538D01*
X43488Y344366D01*
X43150Y345184D01*
X42611Y345886D01*
X41908Y346425D01*
X41090Y346764D01*
X40713Y346814D01*
D02*
G37*
G36*
X82213Y361849D02*
X81181Y361713D01*
X80219Y361315D01*
X79394Y360681D01*
X78760Y359856D01*
X78362Y358894D01*
X78226Y357862D01*
X78362Y356830D01*
X78760Y355869D01*
X79394Y355043D01*
X80219Y354410D01*
X81181Y354011D01*
X82213Y353875D01*
X83245Y354011D01*
X84206Y354410D01*
X85032Y355043D01*
X85665Y355869D01*
X86064Y356830D01*
X86199Y357862D01*
X86064Y358894D01*
X85665Y359856D01*
X85032Y360681D01*
X84206Y361315D01*
X83245Y361713D01*
X82213Y361849D01*
D02*
G37*
G36*
X39713Y346814D02*
X39335Y346764D01*
X38517Y346425D01*
X37815Y345886D01*
X37276Y345184D01*
X36937Y344366D01*
X36887Y343988D01*
X39713D01*
Y346814D01*
D02*
G37*
G36*
X24193Y297849D02*
X23161Y297713D01*
X22199Y297315D01*
X21374Y296681D01*
X20740Y295856D01*
X20342Y294894D01*
X20206Y293862D01*
X20342Y292830D01*
X20740Y291869D01*
X21374Y291043D01*
X22199Y290409D01*
X23161Y290011D01*
X24193Y289875D01*
X25225Y290011D01*
X26186Y290409D01*
X27012Y291043D01*
X27646Y291869D01*
X28044Y292830D01*
X28180Y293862D01*
X28044Y294894D01*
X27646Y295856D01*
X27012Y296681D01*
X26186Y297315D01*
X25225Y297713D01*
X24193Y297849D01*
D02*
G37*
G36*
X114713Y284822D02*
Y282362D01*
X117173D01*
X117135Y282645D01*
X116833Y283375D01*
X116352Y284002D01*
X115726Y284483D01*
X114996Y284785D01*
X114713Y284822D01*
D02*
G37*
G36*
X117173Y281362D02*
X114713D01*
Y278902D01*
X114996Y278939D01*
X115726Y279242D01*
X116352Y279723D01*
X116833Y280349D01*
X117135Y281079D01*
X117173Y281362D01*
D02*
G37*
G36*
X113713Y284822D02*
X113429Y284785D01*
X112700Y284483D01*
X112073Y284002D01*
X111592Y283375D01*
X111290Y282645D01*
X111252Y282362D01*
X113713D01*
Y284822D01*
D02*
G37*
G36*
X12213Y298862D02*
X9753D01*
X9790Y298579D01*
X10092Y297849D01*
X10573Y297223D01*
X11200Y296742D01*
X11929Y296439D01*
X12213Y296402D01*
Y298862D01*
D02*
G37*
G36*
X113713Y281362D02*
X111252D01*
X111290Y281079D01*
X111592Y280349D01*
X112073Y279723D01*
X112700Y279242D01*
X113429Y278939D01*
X113713Y278902D01*
Y281362D01*
D02*
G37*
G36*
X59213Y271862D02*
X56753D01*
X56790Y271579D01*
X57092Y270849D01*
X57573Y270223D01*
X58200Y269742D01*
X58929Y269439D01*
X59213Y269402D01*
Y271862D01*
D02*
G37*
G36*
X16634Y269362D02*
X13213D01*
Y265941D01*
X13745Y266011D01*
X14706Y266409D01*
X15532Y267043D01*
X16165Y267869D01*
X16564Y268830D01*
X16634Y269362D01*
D02*
G37*
G36*
X62673Y271862D02*
X60213D01*
Y269402D01*
X60496Y269439D01*
X61225Y269742D01*
X61852Y270223D01*
X62333Y270849D01*
X62635Y271579D01*
X62673Y271862D01*
D02*
G37*
G36*
X13213Y273783D02*
Y270362D01*
X16634D01*
X16564Y270894D01*
X16165Y271856D01*
X15532Y272681D01*
X14706Y273315D01*
X13745Y273713D01*
X13213Y273783D01*
D02*
G37*
G36*
X12213D02*
X11681Y273713D01*
X10719Y273315D01*
X9894Y272681D01*
X9260Y271856D01*
X8862Y270894D01*
X8792Y270362D01*
X12213D01*
Y273783D01*
D02*
G37*
G36*
X60213Y275322D02*
Y272862D01*
X62673D01*
X62635Y273145D01*
X62333Y273875D01*
X61852Y274502D01*
X61225Y274983D01*
X60496Y275285D01*
X60213Y275322D01*
D02*
G37*
G36*
X59213D02*
X58929Y275285D01*
X58200Y274983D01*
X57573Y274502D01*
X57092Y273875D01*
X56790Y273145D01*
X56753Y272862D01*
X59213D01*
Y275322D01*
D02*
G37*
G36*
X12213Y269362D02*
X8792D01*
X8862Y268830D01*
X9260Y267869D01*
X9894Y267043D01*
X10719Y266409D01*
X11681Y266011D01*
X12213Y265941D01*
Y269362D01*
D02*
G37*
G36*
X22713Y273849D02*
X21681Y273713D01*
X20719Y273315D01*
X19894Y272681D01*
X19260Y271856D01*
X18862Y270894D01*
X18726Y269862D01*
X18862Y268830D01*
X19260Y267869D01*
X19894Y267043D01*
X20719Y266409D01*
X21681Y266011D01*
X22713Y265875D01*
X23744Y266011D01*
X24706Y266409D01*
X25532Y267043D01*
X26165Y267869D01*
X26564Y268830D01*
X26700Y269862D01*
X26564Y270894D01*
X26165Y271856D01*
X25532Y272681D01*
X24706Y273315D01*
X23744Y273713D01*
X22713Y273849D01*
D02*
G37*
G36*
X15673Y298862D02*
X13213D01*
Y296402D01*
X13496Y296439D01*
X14225Y296742D01*
X14852Y297223D01*
X15333Y297849D01*
X15635Y298579D01*
X15673Y298862D01*
D02*
G37*
G36*
X41213Y327188D02*
X40835Y327138D01*
X40017Y326799D01*
X39315Y326260D01*
X38776Y325558D01*
X38437Y324740D01*
X38387Y324362D01*
X41213D01*
Y327188D01*
D02*
G37*
G36*
X114213Y329362D02*
X111752D01*
X111790Y329079D01*
X112092Y328349D01*
X112573Y327723D01*
X113200Y327242D01*
X113929Y326939D01*
X114213Y326902D01*
Y329362D01*
D02*
G37*
G36*
X59327Y339797D02*
X58351Y339603D01*
X57524Y339050D01*
X56972Y338224D01*
X56778Y337248D01*
X56972Y336273D01*
X57524Y335446D01*
X58351Y334893D01*
X59327Y334699D01*
X59453Y334724D01*
X59506Y334719D01*
X59570Y334709D01*
X59626Y334695D01*
X59676Y334678D01*
X59721Y334658D01*
X59763Y334635D01*
X59803Y334609D01*
X62683Y331729D01*
Y294362D01*
X62800Y293777D01*
X63131Y293281D01*
X73731Y282681D01*
X73733Y282678D01*
X73777Y282608D01*
X73807Y282535D01*
X73827Y282449D01*
X73836Y282337D01*
X73827Y282192D01*
X73795Y282012D01*
X73733Y281797D01*
X73637Y281549D01*
X73600Y281471D01*
X73588Y281455D01*
X73555Y281376D01*
X73491Y281241D01*
X73479Y281192D01*
X73170Y280446D01*
X73027Y279362D01*
X73170Y278279D01*
X73588Y277270D01*
X74253Y276403D01*
X75120Y275738D01*
X76129Y275319D01*
X77213Y275177D01*
X78296Y275319D01*
X79305Y275738D01*
X80172Y276403D01*
X80837Y277270D01*
X81255Y278279D01*
X81398Y279362D01*
X81255Y280446D01*
X80837Y281455D01*
X80172Y282322D01*
X79305Y282987D01*
X79027Y283102D01*
X78979Y283138D01*
X78975Y283139D01*
X78971Y283142D01*
X77188Y283994D01*
X76384Y284422D01*
X76245Y284506D01*
X76204Y284534D01*
X65742Y294996D01*
Y316791D01*
X66215Y316952D01*
X66253Y316903D01*
X67120Y316238D01*
X68129Y315819D01*
X68713Y315743D01*
Y319862D01*
Y323982D01*
X68129Y323905D01*
X67120Y323487D01*
X66253Y322822D01*
X66215Y322773D01*
X65742Y322933D01*
Y332362D01*
X65626Y332947D01*
X65294Y333444D01*
X61966Y336772D01*
X61940Y336812D01*
X61917Y336854D01*
X61897Y336899D01*
X61880Y336949D01*
X61866Y337005D01*
X61856Y337068D01*
X61851Y337121D01*
X61876Y337248D01*
X61682Y338224D01*
X61129Y339050D01*
X60302Y339603D01*
X59327Y339797D01*
D02*
G37*
G36*
X41213Y323362D02*
X38387D01*
X38437Y322985D01*
X38776Y322167D01*
X39315Y321464D01*
X40017Y320925D01*
X40835Y320587D01*
X41213Y320537D01*
Y323362D01*
D02*
G37*
G36*
X117673Y329362D02*
X115213D01*
Y326902D01*
X115496Y326939D01*
X116226Y327242D01*
X116852Y327723D01*
X117333Y328349D01*
X117635Y329079D01*
X117673Y329362D01*
D02*
G37*
G36*
X89213Y335862D02*
X86752D01*
X86790Y335579D01*
X87092Y334849D01*
X87573Y334223D01*
X88200Y333742D01*
X88929Y333439D01*
X89213Y333402D01*
Y335862D01*
D02*
G37*
G36*
X92673D02*
X90213D01*
Y333402D01*
X90496Y333439D01*
X91225Y333742D01*
X91852Y334223D01*
X92333Y334849D01*
X92635Y335579D01*
X92673Y335862D01*
D02*
G37*
G36*
X114213Y332822D02*
X113929Y332785D01*
X113200Y332483D01*
X112573Y332002D01*
X112092Y331375D01*
X111790Y330645D01*
X111752Y330362D01*
X114213D01*
Y332822D01*
D02*
G37*
G36*
X115213D02*
Y330362D01*
X117673D01*
X117635Y330645D01*
X117333Y331375D01*
X116852Y332002D01*
X116226Y332483D01*
X115496Y332785D01*
X115213Y332822D01*
D02*
G37*
G36*
X13213Y302322D02*
Y299862D01*
X15673D01*
X15635Y300145D01*
X15333Y300875D01*
X14852Y301502D01*
X14225Y301983D01*
X13496Y302285D01*
X13213Y302322D01*
D02*
G37*
G36*
X12213D02*
X11929Y302285D01*
X11200Y301983D01*
X10573Y301502D01*
X10092Y300875D01*
X9790Y300145D01*
X9753Y299862D01*
X12213D01*
Y302322D01*
D02*
G37*
G36*
X115213Y307322D02*
Y304862D01*
X117673D01*
X117635Y305145D01*
X117333Y305875D01*
X116852Y306502D01*
X116226Y306983D01*
X115496Y307285D01*
X115213Y307322D01*
D02*
G37*
G36*
X79213Y334048D02*
X78129Y333905D01*
X77120Y333487D01*
X76253Y332822D01*
X75588Y331955D01*
X75170Y330945D01*
X75027Y329862D01*
X75170Y328779D01*
X75588Y327769D01*
X76253Y326903D01*
X76349Y326829D01*
X76585Y326590D01*
X77087Y326019D01*
X77268Y325780D01*
X77418Y325554D01*
X77533Y325353D01*
X77613Y325181D01*
X77661Y325041D01*
X77683Y324941D01*
Y313996D01*
X73702Y310015D01*
X73242Y310261D01*
X73262Y310362D01*
X73236Y310489D01*
X73241Y310542D01*
X73252Y310606D01*
X73266Y310661D01*
X73283Y310711D01*
X73303Y310756D01*
X73326Y310799D01*
X73352Y310838D01*
X75294Y312781D01*
X75626Y313277D01*
X75742Y313862D01*
Y321482D01*
X75754Y321595D01*
X75765Y321656D01*
X75817Y321860D01*
X75841Y321935D01*
X75930Y322156D01*
X75968Y322238D01*
X76068Y322387D01*
X76262Y323362D01*
X76068Y324338D01*
X75515Y325165D01*
X74688Y325717D01*
X73713Y325911D01*
X72737Y325717D01*
X71910Y325165D01*
X71358Y324338D01*
X71274Y323918D01*
X70833Y323682D01*
X70296Y323905D01*
X69713Y323982D01*
Y319862D01*
Y315743D01*
X70296Y315819D01*
X71305Y316238D01*
X72172Y316903D01*
X72210Y316952D01*
X72683Y316791D01*
Y314496D01*
X71189Y313001D01*
X71149Y312975D01*
X71107Y312952D01*
X71062Y312933D01*
X71012Y312916D01*
X70956Y312902D01*
X70892Y312891D01*
X70839Y312886D01*
X70713Y312911D01*
X69737Y312717D01*
X68910Y312165D01*
X68358Y311338D01*
X68164Y310362D01*
X68358Y309387D01*
X68910Y308560D01*
X69737Y308007D01*
X69763Y308002D01*
X69869Y307471D01*
X69410Y307165D01*
X68858Y306338D01*
X68664Y305362D01*
X68858Y304387D01*
X69410Y303560D01*
X70237Y303007D01*
X71213Y302813D01*
X72188Y303007D01*
X73015Y303560D01*
X73087Y303667D01*
X73128Y303701D01*
X73180Y303738D01*
X73230Y303768D01*
X73277Y303791D01*
X73323Y303809D01*
X73369Y303823D01*
X73415Y303833D01*
X85579D01*
X86683Y302729D01*
Y280065D01*
X86674Y280018D01*
X86660Y279972D01*
X86642Y279927D01*
X86619Y279879D01*
X86589Y279830D01*
X86551Y279777D01*
X86518Y279736D01*
X86410Y279665D01*
X85858Y278838D01*
X85664Y277862D01*
X85858Y276887D01*
X86410Y276060D01*
X87237Y275507D01*
X88213Y275313D01*
X89188Y275507D01*
X90015Y276060D01*
X90568Y276887D01*
X90762Y277862D01*
X90568Y278838D01*
X90015Y279665D01*
X89908Y279736D01*
X89874Y279777D01*
X89836Y279830D01*
X89807Y279879D01*
X89783Y279926D01*
X89765Y279972D01*
X89752Y280018D01*
X89742Y280065D01*
Y303362D01*
X89626Y303947D01*
X89294Y304444D01*
X87294Y306444D01*
X86798Y306775D01*
X86213Y306892D01*
X75558D01*
X75367Y307353D01*
X80294Y312281D01*
X80626Y312777D01*
X80742Y313362D01*
Y324941D01*
X80764Y325041D01*
X80812Y325181D01*
X80892Y325353D01*
X81007Y325554D01*
X81157Y325780D01*
X81339Y326019D01*
X81840Y326590D01*
X82076Y326829D01*
X82172Y326903D01*
X82837Y327769D01*
X83255Y328779D01*
X83398Y329862D01*
X83255Y330945D01*
X82837Y331955D01*
X82172Y332822D01*
X81305Y333487D01*
X80296Y333905D01*
X79213Y334048D01*
D02*
G37*
G36*
X114213Y307322D02*
X113929Y307285D01*
X113200Y306983D01*
X112573Y306502D01*
X112092Y305875D01*
X111790Y305145D01*
X111752Y304862D01*
X114213D01*
Y307322D01*
D02*
G37*
G36*
Y303862D02*
X111752D01*
X111790Y303579D01*
X112092Y302849D01*
X112573Y302223D01*
X113200Y301742D01*
X113929Y301439D01*
X114213Y301402D01*
Y303862D01*
D02*
G37*
G36*
X117673D02*
X115213D01*
Y301402D01*
X115496Y301439D01*
X116226Y301742D01*
X116852Y302223D01*
X117333Y302849D01*
X117635Y303579D01*
X117673Y303862D01*
D02*
G37*
%LPD*%
G36*
X48874Y327723D02*
X49395Y327044D01*
X49673Y326830D01*
Y293242D01*
X49574Y293201D01*
X48895Y292680D01*
X48752Y292494D01*
X48252Y292664D01*
Y327918D01*
X48752Y328018D01*
X48874Y327723D01*
D02*
G37*
%LPC*%
G36*
X118835Y152551D02*
X113394D01*
Y149079D01*
X117815D01*
X118205Y149156D01*
X118536Y149378D01*
X118757Y149708D01*
X118835Y150098D01*
Y152551D01*
D02*
G37*
G36*
X112394Y157024D02*
X107973D01*
X107582Y156946D01*
X107252Y156725D01*
X107030Y156394D01*
X106953Y156004D01*
Y153551D01*
X112394D01*
Y157024D01*
D02*
G37*
G36*
X20571Y152713D02*
X14665D01*
X14275Y152635D01*
X13944Y152414D01*
X13723Y152083D01*
X13646Y151693D01*
Y145787D01*
X13723Y145397D01*
X13944Y145066D01*
X14275Y144845D01*
X14665Y144768D01*
X20571D01*
X20961Y144845D01*
X21292Y145066D01*
X21513Y145397D01*
X21590Y145787D01*
Y151693D01*
X21513Y152083D01*
X21292Y152414D01*
X20961Y152635D01*
X20571Y152713D01*
D02*
G37*
G36*
X112394Y152551D02*
X106953D01*
Y150098D01*
X107030Y149708D01*
X107252Y149378D01*
X107582Y149156D01*
X107973Y149079D01*
X112394D01*
Y152551D01*
D02*
G37*
G36*
X117815Y157024D02*
X113394D01*
Y153551D01*
X118835D01*
Y156004D01*
X118757Y156394D01*
X118536Y156725D01*
X118205Y156946D01*
X117815Y157024D01*
D02*
G37*
G36*
X112992Y169832D02*
X112012Y169702D01*
X111098Y169324D01*
X110313Y168722D01*
X109711Y167938D01*
X109333Y167024D01*
X109204Y166043D01*
X109333Y165063D01*
X109711Y164149D01*
X110016Y163752D01*
X109639Y163422D01*
X106855Y166206D01*
X106194Y166648D01*
X105413Y166803D01*
X93799D01*
X93019Y166648D01*
X92357Y166206D01*
X82023Y155871D01*
X81581Y155210D01*
X81425Y154429D01*
Y148587D01*
X81412Y148438D01*
X81377Y148224D01*
X81336Y148072D01*
X81334Y148067D01*
X80512D01*
X80122Y147989D01*
X79791Y147768D01*
X79570Y147437D01*
X79492Y147047D01*
Y141142D01*
X79570Y140752D01*
X79791Y140421D01*
X80122Y140200D01*
X80512Y140122D01*
X86417D01*
X86808Y140200D01*
X87138Y140421D01*
X87359Y140752D01*
X87437Y141142D01*
Y147047D01*
X87359Y147437D01*
X87138Y147768D01*
X86808Y147989D01*
X86417Y148067D01*
X85595D01*
X85593Y148072D01*
X85552Y148224D01*
X85517Y148438D01*
X85504Y148587D01*
Y153585D01*
X94644Y162725D01*
X104165D01*
X104218Y162642D01*
X103944Y162142D01*
X98721D01*
X98330Y162064D01*
X98000Y161843D01*
X97778Y161512D01*
X97701Y161122D01*
Y151279D01*
X97778Y150889D01*
X98000Y150559D01*
X98330Y150338D01*
X98721Y150260D01*
X104626D01*
X105016Y150338D01*
X105347Y150559D01*
X105568Y150889D01*
X105646Y151279D01*
Y160941D01*
X106127Y161166D01*
X108401Y158893D01*
X108401Y158893D01*
X109062Y158451D01*
X109843Y158296D01*
X109843Y158296D01*
X119136D01*
X119389Y158042D01*
X119687Y157694D01*
X119831Y157497D01*
X119952Y157310D01*
X120043Y157145D01*
X120105Y157004D01*
X120142Y156893D01*
Y151279D01*
X120220Y150889D01*
X120440Y150559D01*
X120771Y150338D01*
X121161Y150260D01*
X127067D01*
X127457Y150338D01*
X127788Y150559D01*
X128009Y150889D01*
X128086Y151279D01*
Y161122D01*
X128009Y161512D01*
X127788Y161843D01*
X127457Y162064D01*
X127067Y162142D01*
X121161D01*
X120941Y162098D01*
X120761Y162219D01*
X119980Y162374D01*
X115201D01*
X115031Y162874D01*
X115671Y163365D01*
X116273Y164149D01*
X116651Y165063D01*
X116780Y166043D01*
X116651Y167024D01*
X116273Y167938D01*
X115671Y168722D01*
X114886Y169324D01*
X113973Y169702D01*
X112992Y169832D01*
D02*
G37*
G36*
X135827Y171999D02*
X134795Y171863D01*
X133833Y171465D01*
X133008Y170831D01*
X132374Y170005D01*
X131976Y169044D01*
X131840Y168012D01*
X131976Y166980D01*
X132374Y166018D01*
X133008Y165193D01*
X133833Y164559D01*
X134795Y164161D01*
X135827Y164025D01*
X136859Y164161D01*
X137820Y164559D01*
X138646Y165193D01*
X139279Y166018D01*
X139678Y166980D01*
X139814Y168012D01*
X139678Y169044D01*
X139279Y170005D01*
X138646Y170831D01*
X137820Y171465D01*
X136859Y171863D01*
X135827Y171999D01*
D02*
G37*
G36*
X83028Y171744D02*
X76028D01*
X75637Y171666D01*
X75307Y171445D01*
X75086Y171115D01*
X75008Y170724D01*
Y163724D01*
X75086Y163334D01*
X75307Y163003D01*
X75637Y162782D01*
X76028Y162705D01*
X83028D01*
X83418Y162782D01*
X83749Y163003D01*
X83970Y163334D01*
X84047Y163724D01*
Y170724D01*
X83970Y171115D01*
X83749Y171445D01*
X83418Y171666D01*
X83028Y171744D01*
D02*
G37*
G36*
X138779Y161984D02*
X132874D01*
X132484Y161907D01*
X132153Y161686D01*
X131932Y161355D01*
X131854Y160965D01*
Y155059D01*
X131932Y154669D01*
X132153Y154338D01*
X132484Y154117D01*
X132874Y154040D01*
X138779D01*
X139170Y154117D01*
X139500Y154338D01*
X139722Y154669D01*
X139799Y155059D01*
Y160965D01*
X139722Y161355D01*
X139500Y161686D01*
X139170Y161907D01*
X138779Y161984D01*
D02*
G37*
G36*
X171654Y165603D02*
X170570Y165460D01*
X169561Y165042D01*
X168694Y164377D01*
X168029Y163510D01*
X167611Y162501D01*
X167468Y161417D01*
X167611Y160334D01*
X168029Y159325D01*
X168694Y158458D01*
X169561Y157793D01*
X170570Y157375D01*
X171654Y157232D01*
X172737Y157375D01*
X173746Y157793D01*
X174613Y158458D01*
X175278Y159325D01*
X175696Y160334D01*
X175839Y161417D01*
X175696Y162501D01*
X175278Y163510D01*
X174613Y164377D01*
X173746Y165042D01*
X172737Y165460D01*
X171654Y165603D01*
D02*
G37*
G36*
X163386Y113436D02*
X162354Y113300D01*
X161392Y112901D01*
X160567Y112268D01*
X159933Y111442D01*
X159535Y110481D01*
X159399Y109449D01*
X159535Y108417D01*
X159933Y107455D01*
X160567Y106630D01*
X161392Y105996D01*
X162354Y105598D01*
X163386Y105462D01*
X164418Y105598D01*
X165379Y105996D01*
X166205Y106630D01*
X166839Y107455D01*
X167237Y108417D01*
X167373Y109449D01*
X167237Y110481D01*
X166839Y111442D01*
X166205Y112268D01*
X165379Y112901D01*
X164418Y113300D01*
X163386Y113436D01*
D02*
G37*
G36*
Y123436D02*
X162354Y123300D01*
X161392Y122901D01*
X160567Y122268D01*
X159933Y121442D01*
X159535Y120481D01*
X159399Y119449D01*
X159535Y118417D01*
X159933Y117455D01*
X160567Y116630D01*
X161392Y115996D01*
X162354Y115598D01*
X163386Y115462D01*
X164418Y115598D01*
X165379Y115996D01*
X166205Y116630D01*
X166839Y117455D01*
X167237Y118417D01*
X167373Y119449D01*
X167237Y120481D01*
X166839Y121442D01*
X166205Y122268D01*
X165379Y122901D01*
X164418Y123300D01*
X163386Y123436D01*
D02*
G37*
G36*
Y103436D02*
X162354Y103300D01*
X161392Y102901D01*
X160567Y102268D01*
X159933Y101442D01*
X159535Y100481D01*
X159399Y99449D01*
X159535Y98417D01*
X159933Y97455D01*
X160567Y96630D01*
X161392Y95996D01*
X162354Y95598D01*
X163386Y95462D01*
X164418Y95598D01*
X165379Y95996D01*
X166205Y96630D01*
X166839Y97455D01*
X167237Y98417D01*
X167373Y99449D01*
X167237Y100481D01*
X166839Y101442D01*
X166205Y102268D01*
X165379Y102901D01*
X164418Y103300D01*
X163386Y103436D01*
D02*
G37*
G36*
X116347Y93754D02*
Y92331D01*
X117770D01*
X117716Y92605D01*
X117277Y93261D01*
X116621Y93700D01*
X116347Y93754D01*
D02*
G37*
G36*
X115347D02*
X115072Y93700D01*
X114416Y93261D01*
X113977Y92605D01*
X113936Y92397D01*
X113426D01*
X113385Y92605D01*
X112946Y93261D01*
X112290Y93700D01*
X112016Y93754D01*
Y91831D01*
X111016D01*
Y93754D01*
X110742Y93700D01*
X110085Y93261D01*
X109647Y92605D01*
X109605Y92397D01*
X109096D01*
X109054Y92605D01*
X108616Y93261D01*
X107959Y93700D01*
X107685Y93754D01*
Y91831D01*
X106685D01*
Y93754D01*
X106411Y93700D01*
X105754Y93261D01*
X105316Y92605D01*
X105274Y92397D01*
X104765D01*
X104723Y92605D01*
X104285Y93261D01*
X103629Y93700D01*
X103354Y93754D01*
Y91831D01*
X102354D01*
Y93754D01*
X102080Y93700D01*
X101424Y93261D01*
X100985Y92605D01*
X100944Y92397D01*
X100434D01*
X100393Y92605D01*
X99954Y93261D01*
X99298Y93700D01*
X99024Y93754D01*
Y91831D01*
X98524D01*
Y91331D01*
X96600D01*
X96654Y91057D01*
X97093Y90400D01*
X97749Y89962D01*
X97957Y89920D01*
Y89411D01*
X97749Y89369D01*
X97093Y88931D01*
X96654Y88274D01*
X96600Y88000D01*
X98524D01*
Y87000D01*
X96600D01*
X96654Y86726D01*
X97093Y86070D01*
X97749Y85631D01*
X97957Y85590D01*
Y85080D01*
X97749Y85038D01*
X97093Y84600D01*
X96654Y83943D01*
X96600Y83669D01*
X98524D01*
Y82669D01*
X96600D01*
X96654Y82395D01*
X97093Y81739D01*
X97749Y81300D01*
X97957Y81259D01*
Y80749D01*
X97749Y80708D01*
X97093Y80269D01*
X96654Y79613D01*
X96600Y79339D01*
X98524D01*
Y78338D01*
X96600D01*
X96654Y78064D01*
X97093Y77408D01*
X97749Y76969D01*
X97957Y76928D01*
Y76418D01*
X97749Y76377D01*
X97093Y75938D01*
X96654Y75282D01*
X96600Y75008D01*
X98524D01*
Y74508D01*
X99024D01*
Y72584D01*
X99298Y72639D01*
X99954Y73077D01*
X100393Y73734D01*
X100434Y73941D01*
X100944D01*
X100985Y73734D01*
X101424Y73077D01*
X102080Y72639D01*
X102354Y72584D01*
Y74508D01*
X103354D01*
Y72584D01*
X103629Y72639D01*
X104285Y73077D01*
X104723Y73734D01*
X104765Y73942D01*
X105274D01*
X105316Y73734D01*
X105754Y73077D01*
X106411Y72639D01*
X106685Y72584D01*
Y74508D01*
X107685D01*
Y72584D01*
X107959Y72639D01*
X108616Y73077D01*
X109054Y73734D01*
X109096Y73942D01*
X109605D01*
X109647Y73734D01*
X110085Y73077D01*
X110742Y72639D01*
X111016Y72584D01*
Y74508D01*
X112016D01*
Y72584D01*
X112290Y72639D01*
X112946Y73077D01*
X113385Y73734D01*
X113426Y73941D01*
X113936D01*
X113977Y73734D01*
X114416Y73077D01*
X115072Y72639D01*
X115347Y72584D01*
Y74508D01*
X115847D01*
Y75008D01*
X117770D01*
X117716Y75282D01*
X117277Y75938D01*
X116621Y76377D01*
X116413Y76418D01*
Y76928D01*
X116621Y76969D01*
X117277Y77408D01*
X117716Y78064D01*
X117770Y78338D01*
X115847D01*
Y79339D01*
X117770D01*
X117716Y79613D01*
X117277Y80269D01*
X116621Y80708D01*
X116413Y80749D01*
Y81259D01*
X116621Y81300D01*
X117277Y81739D01*
X117716Y82395D01*
X117770Y82669D01*
X115847D01*
Y83669D01*
X117770D01*
X117716Y83943D01*
X117277Y84600D01*
X116621Y85038D01*
X116413Y85080D01*
Y85590D01*
X116621Y85631D01*
X117277Y86070D01*
X117716Y86726D01*
X117770Y87000D01*
X115847D01*
Y88000D01*
X117770D01*
X117716Y88274D01*
X117277Y88931D01*
X116621Y89369D01*
X116413Y89411D01*
Y89920D01*
X116621Y89962D01*
X117277Y90400D01*
X117716Y91057D01*
X117770Y91331D01*
X115847D01*
Y91831D01*
X115347D01*
Y93754D01*
D02*
G37*
G36*
X176378Y147078D02*
X175500Y146903D01*
X175380Y146823D01*
X132776D01*
X131995Y146667D01*
X131334Y146225D01*
X124844Y139736D01*
X111424D01*
X111372Y139785D01*
X111528Y140326D01*
X111901Y140400D01*
X112646Y140898D01*
X113143Y141642D01*
X113318Y142520D01*
X113143Y143398D01*
X112646Y144142D01*
X111901Y144639D01*
X111024Y144814D01*
X110146Y144639D01*
X110026Y144559D01*
X95079D01*
X95079Y144559D01*
X94298Y144404D01*
X93637Y143962D01*
X93637Y143962D01*
X85376Y135701D01*
X22539D01*
X21759Y135545D01*
X21098Y135103D01*
X19188Y133194D01*
X19116Y133137D01*
X18964Y133037D01*
X18807Y132951D01*
X18642Y132878D01*
X18469Y132819D01*
X18286Y132772D01*
X18090Y132738D01*
X17881Y132718D01*
X17715Y132714D01*
X17618Y132727D01*
X16586Y132591D01*
X15625Y132193D01*
X14799Y131559D01*
X14165Y130734D01*
X13767Y129772D01*
X13631Y128740D01*
X13767Y127708D01*
X14165Y126747D01*
X14799Y125921D01*
X15625Y125287D01*
X16586Y124889D01*
X17618Y124753D01*
X18650Y124889D01*
X19612Y125287D01*
X20437Y125921D01*
X21071Y126747D01*
X21469Y127708D01*
X21605Y128740D01*
X21592Y128837D01*
X21596Y129003D01*
X21616Y129212D01*
X21650Y129408D01*
X21697Y129591D01*
X21756Y129764D01*
X21829Y129929D01*
X21915Y130086D01*
X22015Y130238D01*
X22072Y130310D01*
X23384Y131622D01*
X85708D01*
X85916Y131122D01*
X82167Y127374D01*
X24213D01*
X23432Y127219D01*
X22771Y126777D01*
X19188Y123194D01*
X19116Y123137D01*
X18964Y123037D01*
X18807Y122951D01*
X18642Y122878D01*
X18469Y122819D01*
X18286Y122772D01*
X18090Y122738D01*
X17881Y122718D01*
X17715Y122714D01*
X17618Y122727D01*
X16586Y122591D01*
X15625Y122193D01*
X14799Y121559D01*
X14165Y120734D01*
X13767Y119772D01*
X13631Y118740D01*
X13767Y117708D01*
X14165Y116747D01*
X14799Y115921D01*
X15625Y115287D01*
X16586Y114889D01*
X17618Y114753D01*
X18650Y114889D01*
X19612Y115287D01*
X20437Y115921D01*
X21071Y116747D01*
X21469Y117708D01*
X21605Y118740D01*
X21592Y118837D01*
X21596Y119003D01*
X21616Y119212D01*
X21650Y119408D01*
X21697Y119591D01*
X21756Y119764D01*
X21829Y119929D01*
X21915Y120086D01*
X22015Y120238D01*
X22072Y120310D01*
X25057Y123295D01*
X83012D01*
X83792Y123451D01*
X84454Y123893D01*
X96219Y135658D01*
X125689D01*
X126469Y135813D01*
X127131Y136255D01*
X133620Y142744D01*
X175380D01*
X175500Y142664D01*
X176378Y142489D01*
X177256Y142664D01*
X178000Y143161D01*
X178497Y143905D01*
X178672Y144783D01*
X178497Y145661D01*
X178000Y146406D01*
X177256Y146903D01*
X176378Y147078D01*
D02*
G37*
G36*
X63465Y148081D02*
X62433Y147945D01*
X61471Y147547D01*
X60645Y146914D01*
X60012Y146088D01*
X59614Y145126D01*
X59478Y144095D01*
X59614Y143063D01*
X60012Y142101D01*
X60645Y141275D01*
X61471Y140642D01*
X62433Y140243D01*
X63465Y140108D01*
X64496Y140243D01*
X65458Y140642D01*
X66284Y141275D01*
X66917Y142101D01*
X67316Y143063D01*
X67451Y144095D01*
X67316Y145126D01*
X66917Y146088D01*
X66284Y146914D01*
X65458Y147547D01*
X64496Y147945D01*
X63465Y148081D01*
D02*
G37*
G36*
X17618Y142727D02*
X16586Y142591D01*
X15625Y142193D01*
X14799Y141559D01*
X14165Y140734D01*
X13767Y139772D01*
X13631Y138740D01*
X13767Y137708D01*
X14165Y136747D01*
X14799Y135921D01*
X15625Y135287D01*
X16586Y134889D01*
X17618Y134753D01*
X18650Y134889D01*
X19612Y135287D01*
X20437Y135921D01*
X21071Y136747D01*
X21469Y137708D01*
X21605Y138740D01*
X21469Y139772D01*
X21071Y140734D01*
X20437Y141559D01*
X19612Y142193D01*
X18650Y142591D01*
X17618Y142727D01*
D02*
G37*
G36*
X112992Y133379D02*
X112309Y133243D01*
X111731Y132856D01*
X111730Y132856D01*
X107203Y128329D01*
X106816Y127750D01*
X106680Y127067D01*
Y115059D01*
X106816Y114376D01*
X107203Y113797D01*
X107782Y113411D01*
X108241Y113319D01*
X108343Y112824D01*
X108254Y112690D01*
X108099Y111909D01*
X108254Y111129D01*
X108696Y110468D01*
X109357Y110026D01*
X110138Y109870D01*
X110918Y110026D01*
X111580Y110468D01*
X111774Y110758D01*
X112374Y110756D01*
X112633Y110369D01*
X113294Y109927D01*
X114075Y109772D01*
X114855Y109927D01*
X115517Y110369D01*
X115959Y111031D01*
X116114Y111811D01*
X115959Y112591D01*
X115859Y112741D01*
Y113280D01*
X116142Y113512D01*
X116922Y113667D01*
X117584Y114109D01*
X118026Y114771D01*
X118061Y114947D01*
X119735Y116621D01*
X124064D01*
X147105Y93580D01*
X147114Y92985D01*
X146893Y92654D01*
X146815Y92264D01*
Y86358D01*
X146893Y85968D01*
X147114Y85637D01*
X147444Y85416D01*
X147835Y85339D01*
X153740D01*
X154130Y85416D01*
X154461Y85637D01*
X154682Y85968D01*
X154760Y86358D01*
Y92264D01*
X154682Y92654D01*
X154461Y92985D01*
X154130Y93206D01*
X153740Y93283D01*
X152316D01*
X152049Y93683D01*
X152049Y93683D01*
X150898Y94834D01*
X151077Y95362D01*
X151819Y95460D01*
X152781Y95858D01*
X153607Y96492D01*
X154240Y97318D01*
X154638Y98279D01*
X154774Y99311D01*
X154638Y100343D01*
X154240Y101304D01*
X153607Y102130D01*
X152781Y102764D01*
X151819Y103162D01*
X150787Y103298D01*
X150685Y103284D01*
X150441Y103288D01*
X150158Y103307D01*
X149901Y103340D01*
X149670Y103385D01*
X149464Y103440D01*
X149283Y103505D01*
X149125Y103578D01*
X148989Y103657D01*
X148901Y103721D01*
X129001Y123620D01*
X129173Y124156D01*
X129388Y124191D01*
X145530Y108049D01*
X145530Y108049D01*
X146108Y107663D01*
X146791Y107527D01*
X146791Y107527D01*
X147096D01*
X147197Y107513D01*
X147259Y107500D01*
X147335Y107318D01*
X147968Y106492D01*
X148794Y105858D01*
X149756Y105460D01*
X150787Y105324D01*
X151819Y105460D01*
X152781Y105858D01*
X153607Y106492D01*
X154240Y107318D01*
X154638Y108279D01*
X154774Y109311D01*
X154638Y110343D01*
X154240Y111304D01*
X153607Y112130D01*
X152781Y112764D01*
X151819Y113162D01*
X150787Y113298D01*
X149756Y113162D01*
X148794Y112764D01*
X147968Y112130D01*
X147636Y111697D01*
X146972Y111653D01*
X132230Y126395D01*
X132422Y126857D01*
X140718D01*
X146377Y121198D01*
X146441Y121110D01*
X146520Y120973D01*
X146593Y120816D01*
X146658Y120635D01*
X146714Y120429D01*
X146759Y120197D01*
X146792Y119941D01*
X146810Y119658D01*
X146814Y119414D01*
X146801Y119311D01*
X146936Y118279D01*
X147335Y117318D01*
X147968Y116492D01*
X148794Y115858D01*
X149756Y115460D01*
X150787Y115324D01*
X151819Y115460D01*
X152781Y115858D01*
X153607Y116492D01*
X154240Y117318D01*
X154638Y118279D01*
X154774Y119311D01*
X154638Y120343D01*
X154240Y121304D01*
X153607Y122130D01*
X152781Y122764D01*
X151819Y123162D01*
X150787Y123298D01*
X150685Y123284D01*
X150441Y123288D01*
X150158Y123307D01*
X149901Y123340D01*
X149670Y123385D01*
X149464Y123440D01*
X149283Y123505D01*
X149125Y123578D01*
X148989Y123657D01*
X148901Y123721D01*
X143273Y129348D01*
X143465Y129810D01*
X146487D01*
X146817Y129434D01*
X146801Y129311D01*
X146936Y128279D01*
X147335Y127318D01*
X147968Y126492D01*
X148794Y125858D01*
X149756Y125460D01*
X150787Y125324D01*
X151819Y125460D01*
X152781Y125858D01*
X153607Y126492D01*
X154240Y127318D01*
X154638Y128279D01*
X154774Y129311D01*
X154638Y130343D01*
X154240Y131304D01*
X153607Y132130D01*
X152781Y132764D01*
X151819Y133162D01*
X150787Y133298D01*
X149756Y133162D01*
X149479Y133048D01*
X149187Y133243D01*
X148504Y133379D01*
X112992D01*
X112992Y133379D01*
D02*
G37*
G36*
X163386Y133436D02*
X162354Y133300D01*
X161392Y132902D01*
X160567Y132268D01*
X159933Y131442D01*
X159535Y130481D01*
X159399Y129449D01*
X159535Y128417D01*
X159933Y127455D01*
X160567Y126630D01*
X161392Y125996D01*
X162354Y125598D01*
X163386Y125462D01*
X164418Y125598D01*
X165379Y125996D01*
X166205Y126630D01*
X166839Y127455D01*
X167237Y128417D01*
X167373Y129449D01*
X167237Y130481D01*
X166839Y131442D01*
X166205Y132268D01*
X165379Y132902D01*
X164418Y133300D01*
X163386Y133436D01*
D02*
G37*
G36*
X112992Y197391D02*
X112012Y197262D01*
X111098Y196883D01*
X110313Y196281D01*
X109711Y195496D01*
X109333Y194583D01*
X109204Y193602D01*
X109333Y192622D01*
X109711Y191708D01*
X110313Y190924D01*
X111098Y190322D01*
X112012Y189943D01*
X112992Y189814D01*
X113973Y189943D01*
X114886Y190322D01*
X115671Y190924D01*
X116273Y191708D01*
X116651Y192622D01*
X116780Y193602D01*
X116651Y194583D01*
X116273Y195496D01*
X115671Y196281D01*
X114886Y196883D01*
X113973Y197262D01*
X112992Y197391D01*
D02*
G37*
G36*
X151969Y185288D02*
X150885Y185145D01*
X149876Y184727D01*
X149009Y184062D01*
X148344Y183195D01*
X147926Y182186D01*
X147783Y181102D01*
X147926Y180019D01*
X148344Y179010D01*
X149009Y178143D01*
X149876Y177478D01*
X150885Y177060D01*
X151969Y176917D01*
X153052Y177060D01*
X154061Y177478D01*
X154928Y178143D01*
X155593Y179010D01*
X156011Y180019D01*
X156154Y181102D01*
X156011Y182186D01*
X155593Y183195D01*
X154928Y184062D01*
X154061Y184727D01*
X153052Y185145D01*
X151969Y185288D01*
D02*
G37*
G36*
X191339D02*
X190255Y185145D01*
X189246Y184727D01*
X188379Y184062D01*
X187714Y183195D01*
X187296Y182186D01*
X187153Y181102D01*
X187296Y180019D01*
X187714Y179010D01*
X188379Y178143D01*
X189246Y177478D01*
X190255Y177060D01*
X191339Y176917D01*
X192422Y177060D01*
X193431Y177478D01*
X194298Y178143D01*
X194963Y179010D01*
X195381Y180019D01*
X195524Y181102D01*
X195381Y182186D01*
X194963Y183195D01*
X194298Y184062D01*
X193431Y184727D01*
X192422Y185145D01*
X191339Y185288D01*
D02*
G37*
G36*
X45374Y185801D02*
X44591Y185698D01*
X43861Y185396D01*
X43234Y184915D01*
X43234Y184915D01*
X38116Y179797D01*
X37635Y179170D01*
X37333Y178441D01*
X37230Y177657D01*
Y171071D01*
X43282D01*
Y176404D01*
X46332Y179454D01*
X58063D01*
Y182480D01*
Y185506D01*
X46621D01*
X46157Y185698D01*
X45374Y185801D01*
D02*
G37*
G36*
X39756Y170071D02*
X37296D01*
X37333Y169788D01*
X37635Y169058D01*
X38116Y168431D01*
X38743Y167950D01*
X39473Y167648D01*
X39756Y167611D01*
Y170071D01*
D02*
G37*
G36*
X43216D02*
X40756D01*
Y167611D01*
X41039Y167648D01*
X41769Y167950D01*
X42395Y168431D01*
X42876Y169058D01*
X43179Y169788D01*
X43216Y170071D01*
D02*
G37*
G36*
X191339Y195130D02*
X190255Y194988D01*
X189246Y194570D01*
X188379Y193904D01*
X187714Y193038D01*
X187296Y192028D01*
X187153Y190945D01*
X187296Y189862D01*
X187714Y188852D01*
X188379Y187985D01*
X189246Y187320D01*
X190255Y186902D01*
X191339Y186759D01*
X192422Y186902D01*
X193431Y187320D01*
X194298Y187985D01*
X194963Y188852D01*
X195381Y189862D01*
X195524Y190945D01*
X195381Y192028D01*
X194963Y193038D01*
X194298Y193904D01*
X193431Y194570D01*
X192422Y194988D01*
X191339Y195130D01*
D02*
G37*
G36*
X128839Y193638D02*
X122933D01*
X122543Y193560D01*
X122212Y193339D01*
X121991Y193008D01*
X121914Y192618D01*
Y188745D01*
X121909Y188743D01*
X121757Y188702D01*
X121542Y188666D01*
X121393Y188653D01*
X104394D01*
X104245Y188666D01*
X104031Y188702D01*
X103879Y188743D01*
X103874Y188745D01*
Y192618D01*
X103796Y193008D01*
X103575Y193339D01*
X103244Y193560D01*
X102854Y193638D01*
X96949D01*
X96559Y193560D01*
X96228Y193339D01*
X96007Y193008D01*
X95929Y192618D01*
Y188745D01*
X95925Y188743D01*
X95772Y188702D01*
X95558Y188666D01*
X95409Y188653D01*
X74902D01*
X74121Y188498D01*
X73460Y188056D01*
X73460Y188056D01*
X65684Y180280D01*
X65242Y179619D01*
X65087Y178839D01*
Y172410D01*
X65065Y172262D01*
X65015Y172053D01*
X64943Y171840D01*
X64847Y171622D01*
X64726Y171399D01*
X64578Y171170D01*
X64402Y170935D01*
X64197Y170696D01*
X64023Y170516D01*
X63916Y170434D01*
X63195Y169494D01*
X62742Y168399D01*
X62587Y167224D01*
X62742Y166050D01*
X63195Y164955D01*
X63916Y164015D01*
X64857Y163294D01*
X65951Y162840D01*
X67126Y162686D01*
X67259Y162703D01*
X67510Y162699D01*
X67824Y162674D01*
X68114Y162633D01*
X68381Y162576D01*
X68624Y162503D01*
X68846Y162417D01*
X69047Y162318D01*
X69231Y162205D01*
X69351Y162116D01*
X71425Y160041D01*
Y148354D01*
X71414Y148263D01*
X71378Y148084D01*
X71328Y147912D01*
X71263Y147745D01*
X71182Y147580D01*
X71086Y147417D01*
X70971Y147255D01*
X70837Y147093D01*
X70723Y146973D01*
X70645Y146914D01*
X70012Y146088D01*
X69614Y145126D01*
X69478Y144095D01*
X69614Y143063D01*
X70012Y142101D01*
X70645Y141275D01*
X71471Y140642D01*
X72433Y140243D01*
X73465Y140108D01*
X74497Y140243D01*
X75458Y140642D01*
X76284Y141275D01*
X76917Y142101D01*
X77316Y143063D01*
X77451Y144095D01*
X77316Y145126D01*
X76917Y146088D01*
X76284Y146914D01*
X76206Y146973D01*
X76092Y147093D01*
X75958Y147255D01*
X75844Y147417D01*
X75747Y147580D01*
X75666Y147745D01*
X75602Y147912D01*
X75551Y148084D01*
X75515Y148263D01*
X75504Y148354D01*
Y160886D01*
X75504Y160886D01*
X75349Y161666D01*
X74906Y162328D01*
X72235Y164999D01*
X72145Y165119D01*
X72033Y165303D01*
X71933Y165505D01*
X71847Y165726D01*
X71775Y165969D01*
X71717Y166236D01*
X71676Y166526D01*
X71652Y166841D01*
X71647Y167091D01*
X71665Y167224D01*
X71510Y168399D01*
X71057Y169494D01*
X70335Y170434D01*
X70229Y170516D01*
X70055Y170696D01*
X69850Y170935D01*
X69674Y171170D01*
X69526Y171399D01*
X69405Y171622D01*
X69309Y171840D01*
X69237Y172052D01*
X69187Y172262D01*
X69165Y172410D01*
Y177994D01*
X75746Y184575D01*
X95409D01*
X95558Y184562D01*
X95772Y184526D01*
X95924Y184486D01*
X95929Y184484D01*
Y182776D01*
X96007Y182385D01*
X96228Y182055D01*
X96559Y181834D01*
X96949Y181756D01*
X102854D01*
X103244Y181834D01*
X103575Y182055D01*
X103796Y182385D01*
X103874Y182776D01*
Y184484D01*
X103879Y184486D01*
X104031Y184526D01*
X104245Y184562D01*
X104394Y184575D01*
X121393D01*
X121542Y184562D01*
X121757Y184526D01*
X121909Y184486D01*
X121914Y184484D01*
Y182776D01*
X121991Y182385D01*
X122212Y182055D01*
X122543Y181834D01*
X122933Y181756D01*
X128839D01*
X129229Y181834D01*
X129560Y182055D01*
X129781Y182385D01*
X129858Y182776D01*
Y192618D01*
X129781Y193008D01*
X129560Y193339D01*
X129229Y193560D01*
X128839Y193638D01*
D02*
G37*
G36*
X151969Y195130D02*
X150885Y194988D01*
X149876Y194570D01*
X149009Y193904D01*
X148344Y193038D01*
X147926Y192028D01*
X147783Y190945D01*
X147926Y189862D01*
X148344Y188852D01*
X149009Y187985D01*
X149876Y187320D01*
X150885Y186902D01*
X151969Y186759D01*
X153052Y186902D01*
X154061Y187320D01*
X154928Y187985D01*
X155593Y188852D01*
X156011Y189862D01*
X156154Y190945D01*
X156011Y192028D01*
X155593Y193038D01*
X154928Y193904D01*
X154061Y194570D01*
X153052Y194988D01*
X151969Y195130D01*
D02*
G37*
G36*
X61523Y181980D02*
X59063D01*
Y179520D01*
X59346Y179558D01*
X60076Y179860D01*
X60703Y180341D01*
X61184Y180967D01*
X61486Y181697D01*
X61523Y181980D01*
D02*
G37*
G36*
X59063Y185440D02*
Y182980D01*
X61523D01*
X61486Y183264D01*
X61184Y183993D01*
X60703Y184620D01*
X60076Y185101D01*
X59346Y185403D01*
X59063Y185440D01*
D02*
G37*
G36*
X163386Y43436D02*
X162354Y43300D01*
X161392Y42902D01*
X160567Y42268D01*
X159933Y41442D01*
X159535Y40481D01*
X159399Y39449D01*
X159535Y38417D01*
X159933Y37455D01*
X160567Y36630D01*
X161392Y35996D01*
X162354Y35598D01*
X163386Y35462D01*
X164418Y35598D01*
X165379Y35996D01*
X166205Y36630D01*
X166839Y37455D01*
X167237Y38417D01*
X167373Y39449D01*
X167237Y40481D01*
X166839Y41442D01*
X166205Y42268D01*
X165379Y42902D01*
X164418Y43300D01*
X163386Y43436D01*
D02*
G37*
G36*
X182362Y43421D02*
X176457D01*
X176067Y43343D01*
X175736Y43123D01*
X175515Y42792D01*
X175437Y42402D01*
Y36496D01*
X175515Y36106D01*
X175736Y35775D01*
X176067Y35554D01*
X176457Y35476D01*
X182362D01*
X182752Y35554D01*
X183083Y35775D01*
X183304Y36106D01*
X183382Y36496D01*
Y42402D01*
X183304Y42792D01*
X183083Y43123D01*
X182752Y43343D01*
X182362Y43421D01*
D02*
G37*
G36*
X50000Y42273D02*
X49020Y42143D01*
X48106Y41765D01*
X47321Y41163D01*
X46719Y40378D01*
X46341Y39465D01*
X46212Y38484D01*
X46341Y37504D01*
X46719Y36590D01*
X47321Y35805D01*
X48106Y35203D01*
X49020Y34825D01*
X50000Y34696D01*
X50981Y34825D01*
X51894Y35203D01*
X52679Y35805D01*
X53281Y36590D01*
X53659Y37504D01*
X53788Y38484D01*
X53659Y39465D01*
X53281Y40378D01*
X52679Y41163D01*
X51894Y41765D01*
X50981Y42143D01*
X50000Y42273D01*
D02*
G37*
G36*
X15937Y37984D02*
X12516D01*
X12586Y37452D01*
X12984Y36491D01*
X13618Y35665D01*
X14444Y35032D01*
X15405Y34633D01*
X15937Y34563D01*
Y37984D01*
D02*
G37*
G36*
X20358D02*
X16937D01*
Y34563D01*
X17469Y34633D01*
X18430Y35032D01*
X19256Y35665D01*
X19890Y36491D01*
X20288Y37452D01*
X20358Y37984D01*
D02*
G37*
G36*
X135138Y52904D02*
X134106Y52768D01*
X133144Y52370D01*
X132319Y51736D01*
X131685Y50911D01*
X131287Y49949D01*
X131151Y48917D01*
X131287Y47885D01*
X131685Y46924D01*
X132319Y46098D01*
X133144Y45465D01*
X134106Y45066D01*
X135138Y44930D01*
X136170Y45066D01*
X137131Y45465D01*
X137957Y46098D01*
X138591Y46924D01*
X138989Y47885D01*
X139125Y48917D01*
X138989Y49949D01*
X138591Y50911D01*
X137957Y51736D01*
X137131Y52370D01*
X136170Y52768D01*
X135138Y52904D01*
D02*
G37*
G36*
X145138D02*
X144106Y52768D01*
X143144Y52370D01*
X142319Y51736D01*
X141685Y50911D01*
X141287Y49949D01*
X141151Y48917D01*
X141287Y47885D01*
X141685Y46924D01*
X142319Y46098D01*
X143144Y45465D01*
X144106Y45066D01*
X145138Y44930D01*
X146170Y45066D01*
X147131Y45465D01*
X147957Y46098D01*
X148591Y46924D01*
X148989Y47885D01*
X149125Y48917D01*
X148989Y49949D01*
X148591Y50911D01*
X147957Y51736D01*
X147131Y52370D01*
X146170Y52768D01*
X145138Y52904D01*
D02*
G37*
G36*
X64272Y54268D02*
X58366D01*
X57976Y54190D01*
X57645Y53969D01*
X57424Y53638D01*
X57347Y53248D01*
Y43406D01*
X57424Y43015D01*
X57645Y42685D01*
X57976Y42463D01*
X58366Y42386D01*
X64272D01*
X64662Y42463D01*
X64993Y42685D01*
X65214Y43015D01*
X65291Y43406D01*
Y53248D01*
X65214Y53638D01*
X64993Y53969D01*
X64662Y54190D01*
X64272Y54268D01*
D02*
G37*
G36*
X15937Y42405D02*
X15405Y42335D01*
X14444Y41937D01*
X13618Y41303D01*
X12984Y40478D01*
X12586Y39516D01*
X12516Y38984D01*
X15937D01*
Y42405D01*
D02*
G37*
G36*
X17618Y42691D02*
X16937Y42602D01*
Y38984D01*
X20554D01*
X20644Y39665D01*
X20541Y40448D01*
X20239Y41178D01*
X19758Y41805D01*
X19131Y42286D01*
X18401Y42588D01*
X17618Y42691D01*
D02*
G37*
G36*
X166339Y23421D02*
X160433D01*
X160043Y23344D01*
X159712Y23122D01*
X159491Y22792D01*
X159414Y22402D01*
Y16496D01*
X159491Y16106D01*
X159712Y15775D01*
X160043Y15554D01*
X160433Y15476D01*
X166339D01*
X166729Y15554D01*
X167060Y15775D01*
X167281Y16106D01*
X167358Y16496D01*
Y22402D01*
X167281Y22792D01*
X167060Y23122D01*
X166729Y23344D01*
X166339Y23421D01*
D02*
G37*
G36*
X82776Y24164D02*
X81744Y24028D01*
X80782Y23630D01*
X79957Y22996D01*
X79323Y22171D01*
X78925Y21209D01*
X78789Y20177D01*
X78925Y19145D01*
X79323Y18184D01*
X79957Y17358D01*
X80782Y16724D01*
X81744Y16326D01*
X82776Y16190D01*
X83807Y16326D01*
X84769Y16724D01*
X85595Y17358D01*
X86228Y18184D01*
X86627Y19145D01*
X86762Y20177D01*
X86627Y21209D01*
X86228Y22171D01*
X85595Y22996D01*
X84769Y23630D01*
X83807Y24028D01*
X82776Y24164D01*
D02*
G37*
G36*
X66043Y22772D02*
X60138D01*
X59748Y22694D01*
X59417Y22473D01*
X59196Y22142D01*
X59118Y21752D01*
Y11909D01*
X59196Y11519D01*
X59417Y11188D01*
X59748Y10967D01*
X60138Y10890D01*
X66043D01*
X66434Y10967D01*
X66764Y11188D01*
X66985Y11519D01*
X67063Y11909D01*
Y21752D01*
X66985Y22142D01*
X66764Y22473D01*
X66434Y22694D01*
X66043Y22772D01*
D02*
G37*
G36*
X50000Y14714D02*
X49020Y14584D01*
X48106Y14206D01*
X47321Y13604D01*
X46719Y12819D01*
X46341Y11906D01*
X46212Y10925D01*
X46341Y9945D01*
X46719Y9031D01*
X47321Y8247D01*
X48106Y7644D01*
X49020Y7266D01*
X50000Y7137D01*
X50981Y7266D01*
X51894Y7644D01*
X52679Y8247D01*
X53281Y9031D01*
X53659Y9945D01*
X53788Y10925D01*
X53659Y11906D01*
X53281Y12819D01*
X52679Y13604D01*
X51894Y14206D01*
X50981Y14584D01*
X50000Y14714D01*
D02*
G37*
G36*
X40059Y22772D02*
X34154D01*
X33763Y22694D01*
X33433Y22473D01*
X33212Y22142D01*
X33134Y21752D01*
Y11909D01*
X33212Y11519D01*
X33433Y11188D01*
X33763Y10967D01*
X34154Y10890D01*
X40059D01*
X40449Y10967D01*
X40780Y11188D01*
X41001Y11519D01*
X41079Y11909D01*
Y21752D01*
X41001Y22142D01*
X40780Y22473D01*
X40449Y22694D01*
X40059Y22772D01*
D02*
G37*
G36*
X163386Y33436D02*
X162354Y33300D01*
X161392Y32901D01*
X160567Y32268D01*
X159933Y31442D01*
X159535Y30481D01*
X159399Y29449D01*
X159535Y28417D01*
X159933Y27455D01*
X160567Y26630D01*
X161392Y25996D01*
X162354Y25598D01*
X163386Y25462D01*
X164418Y25598D01*
X165379Y25996D01*
X166205Y26630D01*
X166839Y27455D01*
X167237Y28417D01*
X167373Y29449D01*
X167237Y30481D01*
X166839Y31442D01*
X166205Y32268D01*
X165379Y32901D01*
X164418Y33300D01*
X163386Y33436D01*
D02*
G37*
G36*
X29390Y42457D02*
X23484D01*
X23094Y42379D01*
X22763Y42158D01*
X22542Y41827D01*
X22465Y41437D01*
Y35531D01*
X22542Y35141D01*
X22763Y34811D01*
X23094Y34589D01*
X23484Y34512D01*
X29390D01*
X29780Y34589D01*
X30111Y34811D01*
X30332Y35141D01*
X30409Y35531D01*
Y41437D01*
X30332Y41827D01*
X30111Y42158D01*
X29780Y42379D01*
X29390Y42457D01*
D02*
G37*
G36*
X75728Y24149D02*
X69823D01*
X69433Y24072D01*
X69102Y23851D01*
X68881Y23520D01*
X68803Y23130D01*
Y17224D01*
X68881Y16834D01*
X69102Y16503D01*
X69433Y16282D01*
X69823Y16205D01*
X75728D01*
X76118Y16282D01*
X76449Y16503D01*
X76670Y16834D01*
X76748Y17224D01*
Y23130D01*
X76670Y23520D01*
X76449Y23851D01*
X76118Y24072D01*
X75728Y24149D01*
D02*
G37*
G36*
X92776Y24164D02*
X91744Y24028D01*
X90782Y23630D01*
X89956Y22996D01*
X89323Y22171D01*
X88925Y21209D01*
X88789Y20177D01*
X88925Y19145D01*
X89323Y18184D01*
X89956Y17358D01*
X90782Y16724D01*
X91744Y16326D01*
X92776Y16190D01*
X93808Y16326D01*
X94769Y16724D01*
X95595Y17358D01*
X96228Y18184D01*
X96627Y19145D01*
X96763Y20177D01*
X96627Y21209D01*
X96228Y22171D01*
X95595Y22996D01*
X94769Y23630D01*
X93808Y24028D01*
X92776Y24164D01*
D02*
G37*
G36*
X102776D02*
X101744Y24028D01*
X100782Y23630D01*
X99957Y22996D01*
X99323Y22171D01*
X98925Y21209D01*
X98789Y20177D01*
X98925Y19145D01*
X99323Y18184D01*
X99957Y17358D01*
X100782Y16724D01*
X101744Y16326D01*
X102776Y16190D01*
X103807Y16326D01*
X104769Y16724D01*
X105595Y17358D01*
X106228Y18184D01*
X106627Y19145D01*
X106763Y20177D01*
X106627Y21209D01*
X106228Y22171D01*
X105595Y22996D01*
X104769Y23630D01*
X103807Y24028D01*
X102776Y24164D01*
D02*
G37*
G36*
X128091Y52890D02*
X122185D01*
X121795Y52812D01*
X121464Y52591D01*
X121243Y52260D01*
X121166Y51870D01*
Y45965D01*
X121243Y45574D01*
X121464Y45244D01*
X121795Y45023D01*
X122185Y44945D01*
X128091D01*
X128481Y45023D01*
X128812Y45244D01*
X129033Y45574D01*
X129110Y45965D01*
Y51870D01*
X129033Y52260D01*
X128812Y52591D01*
X128481Y52812D01*
X128091Y52890D01*
D02*
G37*
G36*
X117770Y74008D02*
X116347D01*
Y72584D01*
X116621Y72639D01*
X117277Y73077D01*
X117716Y73734D01*
X117770Y74008D01*
D02*
G37*
G36*
X39272Y79671D02*
X38394Y79555D01*
X37576Y79216D01*
X36874Y78677D01*
X36335Y77975D01*
X35996Y77157D01*
X35881Y76279D01*
X35996Y75402D01*
X36335Y74584D01*
X36874Y73882D01*
X37576Y73343D01*
X38394Y73004D01*
X39272Y72888D01*
X40149Y73004D01*
X40967Y73343D01*
X41670Y73882D01*
X42208Y74584D01*
X42547Y75402D01*
X42663Y76279D01*
X42547Y77157D01*
X42208Y77975D01*
X41670Y78677D01*
X40967Y79216D01*
X40149Y79555D01*
X39272Y79671D01*
D02*
G37*
G36*
X98024Y74008D02*
X96600D01*
X96654Y73734D01*
X97093Y73077D01*
X97749Y72639D01*
X98024Y72584D01*
Y74008D01*
D02*
G37*
G36*
X163386Y73436D02*
X162354Y73300D01*
X161392Y72901D01*
X160567Y72268D01*
X159933Y71442D01*
X159535Y70481D01*
X159399Y69449D01*
X159535Y68417D01*
X159933Y67455D01*
X160567Y66630D01*
X161392Y65996D01*
X162354Y65598D01*
X163386Y65462D01*
X164418Y65598D01*
X165379Y65996D01*
X166205Y66630D01*
X166839Y67455D01*
X167237Y68417D01*
X167373Y69449D01*
X167237Y70481D01*
X166839Y71442D01*
X166205Y72268D01*
X165379Y72901D01*
X164418Y73300D01*
X163386Y73436D01*
D02*
G37*
G36*
X179410D02*
X178378Y73300D01*
X177416Y72901D01*
X176590Y72268D01*
X175957Y71442D01*
X175558Y70481D01*
X175423Y69449D01*
X175558Y68417D01*
X175957Y67455D01*
X176590Y66630D01*
X177416Y65996D01*
X178378Y65598D01*
X179410Y65462D01*
X180441Y65598D01*
X181403Y65996D01*
X182229Y66630D01*
X182862Y67455D01*
X183261Y68417D01*
X183396Y69449D01*
X183261Y70481D01*
X182862Y71442D01*
X182229Y72268D01*
X181403Y72901D01*
X180441Y73300D01*
X179410Y73436D01*
D02*
G37*
G36*
X39272Y95419D02*
X38394Y95303D01*
X37576Y94964D01*
X36874Y94425D01*
X36335Y93723D01*
X35996Y92905D01*
X35881Y92028D01*
X35996Y91150D01*
X36335Y90332D01*
X36874Y89630D01*
X37576Y89091D01*
X38394Y88752D01*
X39272Y88636D01*
X40149Y88752D01*
X40967Y89091D01*
X41670Y89630D01*
X42208Y90332D01*
X42547Y91150D01*
X42663Y92028D01*
X42547Y92905D01*
X42208Y93723D01*
X41670Y94425D01*
X40967Y94964D01*
X40149Y95303D01*
X39272Y95419D01*
D02*
G37*
G36*
X98024Y93754D02*
X97749Y93700D01*
X97093Y93261D01*
X96654Y92605D01*
X96600Y92331D01*
X98024D01*
Y93754D01*
D02*
G37*
G36*
X163386Y93436D02*
X162354Y93300D01*
X161392Y92901D01*
X160567Y92268D01*
X159933Y91442D01*
X159535Y90481D01*
X159399Y89449D01*
X159535Y88417D01*
X159933Y87455D01*
X160567Y86630D01*
X161392Y85996D01*
X162354Y85598D01*
X163386Y85462D01*
X164418Y85598D01*
X165379Y85996D01*
X166205Y86630D01*
X166839Y87455D01*
X167237Y88417D01*
X167373Y89449D01*
X167237Y90481D01*
X166839Y91442D01*
X166205Y92268D01*
X165379Y92901D01*
X164418Y93300D01*
X163386Y93436D01*
D02*
G37*
G36*
Y83436D02*
X162354Y83300D01*
X161392Y82902D01*
X160567Y82268D01*
X159933Y81442D01*
X159535Y80481D01*
X159399Y79449D01*
X159535Y78417D01*
X159933Y77455D01*
X160567Y76630D01*
X161392Y75996D01*
X162354Y75598D01*
X163386Y75462D01*
X164418Y75598D01*
X165379Y75996D01*
X166205Y76630D01*
X166839Y77455D01*
X167237Y78417D01*
X167373Y79449D01*
X167237Y80481D01*
X166839Y81442D01*
X166205Y82268D01*
X165379Y82902D01*
X164418Y83300D01*
X163386Y83436D01*
D02*
G37*
G36*
X179410D02*
X178378Y83300D01*
X177416Y82902D01*
X176590Y82268D01*
X175957Y81442D01*
X175558Y80481D01*
X175423Y79449D01*
X175558Y78417D01*
X175957Y77455D01*
X176590Y76630D01*
X177416Y75996D01*
X178378Y75598D01*
X179410Y75462D01*
X180441Y75598D01*
X181403Y75996D01*
X182229Y76630D01*
X182862Y77455D01*
X183261Y78417D01*
X183396Y79449D01*
X183261Y80481D01*
X182862Y81442D01*
X182229Y82268D01*
X181403Y82902D01*
X180441Y83300D01*
X179410Y83436D01*
D02*
G37*
G36*
X15937Y49697D02*
X12516D01*
X12586Y49165D01*
X12984Y48203D01*
X13618Y47378D01*
X14444Y46744D01*
X15405Y46346D01*
X15937Y46276D01*
Y49697D01*
D02*
G37*
G36*
X20358D02*
X16937D01*
Y46276D01*
X17469Y46346D01*
X18430Y46744D01*
X19256Y47378D01*
X19890Y48203D01*
X20288Y49165D01*
X20358Y49697D01*
D02*
G37*
G36*
X29390Y54169D02*
X23484D01*
X23094Y54092D01*
X22763Y53870D01*
X22542Y53540D01*
X22465Y53150D01*
Y47244D01*
X22542Y46854D01*
X22763Y46523D01*
X23094Y46302D01*
X23484Y46224D01*
X29390D01*
X29780Y46302D01*
X30111Y46523D01*
X30332Y46854D01*
X30409Y47244D01*
Y53150D01*
X30332Y53540D01*
X30111Y53870D01*
X29780Y54092D01*
X29390Y54169D01*
D02*
G37*
G36*
X163386Y53436D02*
X162354Y53300D01*
X161392Y52902D01*
X160567Y52268D01*
X159933Y51442D01*
X159535Y50481D01*
X159399Y49449D01*
X159535Y48417D01*
X159933Y47455D01*
X160567Y46630D01*
X161392Y45996D01*
X162354Y45598D01*
X163386Y45462D01*
X164418Y45598D01*
X165379Y45996D01*
X166205Y46630D01*
X166839Y47455D01*
X167237Y48417D01*
X167373Y49449D01*
X167237Y50481D01*
X166839Y51442D01*
X166205Y52268D01*
X165379Y52902D01*
X164418Y53300D01*
X163386Y53436D01*
D02*
G37*
G36*
X179410D02*
X178378Y53300D01*
X177416Y52902D01*
X176590Y52268D01*
X175957Y51442D01*
X175558Y50481D01*
X175423Y49449D01*
X175558Y48417D01*
X175957Y47455D01*
X176590Y46630D01*
X177416Y45996D01*
X178378Y45598D01*
X179410Y45462D01*
X180441Y45598D01*
X181403Y45996D01*
X182229Y46630D01*
X182862Y47455D01*
X183261Y48417D01*
X183396Y49449D01*
X183261Y50481D01*
X182862Y51442D01*
X182229Y52268D01*
X181403Y52902D01*
X180441Y53300D01*
X179410Y53436D01*
D02*
G37*
G36*
X163386Y63436D02*
X162354Y63300D01*
X161392Y62902D01*
X160567Y62268D01*
X159933Y61442D01*
X159535Y60481D01*
X159399Y59449D01*
X159535Y58417D01*
X159933Y57455D01*
X160567Y56630D01*
X161392Y55996D01*
X162354Y55598D01*
X163386Y55462D01*
X164418Y55598D01*
X165379Y55996D01*
X166205Y56630D01*
X166839Y57455D01*
X167237Y58417D01*
X167373Y59449D01*
X167237Y60481D01*
X166839Y61442D01*
X166205Y62268D01*
X165379Y62902D01*
X164418Y63300D01*
X163386Y63436D01*
D02*
G37*
G36*
X179410D02*
X178378Y63300D01*
X177416Y62902D01*
X176590Y62268D01*
X175957Y61442D01*
X175558Y60481D01*
X175423Y59449D01*
X175558Y58417D01*
X175957Y57455D01*
X176590Y56630D01*
X177416Y55996D01*
X178378Y55598D01*
X179410Y55462D01*
X180441Y55598D01*
X181403Y55996D01*
X182229Y56630D01*
X182862Y57455D01*
X183261Y58417D01*
X183396Y59449D01*
X183261Y60481D01*
X182862Y61442D01*
X182229Y62268D01*
X181403Y62902D01*
X180441Y63300D01*
X179410Y63436D01*
D02*
G37*
G36*
X42323Y62278D02*
X20768D01*
X19985Y62175D01*
X19255Y61873D01*
X18628Y61392D01*
X14297Y57061D01*
X13816Y56434D01*
X13514Y55704D01*
X13411Y54921D01*
Y53474D01*
X13407Y53025D01*
X13394Y52724D01*
X12984Y52190D01*
X12586Y51229D01*
X12516Y50697D01*
X16437D01*
X20358D01*
X20288Y51229D01*
X19890Y52190D01*
X19510Y52685D01*
X19474Y53679D01*
X22021Y56226D01*
X41069D01*
X41758Y55538D01*
X42687Y54544D01*
Y54544D01*
X42633Y54602D01*
X42687Y54544D01*
X42695Y54496D01*
X42243Y54204D01*
X42161Y54202D01*
X41831Y54268D01*
X35925D01*
X35535Y54190D01*
X35204Y53969D01*
X34983Y53638D01*
X34906Y53248D01*
Y43406D01*
X34983Y43015D01*
X35204Y42685D01*
X35535Y42463D01*
X35925Y42386D01*
X41831D01*
X42221Y42463D01*
X42552Y42685D01*
X42773Y43015D01*
X42850Y43406D01*
Y53248D01*
X42791Y53547D01*
X42781Y53598D01*
X42845Y53694D01*
X43110Y53896D01*
X43261Y53917D01*
X43528Y53597D01*
X43796Y53267D01*
X44158Y52758D01*
Y51976D01*
X45678D01*
X45659Y52073D01*
X45442Y52601D01*
X45091Y53205D01*
X44608Y53885D01*
X43992Y54642D01*
X42362Y56385D01*
X47159Y57245D01*
X47892Y56540D01*
X49246Y55411D01*
X49867Y54987D01*
X50452Y54656D01*
X50999Y54418D01*
X51509Y54275D01*
X51982Y54224D01*
X52417Y54267D01*
X52816Y54404D01*
X47788Y51976D01*
X50098D01*
X56039D01*
Y54429D01*
X55962Y54819D01*
X55741Y55150D01*
X55410Y55371D01*
X55020Y55449D01*
X51186D01*
X50907Y55569D01*
X50407Y55853D01*
X49861Y56225D01*
X48572Y57300D01*
X48105Y57750D01*
X44462Y61392D01*
X43836Y61873D01*
X43106Y62175D01*
X42323Y62278D01*
D02*
G37*
G36*
X56039Y50976D02*
X50598D01*
Y47504D01*
X55020D01*
X55410Y47582D01*
X55741Y47803D01*
X55962Y48133D01*
X56039Y48524D01*
Y50976D01*
D02*
G37*
G36*
X49598D02*
X45717D01*
X45202Y50728D01*
X45516Y50949D01*
X45532Y50976D01*
X44158D01*
Y48524D01*
X44235Y48133D01*
X44456Y47803D01*
X44787Y47582D01*
X45177Y47504D01*
X49598D01*
Y50976D01*
D02*
G37*
%LPD*%
G36*
X121186Y156752D02*
X121172Y156950D01*
X121128Y157157D01*
X121057Y157372D01*
X120957Y157597D01*
X120828Y157832D01*
X120672Y158075D01*
X120486Y158328D01*
X120031Y158860D01*
X119760Y159141D01*
X120687Y161042D01*
X120780Y160955D01*
X120863Y160889D01*
X120936Y160843D01*
X120999Y160819D01*
X121053Y160815D01*
X121097Y160832D01*
X121131Y160870D01*
X121155Y160929D01*
X121170Y161009D01*
X121174Y161109D01*
X121186Y156752D01*
D02*
G37*
G36*
X84475Y148652D02*
X84505Y148310D01*
X84555Y148008D01*
X84625Y147747D01*
X84715Y147525D01*
X84825Y147344D01*
X84955Y147203D01*
X85105Y147103D01*
X85275Y147042D01*
X85465Y147022D01*
X81465D01*
X81655Y147042D01*
X81825Y147103D01*
X81975Y147203D01*
X82105Y147344D01*
X82215Y147525D01*
X82305Y147747D01*
X82375Y148008D01*
X82425Y148310D01*
X82455Y148652D01*
X82465Y149034D01*
X84465D01*
X84475Y148652D01*
D02*
G37*
G36*
X21542Y121250D02*
X21355Y121048D01*
X21188Y120835D01*
X21041Y120613D01*
X20913Y120380D01*
X20806Y120137D01*
X20719Y119884D01*
X20652Y119620D01*
X20605Y119347D01*
X20578Y119063D01*
X20571Y118770D01*
X17648Y121693D01*
X17941Y121700D01*
X18225Y121727D01*
X18498Y121774D01*
X18762Y121841D01*
X19015Y121928D01*
X19258Y122035D01*
X19491Y122163D01*
X19713Y122310D01*
X19926Y122477D01*
X20128Y122664D01*
X21542Y121250D01*
D02*
G37*
G36*
Y131250D02*
X21355Y131048D01*
X21188Y130835D01*
X21041Y130613D01*
X20913Y130380D01*
X20806Y130137D01*
X20719Y129884D01*
X20652Y129620D01*
X20605Y129347D01*
X20578Y129063D01*
X20571Y128770D01*
X17648Y131693D01*
X17941Y131700D01*
X18225Y131727D01*
X18498Y131774D01*
X18762Y131841D01*
X19015Y131928D01*
X19258Y132035D01*
X19491Y132163D01*
X19713Y132310D01*
X19926Y132477D01*
X20128Y132665D01*
X21542Y131250D01*
D02*
G37*
G36*
X148097Y108094D02*
X148046Y108183D01*
X147977Y108262D01*
X147891Y108332D01*
X147787Y108393D01*
X147665Y108444D01*
X147526Y108486D01*
X147369Y108519D01*
X147194Y108542D01*
X147001Y108556D01*
X146791Y108561D01*
Y110061D01*
X147001Y110066D01*
X147369Y110103D01*
X147526Y110136D01*
X147665Y110178D01*
X147787Y110229D01*
X147891Y110290D01*
X147977Y110360D01*
X148046Y110440D01*
X148097Y110528D01*
Y108094D01*
D02*
G37*
G36*
X148229Y102949D02*
X148432Y102802D01*
X148654Y102672D01*
X148896Y102561D01*
X149158Y102467D01*
X149439Y102391D01*
X149739Y102332D01*
X150059Y102292D01*
X150399Y102269D01*
X150758Y102264D01*
X147835Y99340D01*
X147830Y99700D01*
X147807Y100039D01*
X147766Y100359D01*
X147708Y100660D01*
X147632Y100941D01*
X147538Y101202D01*
X147426Y101444D01*
X147297Y101666D01*
X147150Y101869D01*
X146985Y102053D01*
X148046Y103113D01*
X148229Y102949D01*
D02*
G37*
G36*
Y122949D02*
X148432Y122802D01*
X148654Y122672D01*
X148896Y122561D01*
X149158Y122467D01*
X149439Y122391D01*
X149739Y122332D01*
X150059Y122292D01*
X150399Y122269D01*
X150758Y122264D01*
X147835Y119341D01*
X147830Y119700D01*
X147807Y120039D01*
X147766Y120359D01*
X147708Y120660D01*
X147632Y120941D01*
X147538Y121202D01*
X147426Y121444D01*
X147297Y121667D01*
X147150Y121870D01*
X146985Y122053D01*
X148046Y123114D01*
X148229Y122949D01*
D02*
G37*
G36*
X70633Y166793D02*
X70662Y166415D01*
X70713Y166056D01*
X70786Y165717D01*
X70882Y165396D01*
X70999Y165094D01*
X71139Y164811D01*
X71300Y164546D01*
X71484Y164301D01*
X71690Y164075D01*
X70275Y162661D01*
X70049Y162866D01*
X69804Y163050D01*
X69540Y163212D01*
X69257Y163351D01*
X68955Y163469D01*
X68634Y163564D01*
X68294Y163637D01*
X67935Y163689D01*
X67558Y163718D01*
X67161Y163725D01*
X70626Y167189D01*
X70633Y166793D01*
D02*
G37*
G36*
X102849Y188424D02*
X102910Y188254D01*
X103010Y188104D01*
X103151Y187974D01*
X103332Y187864D01*
X103554Y187774D01*
X103815Y187704D01*
X104117Y187654D01*
X104459Y187624D01*
X104841Y187614D01*
Y185614D01*
X104459Y185604D01*
X104117Y185574D01*
X103815Y185524D01*
X103554Y185454D01*
X103332Y185364D01*
X103151Y185254D01*
X103010Y185124D01*
X102910Y184974D01*
X102849Y184804D01*
X102829Y184614D01*
Y188614D01*
X102849Y188424D01*
D02*
G37*
G36*
X122958Y184614D02*
X122938Y184804D01*
X122878Y184974D01*
X122777Y185124D01*
X122636Y185254D01*
X122455Y185364D01*
X122234Y185454D01*
X121972Y185524D01*
X121670Y185574D01*
X121328Y185604D01*
X120946Y185614D01*
Y187614D01*
X121328Y187624D01*
X121670Y187654D01*
X121972Y187704D01*
X122234Y187774D01*
X122455Y187864D01*
X122636Y187974D01*
X122777Y188104D01*
X122878Y188254D01*
X122938Y188424D01*
X122958Y188614D01*
Y184614D01*
D02*
G37*
G36*
X68141Y172373D02*
X68184Y172070D01*
X68256Y171769D01*
X68358Y171470D01*
X68489Y171173D01*
X68648Y170879D01*
X68836Y170587D01*
X69054Y170297D01*
X69301Y170009D01*
X69576Y169724D01*
X64676D01*
X64951Y170009D01*
X65198Y170297D01*
X65416Y170587D01*
X65604Y170879D01*
X65763Y171173D01*
X65894Y171470D01*
X65996Y171769D01*
X66068Y172070D01*
X66111Y172373D01*
X66126Y172678D01*
X68126D01*
X68141Y172373D01*
D02*
G37*
G36*
X96974Y184614D02*
X96954Y184804D01*
X96893Y184974D01*
X96793Y185124D01*
X96652Y185254D01*
X96471Y185364D01*
X96250Y185454D01*
X95988Y185524D01*
X95686Y185574D01*
X95344Y185604D01*
X94962Y185614D01*
Y187614D01*
X95344Y187624D01*
X95686Y187654D01*
X95988Y187704D01*
X96250Y187774D01*
X96471Y187864D01*
X96652Y187974D01*
X96793Y188104D01*
X96893Y188254D01*
X96954Y188424D01*
X96974Y188614D01*
Y184614D01*
D02*
G37*
G36*
X74475Y148369D02*
X74507Y148100D01*
X74561Y147839D01*
X74635Y147584D01*
X74731Y147336D01*
X74849Y147096D01*
X74987Y146862D01*
X75147Y146635D01*
X75329Y146416D01*
X75532Y146203D01*
X71398D01*
X71600Y146416D01*
X71782Y146635D01*
X71942Y146862D01*
X72080Y147096D01*
X72198Y147336D01*
X72294Y147584D01*
X72369Y147839D01*
X72422Y148100D01*
X72454Y148369D01*
X72465Y148644D01*
X74465D01*
X74475Y148369D01*
D02*
G37*
G36*
X18504Y52306D02*
X14370D01*
X14383Y52336D01*
X14394Y52400D01*
X14404Y52498D01*
X14426Y52998D01*
X14437Y54141D01*
X18437D01*
X18504Y52306D01*
D02*
G37*
D33*
X4138Y199567D02*
X208362D01*
X239772Y294193D02*
Y351193D01*
Y294193D02*
X246272Y287693D01*
X273772D01*
X276772Y290693D01*
Y295193D01*
X240272Y358193D02*
X245772Y363693D01*
X268272D01*
X276772Y355193D01*
X132398Y281500D02*
X132898D01*
Y311500D01*
X161398Y313000D02*
X167398Y307000D01*
X132898Y311500D02*
X134398Y313000D01*
X161398D01*
X40256Y170571D02*
Y177657D01*
X45374Y182776D01*
X45669Y182480D01*
X58563D01*
X16437Y38484D02*
X17618Y39665D01*
X16437Y50197D02*
Y54921D01*
X20768Y59252D01*
X42323D01*
X50098Y51476D01*
D34*
X260772Y318693D02*
X272319Y330240D01*
Y337037D01*
X276772Y341490D01*
Y345193D01*
X244772Y297193D02*
X268772D01*
X254772Y315193D02*
X276772D01*
X268772Y297193D02*
X276772Y305193D01*
X79213Y313362D02*
Y329862D01*
X71213Y305362D02*
X79213Y313362D01*
X86213Y305362D02*
X88213Y303362D01*
Y277862D02*
Y303362D01*
X71213Y305362D02*
X86213D01*
X73713Y323362D02*
X74213Y322862D01*
Y313862D02*
Y322862D01*
X70713Y310362D02*
X74213Y313862D01*
X59327Y337248D02*
X64213Y332362D01*
Y294362D02*
Y332362D01*
Y294362D02*
X77213Y281362D01*
Y279362D02*
Y281362D01*
X138398Y306500D02*
X157898D01*
X159898Y304500D01*
Y302500D02*
Y304500D01*
D35*
X51213Y290362D02*
X51713Y290862D01*
Y329362D01*
X40213Y359236D02*
X46213Y353236D01*
Y289352D02*
Y353236D01*
Y289352D02*
X47713Y287852D01*
X51213Y269362D02*
Y290362D01*
X50713Y268862D02*
X51213Y269362D01*
X47713Y274362D02*
Y287852D01*
X43213Y269862D02*
X47713Y274362D01*
X32713Y269862D02*
X43213D01*
X132776Y144783D02*
X176378D01*
X125689Y137697D02*
X132776Y144783D01*
X95374Y137697D02*
X125689D01*
X83012Y125335D02*
X95374Y137697D01*
X24213Y125335D02*
X83012D01*
X17618Y118740D02*
X24213Y125335D01*
X17618Y128740D02*
X22539Y133661D01*
X86221D01*
X95079Y142520D01*
X67126Y167224D02*
X73465Y160886D01*
Y144095D02*
Y160886D01*
X74902Y186614D02*
X100394D01*
X67126Y178839D02*
X74902Y186614D01*
X67126Y167224D02*
Y178839D01*
X100394Y186614D02*
X126378D01*
X95079Y142520D02*
X111024D01*
X83465Y144095D02*
Y154429D01*
X93799Y164764D01*
X105413D01*
X109843Y160335D01*
X119980D01*
X124114Y156201D01*
D36*
X150787Y89311D02*
Y92421D01*
X124803Y118405D02*
X150787Y92421D01*
X118996Y118405D02*
X124803D01*
X110138Y124311D02*
X114469Y128642D01*
X110138Y111909D02*
Y124311D01*
X108465Y127067D02*
X112992Y131595D01*
X108465Y115059D02*
Y127067D01*
X141457Y128642D02*
X150787Y119311D01*
X114469Y128642D02*
X141457D01*
X148504Y131595D02*
X150787Y129311D01*
X112992Y131595D02*
X148504D01*
X146791Y109311D02*
X150787D01*
X129921Y126181D02*
X146791Y109311D01*
X116240Y126181D02*
X129921D01*
X112008Y121949D02*
X116240Y126181D01*
X112008Y115354D02*
Y121949D01*
X126969Y123130D02*
X150787Y99311D01*
X117421Y123130D02*
X126969D01*
X114075Y119783D02*
X117421Y123130D01*
X114075Y111811D02*
Y119783D01*
X116142Y115551D02*
X118996Y118405D01*
X110138Y111909D02*
X110236Y112008D01*
D38*
X74803Y223228D02*
D03*
X240945D02*
D03*
D39*
X276772Y295193D02*
D03*
Y305193D02*
D03*
Y315193D02*
D03*
Y325193D02*
D03*
Y345193D02*
D03*
Y335193D02*
D03*
X82213Y357862D02*
D03*
X72213D02*
D03*
X13713Y340362D02*
D03*
Y350362D02*
D03*
X12713Y269862D02*
D03*
X22713D02*
D03*
X243079Y258795D02*
D03*
Y248795D02*
D03*
Y238795D02*
D03*
X227079Y258795D02*
D03*
Y248795D02*
D03*
Y238795D02*
D03*
X163386Y129449D02*
D03*
Y119449D02*
D03*
Y109449D02*
D03*
Y99449D02*
D03*
Y89449D02*
D03*
Y79449D02*
D03*
Y69449D02*
D03*
Y59449D02*
D03*
Y49449D02*
D03*
Y39449D02*
D03*
Y29449D02*
D03*
X16437Y50197D02*
D03*
Y38484D02*
D03*
X179410Y79449D02*
D03*
Y69449D02*
D03*
Y59449D02*
D03*
Y49449D02*
D03*
X102776Y20177D02*
D03*
X92776D02*
D03*
X82776D02*
D03*
X135827Y168012D02*
D03*
X135138Y48917D02*
D03*
X145138D02*
D03*
X150787Y129311D02*
D03*
Y119311D02*
D03*
Y109311D02*
D03*
Y99311D02*
D03*
X17618Y118740D02*
D03*
Y128740D02*
D03*
Y138740D02*
D03*
X73465Y144095D02*
D03*
X63465D02*
D03*
X157370Y341248D02*
D03*
Y351248D02*
D03*
X167398Y297000D02*
D03*
Y287000D02*
D03*
Y277000D02*
D03*
X138398Y296500D02*
D03*
X24193Y293862D02*
D03*
X114713D02*
D03*
X24193Y364728D02*
D03*
X114713D02*
D03*
D40*
X276772Y355193D02*
D03*
X13713Y360362D02*
D03*
X243079Y268795D02*
D03*
X227079D02*
D03*
X163386Y19449D02*
D03*
X179410Y39449D02*
D03*
X135827Y158012D02*
D03*
X150787Y89311D02*
D03*
X17618Y148740D02*
D03*
X157370Y361248D02*
D03*
X167398Y307000D02*
D03*
X138398Y306500D02*
D03*
D41*
X62213Y357862D02*
D03*
X32713Y269862D02*
D03*
X26437Y50197D02*
D03*
Y38484D02*
D03*
X72776Y20177D02*
D03*
X125138Y48917D02*
D03*
X83465Y144095D02*
D03*
D42*
X103713Y343488D02*
D03*
Y359236D02*
D03*
X40213D02*
D03*
Y343488D02*
D03*
X41713Y323862D02*
D03*
Y337248D02*
D03*
X39272Y92028D02*
D03*
Y76279D02*
D03*
D43*
X87055Y268535D02*
D03*
X67370D02*
D03*
X77213Y279362D02*
D03*
X69213Y319862D02*
D03*
X79213Y329862D02*
D03*
X151969Y181102D02*
D03*
X191339D02*
D03*
Y190945D02*
D03*
X151969D02*
D03*
X171654Y161417D02*
D03*
D44*
X69213Y339862D02*
D03*
D45*
X114213Y281862D02*
D03*
X114713Y304362D02*
D03*
Y329862D02*
D03*
X112213Y351862D02*
D03*
X32713Y350362D02*
D03*
X89713Y336362D02*
D03*
X12713Y299362D02*
D03*
X59713Y272362D02*
D03*
X239772Y351193D02*
D03*
X240272Y358193D02*
D03*
X40256Y170571D02*
D03*
X58563Y182480D02*
D03*
D46*
X37106Y16831D02*
D03*
X63091D02*
D03*
X38878Y48327D02*
D03*
X61319D02*
D03*
X101673Y156201D02*
D03*
X124114D02*
D03*
X99902Y187697D02*
D03*
X125886D02*
D03*
D47*
X50098Y51476D02*
D03*
X112894Y153051D02*
D03*
D48*
X67126Y167224D02*
D03*
D49*
X79528D02*
D03*
D50*
X260772Y318693D02*
D03*
X244772Y297193D02*
D03*
X254772Y315193D02*
D03*
X88213Y277862D02*
D03*
X71213Y305362D02*
D03*
X73713Y323362D02*
D03*
X70713Y310362D02*
D03*
X59327Y337248D02*
D03*
X159898Y302500D02*
D03*
D51*
X51713Y329362D02*
D03*
X50713Y268862D02*
D03*
X51213Y290362D02*
D03*
D52*
X50000Y10925D02*
D03*
Y38484D02*
D03*
X112992Y166043D02*
D03*
Y193602D02*
D03*
D53*
X98524Y74508D02*
D03*
Y78838D02*
D03*
Y83169D02*
D03*
Y87500D02*
D03*
Y91831D02*
D03*
X102854Y74508D02*
D03*
Y78838D02*
D03*
Y83169D02*
D03*
Y87500D02*
D03*
Y91831D02*
D03*
X107185Y74508D02*
D03*
Y78838D02*
D03*
Y83169D02*
D03*
Y87500D02*
D03*
Y91831D02*
D03*
X111516Y74508D02*
D03*
Y78838D02*
D03*
Y83169D02*
D03*
Y87500D02*
D03*
Y91831D02*
D03*
X115847Y74508D02*
D03*
Y78838D02*
D03*
Y83169D02*
D03*
Y87500D02*
D03*
Y91831D02*
D03*
D54*
X132398Y281500D02*
D03*
D55*
X176378Y144783D02*
D03*
X111024Y142520D02*
D03*
D56*
X108465Y115059D02*
D03*
D57*
X112008Y115354D02*
D03*
X116142Y115551D02*
D03*
X114075Y111811D02*
D03*
X110138Y111909D02*
D03*
M02*
