G04 Layer_Color=8388736*
%FSLAX25Y25*%
%MOIN*%
G70*
G01*
G75*
%ADD66R,0.11509X0.05367*%
%ADD67R,0.04658X0.04461*%
%ADD68R,0.04461X0.04658*%
%ADD69R,0.14579X0.09461*%
%ADD70R,0.04737X0.09461*%
%ADD71R,0.02178X0.02768*%
%ADD72O,0.06312X0.03162*%
%ADD73R,0.05249X0.07887*%
%ADD74R,0.05367X0.11509*%
%ADD75R,0.06587X0.05367*%
%ADD76R,0.05524X0.06706*%
%ADD77R,0.23359X0.23359*%
%ADD78R,0.07414X0.01981*%
%ADD79R,0.01981X0.07414*%
G04:AMPARAMS|DCode=80|XSize=44.61mil|YSize=46.58mil|CornerRadius=0mil|HoleSize=0mil|Usage=FLASHONLY|Rotation=45.000|XOffset=0mil|YOffset=0mil|HoleType=Round|Shape=Rectangle|*
%AMROTATEDRECTD80*
4,1,4,0.00070,-0.03224,-0.03224,0.00070,-0.00070,0.03224,0.03224,-0.00070,0.00070,-0.03224,0.0*
%
%ADD80ROTATEDRECTD80*%

%ADD81R,0.03950X0.06706*%
%ADD82R,0.06706X0.03950*%
%ADD83R,0.07887X0.05249*%
%ADD84R,0.05524X0.05131*%
%ADD85R,0.03950X0.05131*%
%ADD86R,0.03950X0.01784*%
%ADD87R,0.01784X0.03950*%
%ADD88R,0.10642X0.10642*%
%ADD89O,1.42532X0.08674*%
%ADD90C,0.06706*%
%ADD91R,0.06706X0.06706*%
%ADD92R,0.06706X0.06706*%
%ADD93C,0.05524*%
%ADD94C,0.07099*%
%ADD95R,0.07099X0.07099*%
%ADD96C,0.04800*%
%ADD97R,0.06706X0.10642*%
%ADD98R,0.10642X0.06706*%
%ADD99C,0.07800*%
%ADD100R,0.07800X0.07800*%
%ADD101C,0.03800*%
%ADD102C,0.05300*%
%ADD103C,0.06312*%
%ADD104C,0.02768*%
%ADD105C,0.05800*%
%ADD106C,0.03300*%
%ADD107C,0.02300*%
%ADD108C,0.02800*%
D66*
X221272Y356728D02*
D03*
Y345114D02*
D03*
X261272Y356728D02*
D03*
Y345114D02*
D03*
D67*
X232272Y357224D02*
D03*
Y351161D02*
D03*
X250272Y351118D02*
D03*
Y357181D02*
D03*
X267272Y326161D02*
D03*
Y332224D02*
D03*
X258772Y326130D02*
D03*
Y332193D02*
D03*
X106713Y273894D02*
D03*
Y267831D02*
D03*
X96713Y287831D02*
D03*
Y293894D02*
D03*
X104213Y293894D02*
D03*
Y287831D02*
D03*
X81046Y287831D02*
D03*
Y293894D02*
D03*
X79463Y322028D02*
D03*
Y315965D02*
D03*
X95713Y322059D02*
D03*
Y315996D02*
D03*
X98213Y273894D02*
D03*
Y267831D02*
D03*
X88879Y287831D02*
D03*
Y293894D02*
D03*
X87713Y322059D02*
D03*
Y315996D02*
D03*
X87008Y128366D02*
D03*
Y134429D02*
D03*
X15256Y164035D02*
D03*
Y170098D02*
D03*
X90945Y31220D02*
D03*
Y37283D02*
D03*
X98827Y31024D02*
D03*
Y37087D02*
D03*
X58858Y76791D02*
D03*
Y82854D02*
D03*
X126431Y33464D02*
D03*
Y39527D02*
D03*
X134025Y33464D02*
D03*
Y39527D02*
D03*
X141619Y33464D02*
D03*
Y39527D02*
D03*
X90847Y44705D02*
D03*
Y50768D02*
D03*
X98622Y44902D02*
D03*
Y50965D02*
D03*
X83366Y44744D02*
D03*
Y50807D02*
D03*
X76083Y44744D02*
D03*
Y50807D02*
D03*
X60138Y134232D02*
D03*
Y128169D02*
D03*
X68799Y134232D02*
D03*
Y128169D02*
D03*
X77756Y134232D02*
D03*
Y128169D02*
D03*
X66142Y76791D02*
D03*
Y82854D02*
D03*
X32743Y164035D02*
D03*
Y170098D02*
D03*
X146870Y353311D02*
D03*
Y347248D02*
D03*
X137398Y280469D02*
D03*
Y286531D02*
D03*
Y273532D02*
D03*
Y267469D02*
D03*
D68*
X259240Y293693D02*
D03*
X265303D02*
D03*
X77181Y347362D02*
D03*
X83244D02*
D03*
X67244Y347362D02*
D03*
X61181D02*
D03*
X98681Y280862D02*
D03*
X104744D02*
D03*
X19181Y278362D02*
D03*
X25244D02*
D03*
X25244Y285862D02*
D03*
X19181D02*
D03*
X25244Y322496D02*
D03*
X19181D02*
D03*
X25244Y330862D02*
D03*
X19181D02*
D03*
X19181Y305762D02*
D03*
X25244D02*
D03*
X19181Y314129D02*
D03*
X25244D02*
D03*
X19118Y77461D02*
D03*
X13055D02*
D03*
X19118Y69717D02*
D03*
X13055D02*
D03*
X199508Y109243D02*
D03*
X193445D02*
D03*
X199508Y119238D02*
D03*
X193445D02*
D03*
X199508Y129232D02*
D03*
X193445D02*
D03*
X199508Y79259D02*
D03*
X193445D02*
D03*
X199508Y69265D02*
D03*
X193445D02*
D03*
X199508Y99248D02*
D03*
X193445D02*
D03*
X199508Y89254D02*
D03*
X193445D02*
D03*
X199508Y19291D02*
D03*
X193445D02*
D03*
X199508Y29286D02*
D03*
X193445D02*
D03*
X199508Y39281D02*
D03*
X193445D02*
D03*
X199508Y49275D02*
D03*
X193445D02*
D03*
X199508Y59270D02*
D03*
X193445D02*
D03*
X28941Y148721D02*
D03*
X35004D02*
D03*
X28941Y138779D02*
D03*
X35004D02*
D03*
X28425Y27756D02*
D03*
X22362Y27756D02*
D03*
X28425Y20177D02*
D03*
X22362D02*
D03*
X12913Y61909D02*
D03*
X18976D02*
D03*
X19173Y85236D02*
D03*
X13110D02*
D03*
X140839Y339780D02*
D03*
X146902D02*
D03*
X147866Y308500D02*
D03*
X153929D02*
D03*
X147898Y301000D02*
D03*
X153961D02*
D03*
X147898Y293500D02*
D03*
X153961D02*
D03*
D69*
X240772Y316882D02*
D03*
D70*
X249827Y340504D02*
D03*
X240772D02*
D03*
X231716D02*
D03*
D71*
X267370Y309461D02*
D03*
X264220D02*
D03*
X261071D02*
D03*
X257921D02*
D03*
X254772D02*
D03*
X251622D02*
D03*
X248472D02*
D03*
Y301193D02*
D03*
X251622D02*
D03*
X254772D02*
D03*
X257921D02*
D03*
X261071D02*
D03*
X264220D02*
D03*
X267370D02*
D03*
D72*
X35984Y310362D02*
D03*
Y305362D02*
D03*
Y300362D02*
D03*
Y295362D02*
D03*
Y290362D02*
D03*
Y285362D02*
D03*
Y280362D02*
D03*
X59213D02*
D03*
Y285362D02*
D03*
Y290362D02*
D03*
Y295362D02*
D03*
Y300362D02*
D03*
Y305362D02*
D03*
Y310362D02*
D03*
Y315362D02*
D03*
X35984D02*
D03*
D73*
X80847Y305862D02*
D03*
X92579D02*
D03*
X29764Y113386D02*
D03*
X41496D02*
D03*
X29862Y127756D02*
D03*
X41594D02*
D03*
X13130Y9154D02*
D03*
X24862D02*
D03*
X9193Y94587D02*
D03*
X20925D02*
D03*
D74*
X103405Y318862D02*
D03*
X115020D02*
D03*
D75*
X30807Y64331D02*
D03*
Y57323D02*
D03*
D76*
X115650Y35315D02*
D03*
Y50276D02*
D03*
X106988D02*
D03*
Y35315D02*
D03*
D77*
X107185Y83169D02*
D03*
D78*
X122933Y93996D02*
D03*
Y92027D02*
D03*
Y90059D02*
D03*
Y88090D02*
D03*
Y86122D02*
D03*
Y84153D02*
D03*
Y82185D02*
D03*
Y80216D02*
D03*
Y78248D02*
D03*
Y76279D02*
D03*
Y74311D02*
D03*
Y72342D02*
D03*
X91536Y72342D02*
D03*
Y74311D02*
D03*
Y76279D02*
D03*
Y78248D02*
D03*
Y80216D02*
D03*
Y82185D02*
D03*
Y84153D02*
D03*
Y86122D02*
D03*
Y88090D02*
D03*
Y90059D02*
D03*
Y92028D02*
D03*
Y93996D02*
D03*
D79*
X118012Y67520D02*
D03*
X116043D02*
D03*
X114075D02*
D03*
X112106D02*
D03*
X110138D02*
D03*
X108169D02*
D03*
X106201D02*
D03*
X104232D02*
D03*
X102264D02*
D03*
X100295D02*
D03*
X98327D02*
D03*
X96358D02*
D03*
Y98819D02*
D03*
X98327D02*
D03*
X100295D02*
D03*
X102264D02*
D03*
X104232D02*
D03*
X106201D02*
D03*
X108169D02*
D03*
X110138D02*
D03*
X112106D02*
D03*
X114075D02*
D03*
X116043D02*
D03*
X118012D02*
D03*
D80*
X55392Y68876D02*
D03*
X51104Y64589D02*
D03*
D81*
X191339Y161417D02*
D03*
X181496D02*
D03*
X151969D02*
D03*
X161811D02*
D03*
D82*
X171654Y181102D02*
D03*
D83*
X23917Y178209D02*
D03*
Y166476D02*
D03*
D84*
X137705Y362224D02*
D03*
D85*
X139870Y348248D02*
D03*
X135539D02*
D03*
D86*
X158772Y273079D02*
D03*
Y275047D02*
D03*
Y277016D02*
D03*
Y278984D02*
D03*
Y280953D02*
D03*
Y282921D02*
D03*
X143024D02*
D03*
Y280953D02*
D03*
Y278984D02*
D03*
Y277016D02*
D03*
Y275047D02*
D03*
Y273079D02*
D03*
D87*
X145976Y285874D02*
D03*
X147945D02*
D03*
X149913D02*
D03*
X151882D02*
D03*
X153850D02*
D03*
X155819D02*
D03*
X145976Y270126D02*
D03*
X147945D02*
D03*
X149913D02*
D03*
X151882D02*
D03*
X153850D02*
D03*
X155819D02*
D03*
D88*
X150898Y278000D02*
D03*
D89*
X74803Y223228D02*
D03*
X240945D02*
D03*
D90*
X276772Y295193D02*
D03*
Y305193D02*
D03*
Y315193D02*
D03*
Y325193D02*
D03*
Y345193D02*
D03*
Y335193D02*
D03*
X82213Y357862D02*
D03*
X72213D02*
D03*
X13713Y340362D02*
D03*
Y350362D02*
D03*
X12713Y269862D02*
D03*
X22713D02*
D03*
X243079Y258795D02*
D03*
Y248795D02*
D03*
Y238795D02*
D03*
X227079Y258795D02*
D03*
Y248795D02*
D03*
Y238795D02*
D03*
X163386Y129449D02*
D03*
Y119449D02*
D03*
Y109449D02*
D03*
Y99449D02*
D03*
Y89449D02*
D03*
Y79449D02*
D03*
Y69449D02*
D03*
Y59449D02*
D03*
Y49449D02*
D03*
Y39449D02*
D03*
Y29449D02*
D03*
X16437Y50197D02*
D03*
Y38484D02*
D03*
X179410Y79449D02*
D03*
Y69449D02*
D03*
Y59449D02*
D03*
Y49449D02*
D03*
X102776Y20177D02*
D03*
X92776D02*
D03*
X82776D02*
D03*
X135827Y168012D02*
D03*
X135138Y48917D02*
D03*
X145138D02*
D03*
X150787Y129311D02*
D03*
Y119311D02*
D03*
Y109311D02*
D03*
Y99311D02*
D03*
X17618Y118740D02*
D03*
Y128740D02*
D03*
Y138740D02*
D03*
X73465Y144095D02*
D03*
X63465D02*
D03*
X157370Y341248D02*
D03*
Y351248D02*
D03*
X167398Y297000D02*
D03*
Y287000D02*
D03*
Y277000D02*
D03*
X138398Y296500D02*
D03*
X24193Y293862D02*
D03*
X114713D02*
D03*
X24193Y364728D02*
D03*
X114713D02*
D03*
D91*
X276772Y355193D02*
D03*
X13713Y360362D02*
D03*
X243079Y268795D02*
D03*
X227079D02*
D03*
X163386Y19449D02*
D03*
X179410Y39449D02*
D03*
X135827Y158012D02*
D03*
X150787Y89311D02*
D03*
X17618Y148740D02*
D03*
X157370Y361248D02*
D03*
X167398Y307000D02*
D03*
X138398Y306500D02*
D03*
D92*
X62213Y357862D02*
D03*
X32713Y269862D02*
D03*
X26437Y50197D02*
D03*
Y38484D02*
D03*
X72776Y20177D02*
D03*
X125138Y48917D02*
D03*
X83465Y144095D02*
D03*
D93*
X103713Y343488D02*
D03*
Y359236D02*
D03*
X40213D02*
D03*
Y343488D02*
D03*
X41713Y323862D02*
D03*
Y337248D02*
D03*
X39272Y92028D02*
D03*
Y76279D02*
D03*
D94*
X87055Y268535D02*
D03*
X67370D02*
D03*
X77213Y279362D02*
D03*
X69213Y319862D02*
D03*
X79213Y329862D02*
D03*
X151969Y181102D02*
D03*
X191339D02*
D03*
Y190945D02*
D03*
X151969D02*
D03*
X171654Y161417D02*
D03*
D95*
X69213Y339862D02*
D03*
D96*
X114213Y281862D02*
D03*
X114713Y304362D02*
D03*
Y329862D02*
D03*
X112213Y351862D02*
D03*
X32713Y350362D02*
D03*
X89713Y336362D02*
D03*
X12713Y299362D02*
D03*
X59713Y272362D02*
D03*
X239772Y351193D02*
D03*
X240272Y358193D02*
D03*
X40256Y170571D02*
D03*
X58563Y182480D02*
D03*
D97*
X37106Y16831D02*
D03*
X63091D02*
D03*
X38878Y48327D02*
D03*
X61319D02*
D03*
X101673Y156201D02*
D03*
X124114D02*
D03*
X99902Y187697D02*
D03*
X125886D02*
D03*
D98*
X50098Y51476D02*
D03*
X112894Y153051D02*
D03*
D99*
X67126Y167224D02*
D03*
D100*
X79528D02*
D03*
D101*
X260772Y318693D02*
D03*
X244772Y297193D02*
D03*
X254772Y315193D02*
D03*
X88213Y277862D02*
D03*
X71213Y305362D02*
D03*
X73713Y323362D02*
D03*
X70713Y310362D02*
D03*
X59327Y337248D02*
D03*
X159898Y302500D02*
D03*
D102*
X51713Y329362D02*
D03*
X50713Y268862D02*
D03*
X51213Y290362D02*
D03*
D103*
X50000Y10925D02*
D03*
Y38484D02*
D03*
X112992Y166043D02*
D03*
Y193602D02*
D03*
D104*
X98524Y74508D02*
D03*
Y78838D02*
D03*
Y83169D02*
D03*
Y87500D02*
D03*
Y91831D02*
D03*
X102854Y74508D02*
D03*
Y78838D02*
D03*
Y83169D02*
D03*
Y87500D02*
D03*
Y91831D02*
D03*
X107185Y74508D02*
D03*
Y78838D02*
D03*
Y83169D02*
D03*
Y87500D02*
D03*
Y91831D02*
D03*
X111516Y74508D02*
D03*
Y78838D02*
D03*
Y83169D02*
D03*
Y87500D02*
D03*
Y91831D02*
D03*
X115847Y74508D02*
D03*
Y78838D02*
D03*
Y83169D02*
D03*
Y87500D02*
D03*
Y91831D02*
D03*
D105*
X132398Y281500D02*
D03*
D106*
X176378Y144783D02*
D03*
X111024Y142520D02*
D03*
D107*
X108465Y115059D02*
D03*
D108*
X112008Y115354D02*
D03*
X116142Y115551D02*
D03*
X114075Y111811D02*
D03*
X110138Y111909D02*
D03*
M02*
