G04 Layer_Color=255*
%FSLAX25Y25*%
%MOIN*%
G70*
G01*
G75*
%ADD38O,1.41732X0.07874*%
%ADD39C,0.05905*%
%ADD40R,0.05905X0.05905*%
%ADD41R,0.05905X0.05905*%
%ADD42C,0.04724*%
%ADD43C,0.06299*%
%ADD44R,0.06299X0.06299*%
%ADD45C,0.04000*%
%ADD46R,0.05905X0.09842*%
%ADD47R,0.09842X0.05905*%
%ADD48C,0.07000*%
%ADD49R,0.07000X0.07000*%
D38*
X74803Y223228D02*
D03*
X240945D02*
D03*
D39*
X276772Y295193D02*
D03*
Y305193D02*
D03*
Y315193D02*
D03*
Y325193D02*
D03*
Y345193D02*
D03*
Y335193D02*
D03*
X82213Y357862D02*
D03*
X72213D02*
D03*
X13713Y340362D02*
D03*
Y350362D02*
D03*
X12713Y269862D02*
D03*
X22713D02*
D03*
X243079Y258795D02*
D03*
Y248795D02*
D03*
Y238795D02*
D03*
X227079Y258795D02*
D03*
Y248795D02*
D03*
Y238795D02*
D03*
X163386Y129449D02*
D03*
Y119449D02*
D03*
Y109449D02*
D03*
Y99449D02*
D03*
Y89449D02*
D03*
Y79449D02*
D03*
Y69449D02*
D03*
Y59449D02*
D03*
Y49449D02*
D03*
Y39449D02*
D03*
Y29449D02*
D03*
X16437Y50197D02*
D03*
Y38484D02*
D03*
X179410Y79449D02*
D03*
Y69449D02*
D03*
Y59449D02*
D03*
Y49449D02*
D03*
X102776Y20177D02*
D03*
X92776D02*
D03*
X82776D02*
D03*
X135827Y168012D02*
D03*
X135138Y48917D02*
D03*
X145138D02*
D03*
X150787Y129311D02*
D03*
Y119311D02*
D03*
Y109311D02*
D03*
Y99311D02*
D03*
X17618Y118740D02*
D03*
Y128740D02*
D03*
Y138740D02*
D03*
X73465Y144095D02*
D03*
X63465D02*
D03*
X157370Y341248D02*
D03*
Y351248D02*
D03*
X167398Y297000D02*
D03*
Y287000D02*
D03*
Y277000D02*
D03*
X138398Y296500D02*
D03*
D40*
X276772Y355193D02*
D03*
X13713Y360362D02*
D03*
X243079Y268795D02*
D03*
X227079D02*
D03*
X163386Y19449D02*
D03*
X179410Y39449D02*
D03*
X135827Y158012D02*
D03*
X150787Y89311D02*
D03*
X17618Y148740D02*
D03*
X157370Y361248D02*
D03*
X167398Y307000D02*
D03*
X138398Y306500D02*
D03*
D41*
X62213Y357862D02*
D03*
X32713Y269862D02*
D03*
X26437Y50197D02*
D03*
Y38484D02*
D03*
X72776Y20177D02*
D03*
X125138Y48917D02*
D03*
X83465Y144095D02*
D03*
D42*
X103713Y343488D02*
D03*
Y359236D02*
D03*
X40213D02*
D03*
Y343488D02*
D03*
X41713Y323862D02*
D03*
Y337248D02*
D03*
X39272Y92028D02*
D03*
Y76279D02*
D03*
D43*
X87055Y268535D02*
D03*
X67370D02*
D03*
X77213Y279362D02*
D03*
X69213Y319862D02*
D03*
X79213Y329862D02*
D03*
X151969Y181102D02*
D03*
X191339D02*
D03*
Y190945D02*
D03*
X151969D02*
D03*
X171654Y161417D02*
D03*
D44*
X69213Y339862D02*
D03*
D45*
X114213Y281862D02*
D03*
X114713Y304362D02*
D03*
Y329862D02*
D03*
X112213Y351862D02*
D03*
X32713Y350362D02*
D03*
X89713Y336362D02*
D03*
X12713Y299362D02*
D03*
X59713Y272362D02*
D03*
D46*
X37106Y16831D02*
D03*
X63091D02*
D03*
X38878Y48327D02*
D03*
X61319D02*
D03*
X101673Y156201D02*
D03*
X124114D02*
D03*
X99902Y187697D02*
D03*
X125886D02*
D03*
D47*
X50098Y51476D02*
D03*
X112894Y153051D02*
D03*
D48*
X67126Y167224D02*
D03*
D49*
X79528D02*
D03*
M02*
