G04 Layer_Color=8421504*
%FSLAX25Y25*%
%MOIN*%
G70*
G01*
G75*
%ADD10R,0.10709X0.04567*%
%ADD11R,0.03858X0.03661*%
%ADD12R,0.03661X0.03858*%
%ADD13R,0.13780X0.08661*%
%ADD14R,0.03937X0.08661*%
%ADD15R,0.01378X0.01968*%
%ADD16O,0.05512X0.02362*%
%ADD17R,0.04449X0.07087*%
%ADD18R,0.04567X0.10709*%
%ADD19R,0.05787X0.04567*%
%ADD20R,0.04724X0.05905*%
%ADD21R,0.22559X0.22559*%
%ADD22R,0.06614X0.01181*%
%ADD23R,0.01181X0.06614*%
G04:AMPARAMS|DCode=24|XSize=36.61mil|YSize=38.58mil|CornerRadius=0mil|HoleSize=0mil|Usage=FLASHONLY|Rotation=45.000|XOffset=0mil|YOffset=0mil|HoleType=Round|Shape=Rectangle|*
%AMROTATEDRECTD24*
4,1,4,0.00070,-0.02659,-0.02659,0.00070,-0.00070,0.02659,0.02659,-0.00070,0.00070,-0.02659,0.0*
%
%ADD24ROTATEDRECTD24*%

%ADD25R,0.03150X0.05905*%
%ADD26R,0.05905X0.03150*%
%ADD27R,0.07087X0.04449*%
%ADD28R,0.04724X0.04331*%
%ADD29R,0.03150X0.04331*%
%ADD30R,0.03150X0.00984*%
%ADD31R,0.00984X0.03150*%
%ADD32R,0.09842X0.09842*%
D10*
X221272Y356728D02*
D03*
Y345114D02*
D03*
X261272Y356728D02*
D03*
Y345114D02*
D03*
D11*
X232272Y357224D02*
D03*
Y351161D02*
D03*
X250272Y351118D02*
D03*
Y357181D02*
D03*
X267272Y326161D02*
D03*
Y332224D02*
D03*
X258772Y326130D02*
D03*
Y332193D02*
D03*
X106713Y273894D02*
D03*
Y267831D02*
D03*
X96713Y287831D02*
D03*
Y293894D02*
D03*
X104213Y293894D02*
D03*
Y287831D02*
D03*
X81046Y287831D02*
D03*
Y293894D02*
D03*
X79463Y322028D02*
D03*
Y315965D02*
D03*
X95713Y322059D02*
D03*
Y315996D02*
D03*
X98213Y273894D02*
D03*
Y267831D02*
D03*
X88879Y287831D02*
D03*
Y293894D02*
D03*
X87713Y322059D02*
D03*
Y315996D02*
D03*
X87008Y128366D02*
D03*
Y134429D02*
D03*
X15256Y164035D02*
D03*
Y170098D02*
D03*
X90945Y31220D02*
D03*
Y37283D02*
D03*
X98827Y31024D02*
D03*
Y37087D02*
D03*
X58858Y76791D02*
D03*
Y82854D02*
D03*
X126431Y33464D02*
D03*
Y39527D02*
D03*
X134025Y33464D02*
D03*
Y39527D02*
D03*
X141619Y33464D02*
D03*
Y39527D02*
D03*
X90847Y44705D02*
D03*
Y50768D02*
D03*
X98622Y44902D02*
D03*
Y50965D02*
D03*
X83366Y44744D02*
D03*
Y50807D02*
D03*
X76083Y44744D02*
D03*
Y50807D02*
D03*
X60138Y134232D02*
D03*
Y128169D02*
D03*
X68799Y134232D02*
D03*
Y128169D02*
D03*
X77756Y134232D02*
D03*
Y128169D02*
D03*
X66142Y76791D02*
D03*
Y82854D02*
D03*
X32743Y164035D02*
D03*
Y170098D02*
D03*
X146870Y353311D02*
D03*
Y347248D02*
D03*
X137398Y280469D02*
D03*
Y286531D02*
D03*
Y273532D02*
D03*
Y267469D02*
D03*
D12*
X259240Y293693D02*
D03*
X265303D02*
D03*
X77181Y347362D02*
D03*
X83244D02*
D03*
X67244Y347362D02*
D03*
X61181D02*
D03*
X98681Y280862D02*
D03*
X104744D02*
D03*
X19181Y278362D02*
D03*
X25244D02*
D03*
X25244Y285862D02*
D03*
X19181D02*
D03*
X25244Y322496D02*
D03*
X19181D02*
D03*
X25244Y330862D02*
D03*
X19181D02*
D03*
X19181Y305762D02*
D03*
X25244D02*
D03*
X19181Y314129D02*
D03*
X25244D02*
D03*
X19118Y77461D02*
D03*
X13055D02*
D03*
X19118Y69717D02*
D03*
X13055D02*
D03*
X199508Y109243D02*
D03*
X193445D02*
D03*
X199508Y119238D02*
D03*
X193445D02*
D03*
X199508Y129232D02*
D03*
X193445D02*
D03*
X199508Y79259D02*
D03*
X193445D02*
D03*
X199508Y69265D02*
D03*
X193445D02*
D03*
X199508Y99248D02*
D03*
X193445D02*
D03*
X199508Y89254D02*
D03*
X193445D02*
D03*
X199508Y19291D02*
D03*
X193445D02*
D03*
X199508Y29286D02*
D03*
X193445D02*
D03*
X199508Y39281D02*
D03*
X193445D02*
D03*
X199508Y49275D02*
D03*
X193445D02*
D03*
X199508Y59270D02*
D03*
X193445D02*
D03*
X28941Y148721D02*
D03*
X35004D02*
D03*
X28941Y138779D02*
D03*
X35004D02*
D03*
X28425Y27756D02*
D03*
X22362Y27756D02*
D03*
X28425Y20177D02*
D03*
X22362D02*
D03*
X12913Y61909D02*
D03*
X18976D02*
D03*
X19173Y85236D02*
D03*
X13110D02*
D03*
X140839Y339780D02*
D03*
X146902D02*
D03*
X147866Y308500D02*
D03*
X153929D02*
D03*
X147898Y301000D02*
D03*
X153961D02*
D03*
X147898Y293500D02*
D03*
X153961D02*
D03*
D13*
X240772Y316882D02*
D03*
D14*
X249827Y340504D02*
D03*
X240772D02*
D03*
X231716D02*
D03*
D15*
X267370Y309461D02*
D03*
X264220D02*
D03*
X261071D02*
D03*
X257921D02*
D03*
X254772D02*
D03*
X251622D02*
D03*
X248472D02*
D03*
Y301193D02*
D03*
X251622D02*
D03*
X254772D02*
D03*
X257921D02*
D03*
X261071D02*
D03*
X264220D02*
D03*
X267370D02*
D03*
D16*
X35984Y310362D02*
D03*
Y305362D02*
D03*
Y300362D02*
D03*
Y295362D02*
D03*
Y290362D02*
D03*
Y285362D02*
D03*
Y280362D02*
D03*
X59213D02*
D03*
Y285362D02*
D03*
Y290362D02*
D03*
Y295362D02*
D03*
Y300362D02*
D03*
Y305362D02*
D03*
Y310362D02*
D03*
Y315362D02*
D03*
X35984D02*
D03*
D17*
X80847Y305862D02*
D03*
X92579D02*
D03*
X29764Y113386D02*
D03*
X41496D02*
D03*
X29862Y127756D02*
D03*
X41594D02*
D03*
X13130Y9154D02*
D03*
X24862D02*
D03*
X9193Y94587D02*
D03*
X20925D02*
D03*
D18*
X103405Y318862D02*
D03*
X115020D02*
D03*
D19*
X30807Y64331D02*
D03*
Y57323D02*
D03*
D20*
X115650Y35315D02*
D03*
Y50276D02*
D03*
X106988D02*
D03*
Y35315D02*
D03*
D21*
X107185Y83169D02*
D03*
D22*
X122933Y93996D02*
D03*
Y92027D02*
D03*
Y90059D02*
D03*
Y88090D02*
D03*
Y86122D02*
D03*
Y84153D02*
D03*
Y82185D02*
D03*
Y80216D02*
D03*
Y78248D02*
D03*
Y76279D02*
D03*
Y74311D02*
D03*
Y72342D02*
D03*
X91536Y72342D02*
D03*
Y74311D02*
D03*
Y76279D02*
D03*
Y78248D02*
D03*
Y80216D02*
D03*
Y82185D02*
D03*
Y84153D02*
D03*
Y86122D02*
D03*
Y88090D02*
D03*
Y90059D02*
D03*
Y92028D02*
D03*
Y93996D02*
D03*
D23*
X118012Y67520D02*
D03*
X116043D02*
D03*
X114075D02*
D03*
X112106D02*
D03*
X110138D02*
D03*
X108169D02*
D03*
X106201D02*
D03*
X104232D02*
D03*
X102264D02*
D03*
X100295D02*
D03*
X98327D02*
D03*
X96358D02*
D03*
Y98819D02*
D03*
X98327D02*
D03*
X100295D02*
D03*
X102264D02*
D03*
X104232D02*
D03*
X106201D02*
D03*
X108169D02*
D03*
X110138D02*
D03*
X112106D02*
D03*
X114075D02*
D03*
X116043D02*
D03*
X118012D02*
D03*
D24*
X55392Y68876D02*
D03*
X51104Y64589D02*
D03*
D25*
X191339Y161417D02*
D03*
X181496D02*
D03*
X151969D02*
D03*
X161811D02*
D03*
D26*
X171654Y181102D02*
D03*
D27*
X23917Y178209D02*
D03*
Y166476D02*
D03*
D28*
X137705Y362224D02*
D03*
D29*
X139870Y348248D02*
D03*
X135539D02*
D03*
D30*
X158772Y273079D02*
D03*
Y275047D02*
D03*
Y277016D02*
D03*
Y278984D02*
D03*
Y280953D02*
D03*
Y282921D02*
D03*
X143024D02*
D03*
Y280953D02*
D03*
Y278984D02*
D03*
Y277016D02*
D03*
Y275047D02*
D03*
Y273079D02*
D03*
D31*
X145976Y285874D02*
D03*
X147945D02*
D03*
X149913D02*
D03*
X151882D02*
D03*
X153850D02*
D03*
X155819D02*
D03*
X145976Y270126D02*
D03*
X147945D02*
D03*
X149913D02*
D03*
X151882D02*
D03*
X153850D02*
D03*
X155819D02*
D03*
D32*
X150898Y278000D02*
D03*
M02*
