M48
;Layer_Color=9474304
;FILE_FORMAT=2:5
INCH,LZ
;TYPE=PLATED
T1F00S00C0.00787
T2F00S00C0.01000
T3F00S00C0.01500
T4F00S00C0.02000
T5F00S00C0.02756
T6F00S00C0.02800
T7F00S00C0.03543
T8F00S00C0.03937
T10F00S00C0.04000
T11F00S00C0.05512
T12F00S00C0.05906
%
T01
X0098524Y0074508
Y0078838
X0102854
Y0074508
X0107185
Y0078838
Y0083169
X0102854
X0098524
Y00875
Y0091831
X0102854
Y00875
X0107185
Y0091831
X0111516
Y00875
X0115847
Y0091831
Y0083169
X0111516
Y0078838
Y0074508
X0115847
Y0078838
T02
X0110138Y0111909
X0114075Y0111811
X0112008Y0115354
X0108465Y0115059
X0116142Y0115551
X0111024Y014252
X0176378Y0144783
T03
X0088213Y0277862
X0071213Y0305362
X0070713Y0310362
X0073713Y0323362
X0059327Y0337248
X0159898Y03025
X0244772Y0297193
X0254772Y0315193
X0260772Y0318693
T04
X0058563Y018248
X0040256Y0170571
X0050713Y0268862
X0051213Y0290362
X0051713Y0329362
X0032713Y0350362
X0012713Y0299362
X0059713Y0272362
X0114213Y0281862
X0114713Y0304362
Y0329862
X0112213Y0351862
X0089713Y0336362
X0239772Y0351193
X0240272Y0358193
T05
X0039272Y0076279
Y0092028
X0041713Y0323862
Y0337248
X0040213Y0343488
Y0359236
X0103713
Y0343488
T06
X0132398Y02815
T07
X0016437Y0038484
X0026437
Y0050197
X0016437
X0072776Y0020177
X0082776
X0092776
X0102776
X0125138Y0048917
X0135138
X0145138
X0163386Y0049449
Y0039449
Y0029449
Y0019449
X017941Y0039449
Y0049449
Y0059449
Y0069449
Y0079449
X0163386
Y0089449
Y0099449
Y0109449
Y0119449
Y0129449
X0150787Y0129311
Y0119311
Y0109311
Y0099311
Y0089311
X0163386Y0069449
Y0059449
X0135827Y0158012
Y0168012
X0083465Y0144095
X0073465
X0063465
X0017618Y014874
Y013874
Y012874
Y011874
X0012713Y0269862
X0022713
X0032713
X0013713Y0340362
Y0350362
Y0360362
X0062213Y0357862
X0072213
X0082213
X015737Y0361248
Y0351248
Y0341248
X0167398Y0307
Y0297
Y0287
Y0277
X0138398Y02965
Y03065
X0227079Y0268795
Y0258795
Y0248795
Y0238795
X0243079
Y0248795
Y0258795
Y0268795
X0276772Y0295193
Y0305193
Y0315193
Y0325193
Y0335193
Y0345193
Y0355193
T08
X0151969Y0181102
Y0190945
X0191339
Y0181102
X0171654Y0161417
X0087055Y0268535
X006737
X0077213Y0279362
X0069213Y0319862
X0079213Y0329862
X0069213Y0339862
T10
X0067126Y0167224
X0079528
T11
X005Y0010925
Y0038484
X0112992Y0166043
Y0193602
T12
X0024193Y0293862
Y0364728
X0114713
Y0293862
M30
