G04 Layer_Color=2752767*
%FSLAX25Y25*%
%MOIN*%
G70*
G01*
G75*
%ADD10C,0.00394*%
%ADD11C,0.00197*%
%ADD12C,0.00200*%
%ADD13C,0.00267*%
%ADD14C,0.00133*%
D10*
X119390Y93405D02*
G03*
X119390Y93405I-1969J0D01*
G01*
X227583Y335976D02*
X253961D01*
X227583Y321410D02*
X253961D01*
Y335976D01*
X227583Y321410D02*
Y335976D01*
X93405Y69390D02*
Y96949D01*
X120965Y69390D02*
Y96949D01*
X93405Y69390D02*
X120965D01*
X93405Y96949D02*
X120965D01*
X93276Y48504D02*
X94457Y47323D01*
X92882Y47717D02*
X94063Y46535D01*
X90847Y46161D02*
Y49311D01*
X89272Y48524D02*
X92421D01*
X89272Y46949D02*
X90847Y48524D01*
X92421Y46949D01*
X89272D02*
X92421D01*
X101051Y48701D02*
X102232Y47520D01*
X100657Y47913D02*
X101839Y46732D01*
X98622Y46358D02*
Y49508D01*
X97047Y48720D02*
X100197D01*
X97047Y47146D02*
X98622Y48720D01*
X100197Y47146D01*
X97047D02*
X100197D01*
X105217Y83169D02*
X109154D01*
X107185Y81201D02*
Y85138D01*
D11*
X91043Y67027D02*
Y99311D01*
X123327Y67027D02*
Y99311D01*
X91043Y67027D02*
X123327D01*
X91043Y99311D02*
X123327D01*
D12*
X74003Y222428D02*
Y224028D01*
X75603D01*
Y222428D01*
X74003D01*
X240145D02*
Y224028D01*
X241745D01*
Y222428D01*
X240145D01*
X103713Y342688D02*
X102913Y344288D01*
X104513D01*
X103713Y342688D01*
Y358436D02*
X102913Y360036D01*
X104513D01*
X103713Y358436D01*
X40213D02*
X39413Y360036D01*
X41013D01*
X40213Y358436D01*
Y342688D02*
X39413Y344288D01*
X41013D01*
X40213Y342688D01*
X87055Y267735D02*
X87455Y268135D01*
X87855D01*
X87455Y268535D01*
X87855Y268935D01*
X87455D01*
X87055Y269335D01*
X86655Y268935D01*
X86255D01*
X86655Y268535D01*
X86255Y268135D01*
X86655D01*
X87055Y267735D01*
X67370D02*
X67770Y268135D01*
X68170D01*
X67770Y268535D01*
X68170Y268935D01*
X67770D01*
X67370Y269335D01*
X66970Y268935D01*
X66570D01*
X66970Y268535D01*
X66570Y268135D01*
X66970D01*
X67370Y267735D01*
X77213Y278562D02*
X77613Y278962D01*
X78013D01*
X77613Y279362D01*
X78013Y279762D01*
X77613D01*
X77213Y280162D01*
X76813Y279762D01*
X76413D01*
X76813Y279362D01*
X76413Y278962D01*
X76813D01*
X77213Y278562D01*
X41713Y323062D02*
X40913Y324662D01*
X42513D01*
X41713Y323062D01*
Y336448D02*
X40913Y338048D01*
X42513D01*
X41713Y336448D01*
X69213Y319062D02*
X69613Y319462D01*
X70013D01*
X69613Y319862D01*
X70013Y320262D01*
X69613D01*
X69213Y320662D01*
X68813Y320262D01*
X68413D01*
X68813Y319862D01*
X68413Y319462D01*
X68813D01*
X69213Y319062D01*
X79213Y329062D02*
X79613Y329462D01*
X80013D01*
X79613Y329862D01*
X80013Y330262D01*
X79613D01*
X79213Y330662D01*
X78813Y330262D01*
X78413D01*
X78813Y329862D01*
X78413Y329462D01*
X78813D01*
X79213Y329062D01*
X69213Y339062D02*
X69613Y339462D01*
X70013D01*
X69613Y339862D01*
X70013Y340262D01*
X69613D01*
X69213Y340662D01*
X68813Y340262D01*
X68413D01*
X68813Y339862D01*
X68413Y339462D01*
X68813D01*
X69213Y339062D01*
X113413Y281062D02*
X113813Y281862D01*
X113413Y282662D01*
X114213Y282262D01*
X115013Y282662D01*
X114613Y281862D01*
X115013Y281062D01*
X114213Y281462D01*
X113413Y281062D01*
X113913Y303562D02*
X114313Y304362D01*
X113913Y305162D01*
X114713Y304762D01*
X115513Y305162D01*
X115113Y304362D01*
X115513Y303562D01*
X114713Y303962D01*
X113913Y303562D01*
Y329062D02*
X114313Y329862D01*
X113913Y330662D01*
X114713Y330262D01*
X115513Y330662D01*
X115113Y329862D01*
X115513Y329062D01*
X114713Y329462D01*
X113913Y329062D01*
X111413Y351062D02*
X111813Y351862D01*
X111413Y352662D01*
X112213Y352262D01*
X113013Y352662D01*
X112613Y351862D01*
X113013Y351062D01*
X112213Y351462D01*
X111413Y351062D01*
X31913Y349562D02*
X32313Y350362D01*
X31913Y351162D01*
X32713Y350762D01*
X33513Y351162D01*
X33113Y350362D01*
X33513Y349562D01*
X32713Y349962D01*
X31913Y349562D01*
X88913Y335562D02*
X89313Y336362D01*
X88913Y337162D01*
X89713Y336762D01*
X90513Y337162D01*
X90113Y336362D01*
X90513Y335562D01*
X89713Y335962D01*
X88913Y335562D01*
X11913Y298562D02*
X12313Y299362D01*
X11913Y300162D01*
X12713Y299762D01*
X13513Y300162D01*
X13113Y299362D01*
X13513Y298562D01*
X12713Y298962D01*
X11913Y298562D01*
X58913Y271562D02*
X59313Y272362D01*
X58913Y273162D01*
X59713Y272762D01*
X60513Y273162D01*
X60113Y272362D01*
X60513Y271562D01*
X59713Y271962D01*
X58913Y271562D01*
X36706Y16431D02*
Y16031D01*
X37506D01*
Y16431D01*
X37906D01*
Y17231D01*
X37506D01*
Y17631D01*
X36706D01*
Y17231D01*
X36306D01*
Y16431D01*
X36706D01*
X62691D02*
Y16031D01*
X63491D01*
Y16431D01*
X63891D01*
Y17231D01*
X63491D01*
Y17631D01*
X62691D01*
Y17231D01*
X62291D01*
Y16431D01*
X62691D01*
X38478Y47927D02*
Y47527D01*
X39278D01*
Y47927D01*
X39678D01*
Y48727D01*
X39278D01*
Y49127D01*
X38478D01*
Y48727D01*
X38078D01*
Y47927D01*
X38478D01*
X60919D02*
Y47527D01*
X61719D01*
Y47927D01*
X62119D01*
Y48727D01*
X61719D01*
Y49127D01*
X60919D01*
Y48727D01*
X60519D01*
Y47927D01*
X60919D01*
X49698Y51076D02*
Y50676D01*
X50498D01*
Y51076D01*
X50898D01*
Y51876D01*
X50498D01*
Y52276D01*
X49698D01*
Y51876D01*
X49298D01*
Y51076D01*
X49698D01*
X151969Y180302D02*
X152368Y180702D01*
X152769D01*
X152368Y181102D01*
X152769Y181502D01*
X152368D01*
X151969Y181902D01*
X151568Y181502D01*
X151169D01*
X151568Y181102D01*
X151169Y180702D01*
X151568D01*
X151969Y180302D01*
X191339D02*
X191739Y180702D01*
X192139D01*
X191739Y181102D01*
X192139Y181502D01*
X191739D01*
X191339Y181902D01*
X190939Y181502D01*
X190539D01*
X190939Y181102D01*
X190539Y180702D01*
X190939D01*
X191339Y180302D01*
Y190145D02*
X191739Y190545D01*
X192139D01*
X191739Y190945D01*
X192139Y191345D01*
X191739D01*
X191339Y191745D01*
X190939Y191345D01*
X190539D01*
X190939Y190945D01*
X190539Y190545D01*
X190939D01*
X191339Y190145D01*
X151969D02*
X152368Y190545D01*
X152769D01*
X152368Y190945D01*
X152769Y191345D01*
X152368D01*
X151969Y191745D01*
X151568Y191345D01*
X151169D01*
X151568Y190945D01*
X151169Y190545D01*
X151568D01*
X151969Y190145D01*
X171654Y160617D02*
X172054Y161017D01*
X172454D01*
X172054Y161417D01*
X172454Y161817D01*
X172054D01*
X171654Y162217D01*
X171254Y161817D01*
X170854D01*
X171254Y161417D01*
X170854Y161017D01*
X171254D01*
X171654Y160617D01*
X66326Y166424D02*
X66726D01*
X67126Y166824D01*
X67526Y166424D01*
X67926D01*
Y166824D01*
X67526Y167224D01*
X67926Y167624D01*
Y168024D01*
X67526D01*
X67126Y167624D01*
X66726Y168024D01*
X66326D01*
Y167624D01*
X66726Y167224D01*
X66326Y166824D01*
Y166424D01*
X78728D02*
X79128D01*
X79528Y166824D01*
X79928Y166424D01*
X80328D01*
Y166824D01*
X79928Y167224D01*
X80328Y167624D01*
Y168024D01*
X79928D01*
X79528Y167624D01*
X79128Y168024D01*
X78728D01*
Y167624D01*
X79128Y167224D01*
X78728Y166824D01*
Y166424D01*
X112494Y152651D02*
Y152251D01*
X113294D01*
Y152651D01*
X113694D01*
Y153451D01*
X113294D01*
Y153851D01*
X112494D01*
Y153451D01*
X112094D01*
Y152651D01*
X112494D01*
X101273Y155801D02*
Y155401D01*
X102073D01*
Y155801D01*
X102473D01*
Y156601D01*
X102073D01*
Y157001D01*
X101273D01*
Y156601D01*
X100873D01*
Y155801D01*
X101273D01*
X123714D02*
Y155401D01*
X124514D01*
Y155801D01*
X124914D01*
Y156601D01*
X124514D01*
Y157001D01*
X123714D01*
Y156601D01*
X123314D01*
Y155801D01*
X123714D01*
X99502Y187297D02*
Y186897D01*
X100302D01*
Y187297D01*
X100702D01*
Y188097D01*
X100302D01*
Y188497D01*
X99502D01*
Y188097D01*
X99102D01*
Y187297D01*
X99502D01*
X125486D02*
Y186897D01*
X126286D01*
Y187297D01*
X126686D01*
Y188097D01*
X126286D01*
Y188497D01*
X125486D01*
Y188097D01*
X125086D01*
Y187297D01*
X125486D01*
X39272Y91228D02*
X38472Y92828D01*
X40072D01*
X39272Y91228D01*
Y75480D02*
X38472Y77079D01*
X40072D01*
X39272Y75480D01*
X259972Y318693D02*
X260772Y319493D01*
X261572Y318693D01*
X260772Y317893D01*
X259972Y318693D01*
X238972Y350393D02*
X239372Y351193D01*
X238972Y351993D01*
X239772Y351593D01*
X240572Y351993D01*
X240172Y351193D01*
X240572Y350393D01*
X239772Y350793D01*
X238972Y350393D01*
X239472Y357393D02*
X239872Y358193D01*
X239472Y358993D01*
X240272Y358593D01*
X241072Y358993D01*
X240672Y358193D01*
X241072Y357393D01*
X240272Y357793D01*
X239472Y357393D01*
X243972Y297193D02*
X244772Y297993D01*
X245572Y297193D01*
X244772Y296393D01*
X243972Y297193D01*
X253972Y315193D02*
X254772Y315993D01*
X255572Y315193D01*
X254772Y314393D01*
X253972Y315193D01*
X87413Y277862D02*
X88213Y278662D01*
X89013Y277862D01*
X88213Y277062D01*
X87413Y277862D01*
X70413Y305362D02*
X71213Y306162D01*
X72013Y305362D01*
X71213Y304562D01*
X70413Y305362D01*
X50913Y328562D02*
X51313Y329362D01*
X50913Y330162D01*
X51713Y329762D01*
X52513Y330162D01*
X52113Y329362D01*
X52513Y328562D01*
X51713Y328962D01*
X50913Y328562D01*
X72913Y323362D02*
X73713Y324162D01*
X74513Y323362D01*
X73713Y322562D01*
X72913Y323362D01*
X69913Y310362D02*
X70713Y311162D01*
X71513Y310362D01*
X70713Y309562D01*
X69913Y310362D01*
X49913Y268062D02*
X50313Y268862D01*
X49913Y269662D01*
X50713Y269262D01*
X51513Y269662D01*
X51113Y268862D01*
X51513Y268062D01*
X50713Y268462D01*
X49913Y268062D01*
X50413Y289562D02*
X50813Y290362D01*
X50413Y291162D01*
X51213Y290762D01*
X52013Y291162D01*
X51613Y290362D01*
X52013Y289562D01*
X51213Y289962D01*
X50413Y289562D01*
X58527Y337248D02*
X59327Y338048D01*
X60127Y337248D01*
X59327Y336448D01*
X58527Y337248D01*
X23393Y293062D02*
Y294662D01*
X24993D01*
Y293062D01*
X23393D01*
X23793Y293462D02*
Y294262D01*
X24593D01*
Y293462D01*
X23793D01*
X113913Y293062D02*
Y294662D01*
X115513D01*
Y293062D01*
X113913D01*
X114313Y293462D02*
Y294262D01*
X115113D01*
Y293462D01*
X114313D01*
X23393Y363928D02*
Y365528D01*
X24993D01*
Y363928D01*
X23393D01*
X23793Y364328D02*
Y365128D01*
X24593D01*
Y364328D01*
X23793D01*
X113913Y363928D02*
Y365528D01*
X115513D01*
Y363928D01*
X113913D01*
X114313Y364328D02*
Y365128D01*
X115113D01*
Y364328D01*
X114313D01*
X98524Y73708D02*
X97724Y75308D01*
X99324D01*
X98524Y73708D01*
Y74108D02*
X98124Y74908D01*
X98924D01*
X98524Y74108D01*
Y78039D02*
X97724Y79638D01*
X99324D01*
X98524Y78039D01*
Y78439D02*
X98124Y79238D01*
X98924D01*
X98524Y78439D01*
Y82369D02*
X97724Y83969D01*
X99324D01*
X98524Y82369D01*
Y82769D02*
X98124Y83569D01*
X98924D01*
X98524Y82769D01*
Y86700D02*
X97724Y88300D01*
X99324D01*
X98524Y86700D01*
Y87100D02*
X98124Y87900D01*
X98924D01*
X98524Y87100D01*
Y91031D02*
X97724Y92631D01*
X99324D01*
X98524Y91031D01*
Y91431D02*
X98124Y92231D01*
X98924D01*
X98524Y91431D01*
X102854Y73708D02*
X102054Y75308D01*
X103654D01*
X102854Y73708D01*
Y74108D02*
X102454Y74908D01*
X103254D01*
X102854Y74108D01*
Y78039D02*
X102054Y79638D01*
X103654D01*
X102854Y78039D01*
Y78439D02*
X102454Y79238D01*
X103254D01*
X102854Y78439D01*
Y82369D02*
X102054Y83969D01*
X103654D01*
X102854Y82369D01*
Y82769D02*
X102454Y83569D01*
X103254D01*
X102854Y82769D01*
Y86700D02*
X102054Y88300D01*
X103654D01*
X102854Y86700D01*
Y87100D02*
X102454Y87900D01*
X103254D01*
X102854Y87100D01*
Y91031D02*
X102054Y92631D01*
X103654D01*
X102854Y91031D01*
Y91431D02*
X102454Y92231D01*
X103254D01*
X102854Y91431D01*
X107185Y73708D02*
X106385Y75308D01*
X107985D01*
X107185Y73708D01*
Y74108D02*
X106785Y74908D01*
X107585D01*
X107185Y74108D01*
Y78039D02*
X106385Y79638D01*
X107985D01*
X107185Y78039D01*
Y78439D02*
X106785Y79238D01*
X107585D01*
X107185Y78439D01*
Y82369D02*
X106385Y83969D01*
X107985D01*
X107185Y82369D01*
Y82769D02*
X106785Y83569D01*
X107585D01*
X107185Y82769D01*
Y86700D02*
X106385Y88300D01*
X107985D01*
X107185Y86700D01*
Y87100D02*
X106785Y87900D01*
X107585D01*
X107185Y87100D01*
Y91031D02*
X106385Y92631D01*
X107985D01*
X107185Y91031D01*
Y91431D02*
X106785Y92231D01*
X107585D01*
X107185Y91431D01*
X111516Y73708D02*
X110716Y75308D01*
X112316D01*
X111516Y73708D01*
Y74108D02*
X111116Y74908D01*
X111916D01*
X111516Y74108D01*
Y78039D02*
X110716Y79638D01*
X112316D01*
X111516Y78039D01*
Y78439D02*
X111116Y79238D01*
X111916D01*
X111516Y78439D01*
Y82369D02*
X110716Y83969D01*
X112316D01*
X111516Y82369D01*
Y82769D02*
X111116Y83569D01*
X111916D01*
X111516Y82769D01*
Y86700D02*
X110716Y88300D01*
X112316D01*
X111516Y86700D01*
Y87100D02*
X111116Y87900D01*
X111916D01*
X111516Y87100D01*
Y91031D02*
X110716Y92631D01*
X112316D01*
X111516Y91031D01*
Y91431D02*
X111116Y92231D01*
X111916D01*
X111516Y91431D01*
X115847Y73708D02*
X115047Y75308D01*
X116647D01*
X115847Y73708D01*
Y74108D02*
X115446Y74908D01*
X116246D01*
X115847Y74108D01*
Y78039D02*
X115047Y79638D01*
X116647D01*
X115847Y78039D01*
Y78439D02*
X115446Y79238D01*
X116246D01*
X115847Y78439D01*
Y82369D02*
X115047Y83969D01*
X116647D01*
X115847Y82369D01*
Y82769D02*
X115446Y83569D01*
X116246D01*
X115847Y82769D01*
Y86700D02*
X115047Y88300D01*
X116647D01*
X115847Y86700D01*
Y87100D02*
X115446Y87900D01*
X116246D01*
X115847Y87100D01*
Y91031D02*
X115047Y92631D01*
X116647D01*
X115847Y91031D01*
Y91431D02*
X115446Y92231D01*
X116246D01*
X115847Y91431D01*
X159098Y302500D02*
X159898Y303300D01*
X160698Y302500D01*
X159898Y301700D01*
X159098Y302500D01*
X132398Y280700D02*
X132798Y281100D01*
X133198D01*
X132798Y281500D01*
X133198Y281900D01*
X132798D01*
X132398Y282300D01*
X131998Y281900D01*
X131598D01*
X131998Y281500D01*
X131598Y281100D01*
X131998D01*
X132398Y280700D01*
Y281100D02*
X132598Y281300D01*
X132798D01*
X132598Y281500D01*
X132798Y281700D01*
X132598D01*
X132398Y281900D01*
X132198Y281700D01*
X131998D01*
X132198Y281500D01*
X131998Y281300D01*
X132198D01*
X132398Y281100D01*
X175578Y143983D02*
X175978Y144783D01*
X175578Y145583D01*
X176378Y145184D01*
X177178Y145583D01*
X176778Y144783D01*
X177178Y143983D01*
X176378Y144384D01*
X175578Y143983D01*
X175978Y144384D02*
X176178Y144783D01*
X175978Y145184D01*
X176378Y144983D01*
X176778Y145184D01*
X176578Y144783D01*
X176778Y144384D01*
X176378Y144583D01*
X175978Y144384D01*
X110224Y141720D02*
X110624Y142520D01*
X110224Y143320D01*
X111024Y142920D01*
X111824Y143320D01*
X111424Y142520D01*
X111824Y141720D01*
X111024Y142120D01*
X110224Y141720D01*
X110624Y142120D02*
X110824Y142520D01*
X110624Y142920D01*
X111024Y142720D01*
X111424Y142920D01*
X111224Y142520D01*
X111424Y142120D01*
X111024Y142320D01*
X110624Y142120D01*
X39456Y169771D02*
X39856Y170571D01*
X39456Y171371D01*
X40256Y170971D01*
X41056Y171371D01*
X40656Y170571D01*
X41056Y169771D01*
X40256Y170171D01*
X39456Y169771D01*
X107665Y114259D02*
X108065Y115059D01*
X107665Y115859D01*
X108465Y115459D01*
X109265Y115859D01*
X108865Y115059D01*
X109265Y114259D01*
X108465Y114659D01*
X107665Y114259D01*
X108065Y114659D02*
X108265Y115059D01*
X108065Y115459D01*
X108465Y115259D01*
X108865Y115459D01*
X108665Y115059D01*
X108865Y114659D01*
X108465Y114859D01*
X108065Y114659D01*
X111208Y114554D02*
X111608Y115354D01*
X111208Y116154D01*
X112008Y115754D01*
X112808Y116154D01*
X112408Y115354D01*
X112808Y114554D01*
X112008Y114954D01*
X111208Y114554D01*
X111608Y114954D02*
X111808Y115354D01*
X111608Y115754D01*
X112008Y115554D01*
X112408Y115754D01*
X112208Y115354D01*
X112408Y114954D01*
X112008Y115154D01*
X111608Y114954D01*
X115342Y114751D02*
X115742Y115551D01*
X115342Y116351D01*
X116142Y115951D01*
X116942Y116351D01*
X116542Y115551D01*
X116942Y114751D01*
X116142Y115151D01*
X115342Y114751D01*
X115742Y115151D02*
X115942Y115551D01*
X115742Y115951D01*
X116142Y115751D01*
X116542Y115951D01*
X116342Y115551D01*
X116542Y115151D01*
X116142Y115351D01*
X115742Y115151D01*
X113275Y111011D02*
X113675Y111811D01*
X113275Y112611D01*
X114075Y112211D01*
X114875Y112611D01*
X114475Y111811D01*
X114875Y111011D01*
X114075Y111411D01*
X113275Y111011D01*
X113675Y111411D02*
X113875Y111811D01*
X113675Y112211D01*
X114075Y112011D01*
X114475Y112211D01*
X114275Y111811D01*
X114475Y111411D01*
X114075Y111611D01*
X113675Y111411D01*
X109338Y111109D02*
X109738Y111909D01*
X109338Y112709D01*
X110138Y112309D01*
X110938Y112709D01*
X110538Y111909D01*
X110938Y111109D01*
X110138Y111509D01*
X109338Y111109D01*
X109738Y111509D02*
X109938Y111909D01*
X109738Y112309D01*
X110138Y112109D01*
X110538Y112309D01*
X110338Y111909D01*
X110538Y111509D01*
X110138Y111709D01*
X109738Y111509D01*
X57763Y181680D02*
X58163Y182480D01*
X57763Y183280D01*
X58563Y182880D01*
X59363Y183280D01*
X58963Y182480D01*
X59363Y181680D01*
X58563Y182080D01*
X57763Y181680D01*
D13*
X277572Y295193D02*
G03*
X277572Y295193I-800J0D01*
G01*
Y305193D02*
G03*
X277572Y305193I-800J0D01*
G01*
Y315193D02*
G03*
X277572Y315193I-800J0D01*
G01*
Y325193D02*
G03*
X277572Y325193I-800J0D01*
G01*
Y345193D02*
G03*
X277572Y345193I-800J0D01*
G01*
Y355193D02*
G03*
X277572Y355193I-800J0D01*
G01*
Y335193D02*
G03*
X277572Y335193I-800J0D01*
G01*
X83013Y357862D02*
G03*
X83013Y357862I-800J0D01*
G01*
X73013D02*
G03*
X73013Y357862I-800J0D01*
G01*
X63013D02*
G03*
X63013Y357862I-800J0D01*
G01*
X14513Y340362D02*
G03*
X14513Y340362I-800J0D01*
G01*
Y350362D02*
G03*
X14513Y350362I-800J0D01*
G01*
Y360362D02*
G03*
X14513Y360362I-800J0D01*
G01*
X13513Y269862D02*
G03*
X13513Y269862I-800J0D01*
G01*
X23513D02*
G03*
X23513Y269862I-800J0D01*
G01*
X33513D02*
G03*
X33513Y269862I-800J0D01*
G01*
X243879Y268795D02*
G03*
X243879Y268795I-800J0D01*
G01*
Y258795D02*
G03*
X243879Y258795I-800J0D01*
G01*
Y248795D02*
G03*
X243879Y248795I-800J0D01*
G01*
Y238795D02*
G03*
X243879Y238795I-800J0D01*
G01*
X227879Y268795D02*
G03*
X227879Y268795I-800J0D01*
G01*
Y258795D02*
G03*
X227879Y258795I-800J0D01*
G01*
Y248795D02*
G03*
X227879Y248795I-800J0D01*
G01*
Y238795D02*
G03*
X227879Y238795I-800J0D01*
G01*
X164186Y129449D02*
G03*
X164186Y129449I-800J0D01*
G01*
Y119449D02*
G03*
X164186Y119449I-800J0D01*
G01*
Y109449D02*
G03*
X164186Y109449I-800J0D01*
G01*
Y99449D02*
G03*
X164186Y99449I-800J0D01*
G01*
Y89449D02*
G03*
X164186Y89449I-800J0D01*
G01*
Y79449D02*
G03*
X164186Y79449I-800J0D01*
G01*
Y69449D02*
G03*
X164186Y69449I-800J0D01*
G01*
Y59449D02*
G03*
X164186Y59449I-800J0D01*
G01*
Y49449D02*
G03*
X164186Y49449I-800J0D01*
G01*
Y39449D02*
G03*
X164186Y39449I-800J0D01*
G01*
Y29449D02*
G03*
X164186Y29449I-800J0D01*
G01*
Y19449D02*
G03*
X164186Y19449I-800J0D01*
G01*
X27237Y50197D02*
G03*
X27237Y50197I-800J0D01*
G01*
X17237D02*
G03*
X17237Y50197I-800J0D01*
G01*
X27237Y38484D02*
G03*
X27237Y38484I-800J0D01*
G01*
X17237D02*
G03*
X17237Y38484I-800J0D01*
G01*
X180210Y79449D02*
G03*
X180210Y79449I-800J0D01*
G01*
Y69449D02*
G03*
X180210Y69449I-800J0D01*
G01*
Y59449D02*
G03*
X180210Y59449I-800J0D01*
G01*
Y49449D02*
G03*
X180210Y49449I-800J0D01*
G01*
Y39449D02*
G03*
X180210Y39449I-800J0D01*
G01*
X103576Y20177D02*
G03*
X103576Y20177I-800J0D01*
G01*
X93576D02*
G03*
X93576Y20177I-800J0D01*
G01*
X83576D02*
G03*
X83576Y20177I-800J0D01*
G01*
X73576D02*
G03*
X73576Y20177I-800J0D01*
G01*
X136627Y158012D02*
G03*
X136627Y158012I-800J0D01*
G01*
Y168012D02*
G03*
X136627Y168012I-800J0D01*
G01*
X125938Y48917D02*
G03*
X125938Y48917I-800J0D01*
G01*
X135938D02*
G03*
X135938Y48917I-800J0D01*
G01*
X145938D02*
G03*
X145938Y48917I-800J0D01*
G01*
X151587Y129311D02*
G03*
X151587Y129311I-800J0D01*
G01*
Y119311D02*
G03*
X151587Y119311I-800J0D01*
G01*
Y109311D02*
G03*
X151587Y109311I-800J0D01*
G01*
Y99311D02*
G03*
X151587Y99311I-800J0D01*
G01*
Y89311D02*
G03*
X151587Y89311I-800J0D01*
G01*
X18418Y118740D02*
G03*
X18418Y118740I-800J0D01*
G01*
Y128740D02*
G03*
X18418Y128740I-800J0D01*
G01*
Y138740D02*
G03*
X18418Y138740I-800J0D01*
G01*
Y148740D02*
G03*
X18418Y148740I-800J0D01*
G01*
X84265Y144095D02*
G03*
X84265Y144095I-800J0D01*
G01*
X74265D02*
G03*
X74265Y144095I-800J0D01*
G01*
X64265D02*
G03*
X64265Y144095I-800J0D01*
G01*
X158170Y341248D02*
G03*
X158170Y341248I-800J0D01*
G01*
Y351248D02*
G03*
X158170Y351248I-800J0D01*
G01*
Y361248D02*
G03*
X158170Y361248I-800J0D01*
G01*
X168198Y307000D02*
G03*
X168198Y307000I-800J0D01*
G01*
Y297000D02*
G03*
X168198Y297000I-800J0D01*
G01*
Y287000D02*
G03*
X168198Y287000I-800J0D01*
G01*
Y277000D02*
G03*
X168198Y277000I-800J0D01*
G01*
X139198Y296500D02*
G03*
X139198Y296500I-800J0D01*
G01*
Y306500D02*
G03*
X139198Y306500I-800J0D01*
G01*
X50800Y10925D02*
G03*
X50800Y10925I-800J0D01*
G01*
Y38484D02*
G03*
X50800Y38484I-800J0D01*
G01*
X113792Y166043D02*
G03*
X113792Y166043I-800J0D01*
G01*
Y193602D02*
G03*
X113792Y193602I-800J0D01*
G01*
D14*
X50400Y10925D02*
G03*
X50400Y10925I-400J0D01*
G01*
Y38484D02*
G03*
X50400Y38484I-400J0D01*
G01*
X113392Y166043D02*
G03*
X113392Y166043I-400J0D01*
G01*
Y193602D02*
G03*
X113392Y193602I-400J0D01*
G01*
M02*
