G04 Layer_Color=32896*
%FSLAX25Y25*%
%MOIN*%
G70*
G01*
G75*
%ADD60C,0.00394*%
%ADD63C,0.00500*%
D60*
X33839Y324945D02*
G03*
X38071Y320713I4232J0D01*
G01*
X45374D02*
G03*
X50374Y325713I0J5000D01*
G01*
Y335673D02*
G03*
X45650Y340398I-4724J0D01*
G01*
X38839D02*
G03*
X33839Y335398I0J-5000D01*
G01*
X87614Y329862D02*
G03*
X87614Y329862I-18402J0D01*
G01*
X38071Y320713D02*
X45354D01*
X45374D01*
X50374Y325713D02*
Y335673D01*
X33839Y324945D02*
Y335398D01*
X38839Y340398D02*
X45650D01*
X55925Y347087D02*
X58287Y344724D01*
X53957Y345118D02*
X55925Y347087D01*
X53957Y345118D02*
X56221Y342854D01*
D63*
X50113Y343062D02*
Y345561D01*
X48863D01*
X48447Y345145D01*
Y344312D01*
X48863Y343895D01*
X50113D01*
X49279D02*
X48447Y343062D01*
X47613D02*
X46780D01*
X47197D01*
Y345561D01*
X47613Y345145D01*
X45531Y343062D02*
X44698D01*
X45114D01*
Y345561D01*
X45531Y345145D01*
X43448Y342646D02*
X41782D01*
X40949Y343062D02*
X40116D01*
X40532D01*
Y345561D01*
X40949Y345145D01*
X87313Y350962D02*
Y353461D01*
X86063D01*
X85646Y353045D01*
Y352212D01*
X86063Y351795D01*
X87313D01*
X83147Y350962D02*
X84813D01*
X83147Y352628D01*
Y353045D01*
X83564Y353461D01*
X84397D01*
X84813Y353045D01*
X82314Y350546D02*
X80648D01*
X78149Y350962D02*
X79815D01*
X78149Y352628D01*
Y353045D01*
X78565Y353461D01*
X79399D01*
X79815Y353045D01*
M02*
