M48
;Layer_Color=9474304
;FILE_FORMAT=2:5
INCH,LZ
;TYPE=PLATED
T9F00S00C0.03937
%
G90
G05
T09
G00X0037106Y0015256
M15
G01Y0018406
M16
G00X0038878Y0046752
M15
G01Y0049902
M16
G00X0051673Y0051476
M15
G01X0048524
M16
G00X0061319Y0046752
M15
G01Y0049902
M16
G00X0063091Y0015256
M15
G01Y0018406
M16
G00X0101673Y0157776
M15
G01Y0154626
M16
G00X0111319Y0153051
M15
G01X0114469
M16
G00X0124114Y0157776
M15
G01Y0154626
M16
G00X0125886Y0189272
M15
G01Y0186122
M16
G00X0099902Y0189272
M15
G01Y0186122
M16
G00X0007874Y0223228
M15
G01X0141732
M16
G00X0174016Y0223228
M15
G01X0307874
M16
M30
